<?xml version="1.0" encoding="UTF-8"?>
<svg id="Layer_8" data-name="Layer 8" xmlns="http://www.w3.org/2000/svg" xmlns:xlink="http://www.w3.org/1999/xlink" viewBox="0 0 1920 1080">
  <defs>
    <style>
      .cls-1 {
        fill: #302c4a;
      }

      .cls-1, .cls-2, .cls-3, .cls-4 {
        stroke-width: 0px;
      }

      .cls-2 {
        fill: url(#linear-gradient);
      }

      .cls-3 {
        fill: #2f2542;
      }

      .cls-4 {
        fill: url(#linear-gradient-2);
      }
    </style>
    <linearGradient id="linear-gradient" x1="960" y1="1080" x2="960" y2="0" gradientUnits="userSpaceOnUse">
      <stop offset="0" stop-color="#2f2542"/>
      <stop offset=".55" stop-color="#302c4a"/>
      <stop offset="1" stop-color="#373351"/>
    </linearGradient>
    <linearGradient id="linear-gradient-2" x1="960" y1="1080" x2="960" y2="54.45" gradientUnits="userSpaceOnUse">
      <stop offset="0" stop-color="#302c4a"/>
      <stop offset=".26" stop-color="#34304e"/>
      <stop offset="1" stop-color="#373351"/>
    </linearGradient>
  </defs>
  <rect class="cls-3" width="1920" height="1080"/>
  <path class="cls-2" d="m1920,0v765.1c-3.81,7.93-7.91,15.71-12.27,23.31-28.23,49.29-67.59,91.4-114.66,122.89-43,28.79-92.43,48.7-145.69,57.15-18.85,3-38.18,4.55-57.88,4.55-91.81,0-175.75-33.76-240.05-89.55.37,6.64.55,13.32.55,20.05,0,63.99-16.4,124.14-45.23,176.5h-642.54c-14.54-26.4-25.92-54.79-33.62-84.66-5.75-22.25-9.45-45.31-10.91-68.98-38.07,42.35-84.73,76.82-137.23,100.67-52.26,23.75-110.32,36.97-171.47,36.97-74.31,0-144.05-19.53-204.38-53.74-5.39-3.05-10.7-6.22-15.93-9.51-32.97-20.69-62.82-45.89-88.69-74.73V0h396.25c24.71,80.59,38.79,165.81,40.6,254.07,165.35,53.49,285.29,207.93,287.13,390.66,66.34-66.55,158.12-107.73,259.52-107.73,91.81,0,175.75,33.76,240.05,89.55-.37-6.64-.55-13.32-.55-20.05,0-202.41,164.09-366.5,366.5-366.5,9.85,0,19.6.39,29.25,1.16,14.34-90.38,52.21-172.92,107.13-241.16h194.12Z"/>
  <path class="cls-1" d="m1920,765.1v28.9c-4.12-1.81-8.21-3.68-12.27-5.59,4.36-7.6,8.46-15.38,12.27-23.31Z"/>
  <path class="cls-1" d="m88.69,1000.75c-28.26,22.75-57.87,43.87-88.69,63.25v-137.98c25.87,28.84,55.72,54.04,88.69,74.73Z"/>
  <path class="cls-4" d="m1920,277.54v802.46H0V54.45c71.79,54.1,132.17,122.52,176.9,201.02,35.91,63,61.72,132.5,75.25,206.29,2.85,15.48,5.14,31.14,6.88,46.98,7.76-.49,15.59-.74,23.47-.74,170.69,0,314.13,116.69,354.89,274.66,6.11,23.65,9.91,48.22,11.15,73.47,8.74-4.34,17.68-8.35,26.8-12,42.1-16.86,88.05-26.13,136.16-26.13,115.61,0,218.71,53.53,285.88,137.16,39.06-46.52,86.63-85.67,140.3-115.06,2.66-1.47,5.33-2.9,8.02-4.29,67.84-35.54,145.03-55.63,226.93-55.63,8.98,0,17.9.24,26.76.72,17.83.96,35.41,2.88,52.68,5.7-7.24-30.69-11.07-62.7-11.07-95.6,0-127,57.04-240.67,146.91-316.79,33.24-28.16,70.97-51.19,111.97-67.84,37.61-15.28,77.96-25.21,120.12-28.83Z"/>
</svg>