<?xml version="1.0" encoding="UTF-8" standalone="no"?>
<!DOCTYPE svg PUBLIC "-//W3C//DTD SVG 1.1//EN" "http://www.w3.org/Graphics/SVG/1.1/DTD/svg11.dtd">
<svg width="100%" height="100%" viewBox="0 0 584 320" version="1.1" xmlns="http://www.w3.org/2000/svg" xmlns:xlink="http://www.w3.org/1999/xlink" xml:space="preserve" xmlns:serif="http://www.serif.com/" style="fill-rule:evenodd;clip-rule:evenodd;stroke-linejoin:round;stroke-miterlimit:2;">
    <g transform="matrix(1,0,0,1,-19.945,8.92)">
        <g transform="matrix(1.078112,0,0,1.078112,-15.999245,-17.51255)">
            <path d="M573.35,61.02L566.51,67.97L550.71,67.97L557.55,61.02L573.35,61.02Z" style="fill:rgb(72,92,115);fill-rule:nonzero;"/>
            <g>
                <g>
                    <clipPath id="_clip1">
                        <path d="M557.55,61.02L550.71,67.97C550.52,67.97 550.12,68 549.53,68.04C548.94,68.09 548.54,68.11 548.34,68.11L555.18,61.16C555.38,61.16 555.77,61.14 556.37,61.09C556.95,61.05 557.35,61.02 557.55,61.02Z"/>
                    </clipPath>
                    <g clip-path="url(#_clip1)">
                        <g>
                            <path d="M557.55,61.02L550.71,67.97C550.52,67.97 550.12,68 549.53,68.04C548.94,68.09 548.54,68.11 548.34,68.11L555.18,61.16C555.37,61.16 555.77,61.14 556.37,61.09C556.95,61.05 557.35,61.02 557.55,61.02" style="fill:rgb(74,94,116);fill-rule:nonzero;"/>
                        </g>
                    </g>
                </g>
            </g>
            <path d="M555.18,61.16L548.34,68.11L545.21,52.75L552.05,45.8L555.18,61.16Z" style="fill:rgb(72,92,115);fill-rule:nonzero;"/>
            <path d="M552.05,45.8L545.21,52.75L528.37,52.75L535.21,45.8L552.05,45.8Z" style="fill:rgb(72,92,115);fill-rule:nonzero;"/>
            <g>
                <g>
                    <clipPath id="_clip2">
                        <path d="M555.79,85.69L548.95,92.64C549.3,91.36 549.67,89.91 550.07,88.28C550.46,86.66 550.79,85.16 551.04,83.78L557.88,76.83C557.63,78.21 557.3,79.71 556.91,81.33C556.52,82.96 556.14,84.41 555.79,85.69Z"/>
                    </clipPath>
                    <g clip-path="url(#_clip2)">
                        <g>
                            <path d="M555.79,85.69L548.95,92.64C549.3,91.36 549.67,89.91 550.07,88.28C550.46,86.66 550.79,85.16 551.04,83.78L557.88,76.83C557.63,78.21 557.3,79.71 556.91,81.33C556.52,82.96 556.14,84.41 555.79,85.69" style="fill:rgb(74,94,116);fill-rule:nonzero;"/>
                        </g>
                    </g>
                </g>
            </g>
            <path d="M554.37,92.63L547.53,99.57L548.95,92.63L555.79,85.69L554.37,92.63Z" style="fill:rgb(72,92,115);fill-rule:nonzero;"/>
            <path d="M550.36,77.42L543.52,84.37L529.34,84.37L536.18,77.42L550.36,77.42Z" style="fill:rgb(72,92,115);fill-rule:nonzero;"/>
            <path d="M497.7,45.8L490.86,52.75L490.28,33.99L497.12,27.04L497.7,45.8Z" style="fill:rgb(72,92,115);fill-rule:nonzero;"/>
            <path d="M506.85,45.8L500.01,52.75L490.86,52.75L497.7,45.8L506.85,45.8Z" style="fill:rgb(72,92,115);fill-rule:nonzero;"/>
            <path d="M508.29,92.63L501.45,99.57L500.01,52.75L506.85,45.8L508.29,92.63Z" style="fill:rgb(72,92,115);fill-rule:nonzero;"/>
            <path d="M573.43,111.54L566.58,118.49L492.87,118.49L499.71,111.54L573.43,111.54Z" style="fill:rgb(72,92,115);fill-rule:nonzero;"/>
            <path d="M570.69,27.04C571.15,32.56 571.54,37.19 571.85,40.93C572.16,44.68 572.41,47.83 572.58,50.39C572.76,52.95 572.92,55.04 573.07,56.67C573.22,58.29 573.31,59.75 573.35,61.03L557.55,61.03C557.36,61.03 556.96,61.06 556.37,61.1C555.78,61.15 555.38,61.17 555.18,61.17L552.05,45.81L535.21,45.81L535.62,59.26L549.8,59.26L550.36,77.43L536.18,77.43L536.65,92.64L554.38,92.64L555.8,85.7C556.15,84.42 556.52,82.97 556.92,81.34C557.31,79.72 557.64,78.22 557.89,76.84L574.15,76.84L573.44,111.56L499.72,111.56L499.14,92.65L508.3,92.65L506.87,45.83L497.71,45.83L497.14,27.07L570.71,27.07L570.69,27.04Z" style="fill:rgb(231,233,236);fill-rule:nonzero;"/>
            <path d="M499.71,111.54L492.87,118.49L492.29,99.57L499.13,92.63L499.71,111.54Z" style="fill:rgb(72,92,115);fill-rule:nonzero;"/>
        </g>
        <g transform="matrix(0.985873,0,0,0.985873,-63.949414,193.324457)">
            <path d="M573.35,61.02L566.51,67.97L550.71,67.97L557.55,61.02L573.35,61.02Z" style="fill:rgb(72,92,115);fill-rule:nonzero;"/>
            <g>
                <g>
                    <clipPath id="_clip3">
                        <path d="M557.55,61.02L550.71,67.97C550.52,67.97 550.12,68 549.53,68.04C548.94,68.09 548.54,68.11 548.34,68.11L555.18,61.16C555.38,61.16 555.77,61.14 556.37,61.09C556.95,61.05 557.35,61.02 557.55,61.02Z"/>
                    </clipPath>
                    <g clip-path="url(#_clip3)">
                        <g>
                            <path d="M557.55,61.02L550.71,67.97C550.52,67.97 550.12,68 549.53,68.04C548.94,68.09 548.54,68.11 548.34,68.11L555.18,61.16C555.37,61.16 555.77,61.14 556.37,61.09C556.95,61.05 557.35,61.02 557.55,61.02" style="fill:rgb(74,94,116);fill-rule:nonzero;"/>
                        </g>
                    </g>
                </g>
            </g>
            <path d="M555.18,61.16L548.34,68.11L545.21,52.75L552.05,45.8L555.18,61.16Z" style="fill:rgb(72,92,115);fill-rule:nonzero;"/>
            <path d="M552.05,45.8L545.21,52.75L528.37,52.75L535.21,45.8L552.05,45.8Z" style="fill:rgb(72,92,115);fill-rule:nonzero;"/>
            <g>
                <g>
                    <clipPath id="_clip4">
                        <path d="M555.79,85.69L548.95,92.64C549.3,91.36 549.67,89.91 550.07,88.28C550.46,86.66 550.79,85.16 551.04,83.78L557.88,76.83C557.63,78.21 557.3,79.71 556.91,81.33C556.52,82.96 556.14,84.41 555.79,85.69Z"/>
                    </clipPath>
                    <g clip-path="url(#_clip4)">
                        <g>
                            <path d="M555.79,85.69L548.95,92.64C549.3,91.36 549.67,89.91 550.07,88.28C550.46,86.66 550.79,85.16 551.04,83.78L557.88,76.83C557.63,78.21 557.3,79.71 556.91,81.33C556.52,82.96 556.14,84.41 555.79,85.69" style="fill:rgb(74,94,116);fill-rule:nonzero;"/>
                        </g>
                    </g>
                </g>
            </g>
            <path d="M554.37,92.63L547.53,99.57L548.95,92.63L555.79,85.69L554.37,92.63Z" style="fill:rgb(72,92,115);fill-rule:nonzero;"/>
            <path d="M550.36,77.42L543.52,84.37L529.34,84.37L536.18,77.42L550.36,77.42Z" style="fill:rgb(72,92,115);fill-rule:nonzero;"/>
            <path d="M497.7,45.8L490.86,52.75L490.28,33.99L497.12,27.04L497.7,45.8Z" style="fill:rgb(72,92,115);fill-rule:nonzero;"/>
            <path d="M506.85,45.8L500.01,52.75L490.86,52.75L497.7,45.8L506.85,45.8Z" style="fill:rgb(72,92,115);fill-rule:nonzero;"/>
            <path d="M508.29,92.63L501.45,99.57L500.01,52.75L506.85,45.8L508.29,92.63Z" style="fill:rgb(72,92,115);fill-rule:nonzero;"/>
            <path d="M573.43,111.54L566.58,118.49L492.87,118.49L499.71,111.54L573.43,111.54Z" style="fill:rgb(72,92,115);fill-rule:nonzero;"/>
            <path d="M570.69,27.04C571.15,32.56 571.54,37.19 571.85,40.93C572.16,44.68 572.41,47.83 572.58,50.39C572.76,52.95 572.92,55.04 573.07,56.67C573.22,58.29 573.31,59.75 573.35,61.03L557.55,61.03C557.36,61.03 556.96,61.06 556.37,61.1C555.78,61.15 555.38,61.17 555.18,61.17L552.05,45.81L535.21,45.81L535.62,59.26L549.8,59.26L550.36,77.43L536.18,77.43L536.65,92.64L554.38,92.64L555.8,85.7C556.15,84.42 556.52,82.97 556.92,81.34C557.31,79.72 557.64,78.22 557.89,76.84L574.15,76.84L573.44,111.56L499.72,111.56L499.14,92.65L508.3,92.65L506.87,45.83L497.71,45.83L497.14,27.07L570.71,27.07L570.69,27.04Z" style="fill:rgb(231,233,236);fill-rule:nonzero;"/>
            <path d="M499.71,111.54L492.87,118.49L492.29,99.57L499.13,92.63L499.71,111.54Z" style="fill:rgb(72,92,115);fill-rule:nonzero;"/>
        </g>
        <g transform="matrix(1.078112,0,0,1.078112,-15.999245,-17.51255)">
            <path d="M487.13,57.48L480.29,64.42L461.23,64.42L468.07,57.48L487.13,57.48Z" style="fill:rgb(72,92,115);fill-rule:nonzero;"/>
            <path d="M468.07,57.48L461.23,64.42L458.67,53.34L465.51,46.4L468.07,57.48Z" style="fill:rgb(72,92,115);fill-rule:nonzero;"/>
            <path d="M465.51,46.4L458.67,53.34L442.72,53.34L449.56,46.4L465.51,46.4Z" style="fill:rgb(72,92,115);fill-rule:nonzero;"/>
            <g>
                <g>
                    <clipPath id="_clip5">
                        <path d="M438.29,54.95L445.13,48C445.3,47.82 445.49,47.66 445.68,47.5C446.6,46.76 447.89,46.39 449.56,46.39L442.72,53.34C441.04,53.34 439.75,53.7 438.84,54.45C438.65,54.61 438.46,54.77 438.29,54.95Z"/>
                    </clipPath>
                    <g clip-path="url(#_clip5)">
                        <g>
                            <path d="M449.56,46.4L442.72,53.35C441.04,53.35 439.75,53.71 438.84,54.46C438.65,54.62 438.46,54.78 438.29,54.96L445.13,48.01C445.3,47.83 445.49,47.67 445.68,47.51C446.6,46.77 447.89,46.4 449.56,46.4" style="fill:rgb(74,94,116);fill-rule:nonzero;"/>
                        </g>
                    </g>
                </g>
            </g>
            <path d="M463.23,92.63L456.39,99.57L456.09,89.53L462.93,82.59L463.23,92.63Z" style="fill:rgb(72,92,115);fill-rule:nonzero;"/>
            <path d="M452,82.59L445.16,89.53L444.63,72.25L451.47,65.3L452,82.59Z" style="fill:rgb(72,92,115);fill-rule:nonzero;"/>
            <path d="M462.93,82.59L456.09,89.53L445.16,89.53L452,82.59L462.93,82.59Z" style="fill:rgb(72,92,115);fill-rule:nonzero;"/>
            <g>
                <g>
                    <clipPath id="_clip6">
                        <path d="M410.43,39.18L417.27,32.23C417.18,32.32 417.1,32.41 417.01,32.5C415.43,34.18 414.26,36.12 413.49,38.33C412.72,40.54 412.37,42.84 412.44,45.2L405.6,52.15C405.53,49.79 405.88,47.5 406.65,45.28C407.42,43.06 408.59,41.12 410.17,39.45C410.26,39.36 410.34,39.27 410.43,39.18Z"/>
                    </clipPath>
                    <g clip-path="url(#_clip6)">
                        <g>
                            <path d="M412.44,45.21L405.6,52.16C405.53,49.8 405.88,47.51 406.65,45.29C407.42,43.07 408.59,41.13 410.17,39.46C410.26,39.37 410.34,39.28 410.43,39.19L417.27,32.24C417.18,32.33 417.1,32.42 417.01,32.51C415.43,34.19 414.26,36.13 413.49,38.34C412.72,40.55 412.37,42.85 412.44,45.21" style="fill:rgb(74,94,116);fill-rule:nonzero;"/>
                        </g>
                    </g>
                </g>
            </g>
            <path d="M491,111.54L484.16,118.49L431.27,118.49L438.11,111.54L491,111.54Z" style="fill:rgb(72,92,115);fill-rule:nonzero;"/>
            <path d="M413.83,90.56L406.99,97.51L405.6,52.16L412.44,45.21L413.83,90.56Z" style="fill:rgb(72,92,115);fill-rule:nonzero;"/>
            <path d="M485.16,27.04L487.13,57.48L468.07,57.48L465.51,46.4L449.56,46.4C447.88,46.4 446.59,46.76 445.68,47.51C444.76,48.25 444.08,49.2 443.62,50.39C443.17,51.57 442.91,52.85 442.85,54.23C442.79,55.61 442.79,56.89 442.83,58.07L443.74,87.76C443.97,88.85 444.29,89.93 444.73,91.01C445.15,92.1 446.11,92.63 447.58,92.63L463.24,92.63L462.93,82.59L452,82.59L451.47,65.31L489.58,65.31L491,111.55L438.11,111.55C429.74,111.55 423.65,109.8 419.85,106.3C416.06,102.81 414.04,97.56 413.83,90.57L412.44,45.22C412.37,42.86 412.72,40.57 413.49,38.35C414.26,36.13 415.43,34.19 417.01,32.52C418.58,30.84 420.53,29.52 422.87,28.53C425.2,27.55 427.89,27.05 430.94,27.05L485.16,27.05L485.16,27.04Z" style="fill:rgb(231,233,236);fill-rule:nonzero;"/>
            <g>
                <g>
                    <clipPath id="_clip7">
                        <path d="M438.11,111.54L431.27,118.49C422.9,118.49 416.81,116.74 413.01,113.24C409.22,109.75 407.2,104.5 406.99,97.51L413.83,90.56C414.04,97.55 416.06,102.8 419.85,106.29C423.65,109.79 429.74,111.54 438.11,111.54Z"/>
                    </clipPath>
                    <g clip-path="url(#_clip7)">
                        <g>
                            <path d="M438.11,111.54L431.27,118.49C422.9,118.49 416.81,116.74 413.01,113.24C409.22,109.75 407.2,104.5 406.99,97.51L413.83,90.56C414.04,97.55 416.06,102.8 419.85,106.29C423.65,109.79 429.74,111.54 438.11,111.54" style="fill:rgb(74,94,116);fill-rule:nonzero;"/>
                        </g>
                    </g>
                </g>
            </g>
        </g>
        <g transform="matrix(1.078112,0,0,1.078112,-15.999245,-17.51255)">
            <path d="M403.77,61.02L396.93,67.97L381.12,67.97L387.97,61.02L403.77,61.02Z" style="fill:rgb(72,92,115);fill-rule:nonzero;"/>
            <g>
                <g>
                    <clipPath id="_clip8">
                        <path d="M387.97,61.02L381.13,67.97C380.93,67.97 380.54,68 379.95,68.04C379.36,68.09 378.96,68.11 378.76,68.11L385.6,61.16C385.8,61.16 386.19,61.14 386.79,61.09C387.37,61.05 387.76,61.02 387.97,61.02Z"/>
                    </clipPath>
                    <g clip-path="url(#_clip8)">
                        <g>
                            <path d="M387.97,61.02L381.13,67.97C380.93,67.97 380.54,68 379.95,68.04C379.36,68.09 378.96,68.11 378.76,68.11L385.6,61.16C385.8,61.16 386.19,61.14 386.79,61.09C387.37,61.05 387.76,61.02 387.97,61.02" style="fill:rgb(74,94,116);fill-rule:nonzero;"/>
                        </g>
                    </g>
                </g>
            </g>
            <path d="M385.6,61.16L378.76,68.11L375.63,52.75L382.47,45.8L385.6,61.16Z" style="fill:rgb(72,92,115);fill-rule:nonzero;"/>
            <path d="M382.47,45.8L375.63,52.75L358.79,52.75L365.63,45.8L382.47,45.8Z" style="fill:rgb(72,92,115);fill-rule:nonzero;"/>
            <g>
                <g>
                    <clipPath id="_clip9">
                        <path d="M386.21,85.69L379.37,92.64C379.72,91.36 380.09,89.91 380.49,88.28C380.88,86.66 381.21,85.16 381.46,83.78L388.3,76.83C388.05,78.21 387.72,79.71 387.33,81.33C386.94,82.96 386.56,84.41 386.21,85.69Z"/>
                    </clipPath>
                    <g clip-path="url(#_clip9)">
                        <g>
                            <path d="M386.21,85.69L379.37,92.64C379.72,91.36 380.09,89.91 380.49,88.28C380.88,86.66 381.21,85.16 381.46,83.78L388.3,76.83C388.05,78.21 387.72,79.71 387.33,81.33C386.94,82.96 386.56,84.41 386.21,85.69" style="fill:rgb(74,94,116);fill-rule:nonzero;"/>
                        </g>
                    </g>
                </g>
            </g>
            <path d="M384.79,92.63L377.95,99.57L379.37,92.63L386.21,85.69L384.79,92.63Z" style="fill:rgb(72,92,115);fill-rule:nonzero;"/>
            <path d="M380.78,77.42L373.94,84.37L359.76,84.37L366.6,77.42L380.78,77.42Z" style="fill:rgb(72,92,115);fill-rule:nonzero;"/>
            <path d="M328.12,45.8L321.28,52.75L320.7,33.99L327.54,27.04L328.12,45.8Z" style="fill:rgb(72,92,115);fill-rule:nonzero;"/>
            <path d="M337.27,45.8L330.43,52.75L321.28,52.75L328.12,45.8L337.27,45.8Z" style="fill:rgb(72,92,115);fill-rule:nonzero;"/>
            <path d="M338.7,92.63L331.86,99.57L330.43,52.75L337.27,45.8L338.7,92.63Z" style="fill:rgb(72,92,115);fill-rule:nonzero;"/>
            <path d="M403.84,111.54L397,118.49L323.29,118.49L330.13,111.54L403.84,111.54Z" style="fill:rgb(72,92,115);fill-rule:nonzero;"/>
            <path d="M401.11,27.04C401.57,32.56 401.96,37.19 402.27,40.93C402.58,44.68 402.83,47.83 403,50.39C403.18,52.95 403.34,55.04 403.49,56.67C403.64,58.29 403.73,59.75 403.77,61.03L387.97,61.03C387.77,61.03 387.38,61.06 386.79,61.1C386.2,61.15 385.8,61.17 385.6,61.17L382.47,45.81L365.63,45.81L366.04,59.26L380.22,59.26L380.78,77.43L366.6,77.43L367.07,92.64L384.8,92.64L386.22,85.7C386.57,84.42 386.94,82.97 387.34,81.34C387.73,79.72 388.06,78.22 388.31,76.84L404.57,76.84L403.86,111.56L330.14,111.56L329.56,92.65L338.72,92.65L337.29,45.83L328.13,45.83L327.56,27.07L401.13,27.07L401.11,27.04Z" style="fill:rgb(231,233,236);fill-rule:nonzero;"/>
            <path d="M330.13,111.54L323.29,118.49L322.71,99.57L329.55,92.63L330.13,111.54Z" style="fill:rgb(72,92,115);fill-rule:nonzero;"/>
        </g>
        <g transform="matrix(1.078112,0,0,1.078112,-15.999245,-17.51255)">
            <path d="M296.06,45.95L289.22,52.9L278.89,52.9L285.73,45.95L296.06,45.95Z" style="fill:rgb(72,92,115);fill-rule:nonzero;"/>
            <g>
                <g>
                    <clipPath id="_clip10">
                        <path d="M301.03,92.49L294.19,99.44C294.6,96.78 295.06,93.94 295.56,90.94C296.05,87.94 296.51,85.16 296.93,82.6L303.77,75.65C303.35,78.21 302.9,80.99 302.4,83.99C301.9,86.99 301.44,89.83 301.03,92.49Z"/>
                    </clipPath>
                    <g clip-path="url(#_clip10)">
                        <g>
                            <path d="M301.03,92.49L294.19,99.44C294.6,96.78 295.06,93.94 295.56,90.94C296.05,87.94 296.51,85.16 296.93,82.6L303.77,75.65C303.35,78.21 302.9,80.99 302.4,83.99C301.9,86.99 301.44,89.83 301.03,92.49" style="fill:rgb(74,94,116);fill-rule:nonzero;"/>
                        </g>
                    </g>
                </g>
            </g>
            <path d="M257.21,45.95L250.37,52.9L241.8,52.9L248.64,45.95L257.21,45.95Z" style="fill:rgb(72,92,115);fill-rule:nonzero;"/>
            <path d="M248.64,45.95L241.8,52.9L241.21,33.4L248.05,26.46L248.64,45.95Z" style="fill:rgb(72,92,115);fill-rule:nonzero;"/>
            <path d="M258.64,92.49L251.8,99.43L250.37,52.9L257.21,45.95L258.64,92.49Z" style="fill:rgb(72,92,115);fill-rule:nonzero;"/>
            <path d="M250.65,111.54L243.81,118.49L243.23,99.43L250.07,92.49L250.65,111.54Z" style="fill:rgb(72,92,115);fill-rule:nonzero;"/>
            <path d="M321.11,111.54L314.27,118.49L243.81,118.49L250.65,111.54L321.11,111.54Z" style="fill:rgb(72,92,115);fill-rule:nonzero;"/>
            <path d="M295.46,26.46L296.06,45.96L285.73,45.96L287.15,92.49L301.03,92.49C301.44,89.83 301.9,86.99 302.4,83.99C302.89,80.99 303.35,78.21 303.77,75.65L321.65,75.65L321.12,111.55L250.66,111.55L250.08,92.49L258.65,92.49L257.23,45.96L248.66,45.96L248.06,26.46L295.48,26.46L295.46,26.46Z" style="fill:rgb(231,233,236);fill-rule:nonzero;"/>
        </g>
        <g transform="matrix(0.97966,0,0,0.97966,-135.862701,194.060666)">
            <path d="M296.06,45.95L289.22,52.9L278.89,52.9L285.73,45.95L296.06,45.95Z" style="fill:rgb(72,92,115);fill-rule:nonzero;"/>
            <g>
                <g>
                    <clipPath id="_clip11">
                        <path d="M301.03,92.49L294.19,99.44C294.6,96.78 295.06,93.94 295.56,90.94C296.05,87.94 296.51,85.16 296.93,82.6L303.77,75.65C303.35,78.21 302.9,80.99 302.4,83.99C301.9,86.99 301.44,89.83 301.03,92.49Z"/>
                    </clipPath>
                    <g clip-path="url(#_clip11)">
                        <g>
                            <path d="M301.03,92.49L294.19,99.44C294.6,96.78 295.06,93.94 295.56,90.94C296.05,87.94 296.51,85.16 296.93,82.6L303.77,75.65C303.35,78.21 302.9,80.99 302.4,83.99C301.9,86.99 301.44,89.83 301.03,92.49" style="fill:rgb(74,94,116);fill-rule:nonzero;"/>
                        </g>
                    </g>
                </g>
            </g>
            <path d="M257.21,45.95L250.37,52.9L241.8,52.9L248.64,45.95L257.21,45.95Z" style="fill:rgb(72,92,115);fill-rule:nonzero;"/>
            <path d="M248.64,45.95L241.8,52.9L241.21,33.4L248.05,26.46L248.64,45.95Z" style="fill:rgb(72,92,115);fill-rule:nonzero;"/>
            <path d="M258.64,92.49L251.8,99.43L250.37,52.9L257.21,45.95L258.64,92.49Z" style="fill:rgb(72,92,115);fill-rule:nonzero;"/>
            <path d="M250.65,111.54L243.81,118.49L243.23,99.43L250.07,92.49L250.65,111.54Z" style="fill:rgb(72,92,115);fill-rule:nonzero;"/>
            <path d="M321.11,111.54L314.27,118.49L243.81,118.49L250.65,111.54L321.11,111.54Z" style="fill:rgb(72,92,115);fill-rule:nonzero;"/>
            <path d="M295.46,26.46L296.06,45.96L285.73,45.96L287.15,92.49L301.03,92.49C301.44,89.83 301.9,86.99 302.4,83.99C302.89,80.99 303.35,78.21 303.77,75.65L321.65,75.65L321.12,111.55L250.66,111.55L250.08,92.49L258.65,92.49L257.23,45.96L248.66,45.96L248.06,26.46L295.48,26.46L295.46,26.46Z" style="fill:rgb(231,233,236);fill-rule:nonzero;"/>
        </g>
        <g transform="matrix(1.078112,0,0,1.078112,-15.999245,-17.51255)">
            <path d="M216.59,45.95L209.75,52.9L199.41,52.9L206.25,45.95L216.59,45.95Z" style="fill:rgb(72,92,115);fill-rule:nonzero;"/>
            <g>
                <g>
                    <clipPath id="_clip12">
                        <path d="M221.56,92.49L214.72,99.44C215.13,96.78 215.58,93.94 216.08,90.94C216.58,87.94 217.04,85.16 217.45,82.6L224.29,75.65C223.88,78.21 223.43,80.99 222.92,83.99C222.42,86.99 221.96,89.83 221.56,92.49Z"/>
                    </clipPath>
                    <g clip-path="url(#_clip12)">
                        <g>
                            <path d="M221.56,92.49L214.72,99.44C215.13,96.78 215.58,93.94 216.08,90.94C216.58,87.94 217.04,85.16 217.45,82.6L224.29,75.65C223.88,78.21 223.43,80.99 222.92,83.99C222.42,86.99 221.96,89.83 221.56,92.49" style="fill:rgb(74,94,116);fill-rule:nonzero;"/>
                        </g>
                    </g>
                </g>
            </g>
            <path d="M177.74,45.95L170.9,52.9L162.33,52.9L169.18,45.95L177.74,45.95Z" style="fill:rgb(72,92,115);fill-rule:nonzero;"/>
            <path d="M169.18,45.95L162.33,52.9L161.74,33.4L168.58,26.46L169.18,45.95Z" style="fill:rgb(72,92,115);fill-rule:nonzero;"/>
            <path d="M179.16,92.49L172.32,99.43L170.9,52.9L177.74,45.95L179.16,92.49Z" style="fill:rgb(72,92,115);fill-rule:nonzero;"/>
            <path d="M171.18,111.54L164.34,118.49L163.76,99.43L170.6,92.49L171.18,111.54Z" style="fill:rgb(72,92,115);fill-rule:nonzero;"/>
            <path d="M241.65,111.54L234.81,118.49L164.34,118.49L171.18,111.54L241.65,111.54Z" style="fill:rgb(72,92,115);fill-rule:nonzero;"/>
            <path d="M216,26.46L216.6,45.96L206.26,45.96L207.68,92.49L221.57,92.49C221.98,89.83 222.43,86.99 222.93,83.99C223.43,80.99 223.89,78.21 224.3,75.65L242.18,75.65L241.66,111.55L171.2,111.55L170.62,92.49L179.18,92.49L177.76,45.96L169.2,45.96L168.6,26.46L216.02,26.46L216,26.46Z" style="fill:rgb(231,233,236);fill-rule:nonzero;"/>
        </g>
        <g transform="matrix(1.078112,0,0,1.078112,-15.999245,-17.51255)">
            <path d="M401.24,143.88L394.4,150.83L387.1,150.83L393.94,143.88L401.24,143.88Z" style="fill:rgb(72,92,115);fill-rule:nonzero;"/>
            <path d="M364.44,143.88L357.6,150.83L357.06,133.32L363.9,126.37L364.44,143.88Z" style="fill:rgb(72,92,115);fill-rule:nonzero;"/>
            <path d="M368.43,143.88L361.59,150.83L357.6,150.83L364.44,143.88L368.43,143.88Z" style="fill:rgb(72,92,115);fill-rule:nonzero;"/>
            <g>
                <g>
                    <clipPath id="_clip13">
                        <path d="M393.94,143.88L387.1,150.83C383.97,153.68 380.91,156.37 377.9,158.9C374.9,161.43 371.79,164.16 368.57,167.1L375.41,160.15C378.63,157.21 381.74,154.48 384.74,151.95C387.75,149.42 390.81,146.73 393.94,143.88Z"/>
                    </clipPath>
                    <g clip-path="url(#_clip13)">
                        <g>
                            <path d="M393.94,143.88L387.1,150.83C383.97,153.68 380.91,156.37 377.9,158.9C374.9,161.43 371.79,164.16 368.57,167.1L375.41,160.15C378.63,157.21 381.74,154.48 384.74,151.95C387.75,149.42 390.81,146.73 393.94,143.88" style="fill:rgb(74,94,116);fill-rule:nonzero;"/>
                        </g>
                    </g>
                </g>
            </g>
            <path d="M357.27,143.88L350.42,150.83L343.67,150.83L350.51,143.88L357.27,143.88Z" style="fill:rgb(72,92,115);fill-rule:nonzero;"/>
            <path d="M353.59,172.28L346.75,179.23L344.46,176.75L351.31,169.8L353.59,172.28Z" style="fill:rgb(72,92,115);fill-rule:nonzero;"/>
            <g>
                <g>
                    <clipPath id="_clip14">
                        <path d="M367.01,187.31L360.17,194.26C358.17,191.96 355.88,189.36 353.31,186.47C350.74,183.57 348.56,181.16 346.75,179.23L353.59,172.28C355.4,174.21 357.58,176.62 360.15,179.52C362.72,182.41 365.01,185.02 367.01,187.31Z"/>
                    </clipPath>
                    <g clip-path="url(#_clip14)">
                        <g>
                            <path d="M367.01,187.31L360.17,194.26C358.17,191.96 355.88,189.36 353.31,186.47C350.74,183.57 348.56,181.16 346.75,179.23L353.59,172.28C355.4,174.21 357.58,176.62 360.15,179.52C362.72,182.41 365.01,185.02 367.01,187.31" style="fill:rgb(74,94,116);fill-rule:nonzero;"/>
                        </g>
                    </g>
                </g>
            </g>
            <path d="M315.35,143.88L308.51,150.83L307.97,133.32L314.81,126.37L315.35,143.88Z" style="fill:rgb(72,92,115);fill-rule:nonzero;"/>
            <path d="M323.21,143.88L316.37,150.83L308.51,150.83L315.35,143.88L323.21,143.88Z" style="fill:rgb(72,92,115);fill-rule:nonzero;"/>
            <path d="M406.57,205.09L399.73,212.04L357.4,212.04L364.24,205.09L406.57,205.09Z" style="fill:rgb(72,92,115);fill-rule:nonzero;"/>
            <path d="M364.24,205.09L357.4,212.04L356.86,194.26L363.7,187.31L364.24,205.09Z" style="fill:rgb(72,92,115);fill-rule:nonzero;"/>
            <path d="M324.54,187.31L317.7,194.26L316.37,150.83L323.21,143.88L324.54,187.31Z" style="fill:rgb(72,92,115);fill-rule:nonzero;"/>
            <path d="M317.23,205.09L310.38,212.04L309.84,194.26L316.68,187.31L317.23,205.09Z" style="fill:rgb(72,92,115);fill-rule:nonzero;"/>
            <path d="M357.62,205.09L350.78,212.04L310.38,212.04L317.23,205.09L357.62,205.09Z" style="fill:rgb(72,92,115);fill-rule:nonzero;"/>
            <path d="M400.71,126.37L401.25,143.88L393.95,143.88C390.82,146.73 387.76,149.42 384.75,151.95C381.75,154.48 378.64,157.21 375.42,160.15L399.14,187.45C400.15,187.45 401.3,187.43 402.59,187.38C403.87,187.34 405.03,187.32 406.04,187.32L406.58,205.1L364.26,205.1L363.72,187.32L367.03,187.32C365.03,185.02 362.74,182.42 360.17,179.53C357.6,176.63 355.42,174.22 353.61,172.29L351.33,169.81L351.87,187.32L357.11,187.32L357.65,205.1L317.25,205.1L316.71,187.32L324.57,187.32L323.24,143.89L315.38,143.89L314.84,126.38L356.75,126.38L357.29,143.89L350.54,143.89L351.02,159.46C354.05,156.61 356.9,154.04 359.54,151.74C362.17,149.44 365.15,146.83 368.46,143.89L364.46,143.89L363.92,126.38L400.73,126.38L400.71,126.37Z" style="fill:rgb(231,233,236);fill-rule:nonzero;"/>
        </g>
        <g transform="matrix(1.052388,0,0,1.052388,-8.475524,86.992151)">
            <path d="M401.24,143.88L394.4,150.83L387.1,150.83L393.94,143.88L401.24,143.88Z" style="fill:rgb(72,92,115);fill-rule:nonzero;"/>
            <path d="M364.44,143.88L357.6,150.83L357.06,133.32L363.9,126.37L364.44,143.88Z" style="fill:rgb(72,92,115);fill-rule:nonzero;"/>
            <path d="M368.43,143.88L361.59,150.83L357.6,150.83L364.44,143.88L368.43,143.88Z" style="fill:rgb(72,92,115);fill-rule:nonzero;"/>
            <g>
                <g>
                    <clipPath id="_clip15">
                        <path d="M393.94,143.88L387.1,150.83C383.97,153.68 380.91,156.37 377.9,158.9C374.9,161.43 371.79,164.16 368.57,167.1L375.41,160.15C378.63,157.21 381.74,154.48 384.74,151.95C387.75,149.42 390.81,146.73 393.94,143.88Z"/>
                    </clipPath>
                    <g clip-path="url(#_clip15)">
                        <g>
                            <path d="M393.94,143.88L387.1,150.83C383.97,153.68 380.91,156.37 377.9,158.9C374.9,161.43 371.79,164.16 368.57,167.1L375.41,160.15C378.63,157.21 381.74,154.48 384.74,151.95C387.75,149.42 390.81,146.73 393.94,143.88" style="fill:rgb(74,94,116);fill-rule:nonzero;"/>
                        </g>
                    </g>
                </g>
            </g>
            <path d="M357.27,143.88L350.42,150.83L343.67,150.83L350.51,143.88L357.27,143.88Z" style="fill:rgb(72,92,115);fill-rule:nonzero;"/>
            <path d="M353.59,172.28L346.75,179.23L344.46,176.75L351.31,169.8L353.59,172.28Z" style="fill:rgb(72,92,115);fill-rule:nonzero;"/>
            <g>
                <g>
                    <clipPath id="_clip16">
                        <path d="M367.01,187.31L360.17,194.26C358.17,191.96 355.88,189.36 353.31,186.47C350.74,183.57 348.56,181.16 346.75,179.23L353.59,172.28C355.4,174.21 357.58,176.62 360.15,179.52C362.72,182.41 365.01,185.02 367.01,187.31Z"/>
                    </clipPath>
                    <g clip-path="url(#_clip16)">
                        <g>
                            <path d="M367.01,187.31L360.17,194.26C358.17,191.96 355.88,189.36 353.31,186.47C350.74,183.57 348.56,181.16 346.75,179.23L353.59,172.28C355.4,174.21 357.58,176.62 360.15,179.52C362.72,182.41 365.01,185.02 367.01,187.31" style="fill:rgb(74,94,116);fill-rule:nonzero;"/>
                        </g>
                    </g>
                </g>
            </g>
            <path d="M315.35,143.88L308.51,150.83L307.97,133.32L314.81,126.37L315.35,143.88Z" style="fill:rgb(72,92,115);fill-rule:nonzero;"/>
            <path d="M323.21,143.88L316.37,150.83L308.51,150.83L315.35,143.88L323.21,143.88Z" style="fill:rgb(72,92,115);fill-rule:nonzero;"/>
            <path d="M406.57,205.09L399.73,212.04L357.4,212.04L364.24,205.09L406.57,205.09Z" style="fill:rgb(72,92,115);fill-rule:nonzero;"/>
            <path d="M364.24,205.09L357.4,212.04L356.86,194.26L363.7,187.31L364.24,205.09Z" style="fill:rgb(72,92,115);fill-rule:nonzero;"/>
            <path d="M324.54,187.31L317.7,194.26L316.37,150.83L323.21,143.88L324.54,187.31Z" style="fill:rgb(72,92,115);fill-rule:nonzero;"/>
            <path d="M317.23,205.09L310.38,212.04L309.84,194.26L316.68,187.31L317.23,205.09Z" style="fill:rgb(72,92,115);fill-rule:nonzero;"/>
            <path d="M357.62,205.09L350.78,212.04L310.38,212.04L317.23,205.09L357.62,205.09Z" style="fill:rgb(72,92,115);fill-rule:nonzero;"/>
            <path d="M400.71,126.37L401.25,143.88L393.95,143.88C390.82,146.73 387.76,149.42 384.75,151.95C381.75,154.48 378.64,157.21 375.42,160.15L399.14,187.45C400.15,187.45 401.3,187.43 402.59,187.38C403.87,187.34 405.03,187.32 406.04,187.32L406.58,205.1L364.26,205.1L363.72,187.32L367.03,187.32C365.03,185.02 362.74,182.42 360.17,179.53C357.6,176.63 355.42,174.22 353.61,172.29L351.33,169.81L351.87,187.32L357.11,187.32L357.65,205.1L317.25,205.1L316.71,187.32L324.57,187.32L323.24,143.89L315.38,143.89L314.84,126.38L356.75,126.38L357.29,143.89L350.54,143.89L351.02,159.46C354.05,156.61 356.9,154.04 359.54,151.74C362.17,149.44 365.15,146.83 368.46,143.89L364.46,143.89L363.92,126.38L400.73,126.38L400.71,126.37Z" style="fill:rgb(231,233,236);fill-rule:nonzero;"/>
        </g>
        <g transform="matrix(1.078112,0,0,1.078112,-15.999245,-17.51255)">
            <path d="M306.94,144.02L300.1,150.96L292.25,150.96L299.09,144.02L306.94,144.02Z" style="fill:rgb(72,92,115);fill-rule:nonzero;"/>
            <path d="M274,144.02L267.16,150.96L266.62,133.32L273.46,126.37L274,144.02Z" style="fill:rgb(72,92,115);fill-rule:nonzero;"/>
            <path d="M282.13,144.02L275.29,150.96L267.16,150.96L274,144.02L282.13,144.02Z" style="fill:rgb(72,92,115);fill-rule:nonzero;"/>
            <path d="M282.88,168.7L276.04,175.65L275.29,150.96L282.13,144.02L282.88,168.7Z" style="fill:rgb(72,92,115);fill-rule:nonzero;"/>
            <path d="M221.19,144.02L214.35,150.96L213.81,133.32L220.65,126.37L221.19,144.02Z" style="fill:rgb(72,92,115);fill-rule:nonzero;"/>
            <path d="M228.36,144.02L221.52,150.96L214.35,150.96L221.19,144.02L228.36,144.02Z" style="fill:rgb(72,92,115);fill-rule:nonzero;"/>
            <path d="M300.96,205.09L294.12,212.04L269.3,212.04L276.14,205.09L300.96,205.09Z" style="fill:rgb(72,92,115);fill-rule:nonzero;"/>
            <path d="M276.14,205.09L269.3,212.04L240.57,169.72L247.41,162.77L276.14,205.09Z" style="fill:rgb(72,92,115);fill-rule:nonzero;"/>
            <path d="M229.69,187.31L222.85,194.26L221.52,150.96L228.36,144.02L229.69,187.31Z" style="fill:rgb(72,92,115);fill-rule:nonzero;"/>
            <path d="M257.26,205.09L250.42,212.04L216.08,212.04L222.92,205.09L257.26,205.09Z" style="fill:rgb(72,92,115);fill-rule:nonzero;"/>
            <path d="M306.4,126.37L306.94,144.02L299.09,144.02L300.96,205.09L276.14,205.09L247.41,162.77L248.16,187.31L256.71,187.31L257.26,205.09L222.92,205.09L222.38,187.31L229.69,187.31L228.36,144.02L221.19,144.02L220.65,126.37L255.4,126.37L282.88,168.7L282.13,144.02L274,144.02L273.46,126.37L306.4,126.37Z" style="fill:rgb(231,233,236);fill-rule:nonzero;"/>
            <path d="M222.92,205.09L216.08,212.04L215.54,194.26L222.38,187.31L222.92,205.09Z" style="fill:rgb(72,92,115);fill-rule:nonzero;"/>
        </g>
        <g transform="matrix(1.078112,0,0,1.078112,-15.999245,-17.51255)">
            <g>
                <g>
                    <clipPath id="_clip17">
                        <path d="M170.98,165.66L164.14,172.61C163.55,171.15 163,169.81 162.5,168.61C162,167.42 161.49,166.23 160.95,165.03C160.41,163.83 159.88,162.59 159.38,161.31C158.88,160.02 158.33,158.6 157.73,157.04L164.57,150.09C165.17,151.65 165.72,153.08 166.22,154.36C166.72,155.65 167.25,156.89 167.79,158.08C168.33,159.28 168.85,160.47 169.34,161.66C169.84,162.86 170.38,164.19 170.98,165.66Z"/>
                    </clipPath>
                    <g clip-path="url(#_clip17)">
                        <g>
                            <path d="M170.98,165.66L164.14,172.61C163.55,171.15 163,169.81 162.5,168.61C162,167.42 161.49,166.23 160.95,165.03C160.41,163.83 159.88,162.59 159.38,161.31C158.88,160.02 158.33,158.6 157.73,157.04L164.57,150.09C165.17,151.65 165.72,153.08 166.22,154.36C166.72,155.65 167.25,156.89 167.79,158.08C168.33,159.28 168.85,160.47 169.34,161.66C169.84,162.86 170.38,164.19 170.98,165.66" style="fill:rgb(74,94,116);fill-rule:nonzero;"/>
                        </g>
                    </g>
                </g>
            </g>
            <path d="M179.51,187.45L172.67,194.39L169.53,186.67L176.37,179.73L179.51,187.45Z" style="fill:rgb(72,92,115);fill-rule:nonzero;"/>
            <g>
                <g>
                    <clipPath id="_clip18">
                        <path d="M176.37,179.73L169.53,186.68C165.67,186.68 162.02,186.72 158.57,186.82C155.13,186.91 151.47,186.95 147.62,186.95L154.46,180C158.32,180 161.97,179.96 165.41,179.87C168.85,179.77 172.51,179.73 176.37,179.73Z"/>
                    </clipPath>
                    <g clip-path="url(#_clip18)">
                        <g>
                            <path d="M176.37,179.73L169.53,186.68C165.67,186.68 162.02,186.72 158.57,186.82C155.13,186.91 151.47,186.95 147.62,186.95L154.46,180C158.32,180 161.97,179.96 165.41,179.87C168.85,179.77 172.51,179.73 176.37,179.73" style="fill:rgb(74,94,116);fill-rule:nonzero;"/>
                        </g>
                    </g>
                </g>
            </g>
            <path d="M214.93,205.09L208.08,212.04L165.49,212.04L172.33,205.09L214.93,205.09Z" style="fill:rgb(72,92,115);fill-rule:nonzero;"/>
            <path d="M172.33,205.09L165.49,212.04L164.95,194.39L171.79,187.45L172.33,205.09Z" style="fill:rgb(72,92,115);fill-rule:nonzero;"/>
            <path d="M133.73,187.45L126.89,194.39L148.58,132.77L155.42,125.82L133.73,187.45Z" style="fill:rgb(72,92,115);fill-rule:nonzero;"/>
            <path d="M126.55,205.09L119.71,212.04L119.17,194.39L126.01,187.45L126.55,205.09Z" style="fill:rgb(72,92,115);fill-rule:nonzero;"/>
            <path d="M207.5,187.59L214.39,187.59L214.93,205.1L172.33,205.1L171.79,187.45L179.51,187.45L176.38,179.73C172.52,179.73 168.87,179.77 165.42,179.87C161.98,179.96 158.32,180 154.47,180C154.04,180.92 153.63,181.84 153.24,182.76C152.85,183.68 152.53,184.56 152.28,185.38C152.3,186.03 152.13,186.71 151.79,187.45L159.24,187.45L159.78,205.1L126.55,205.1L126.01,187.45L133.73,187.45L155.42,125.82L182.59,125.82L207.51,187.59L207.5,187.59ZM159.95,165.66L170.98,165.66C170.39,164.2 169.84,162.86 169.34,161.66C168.84,160.47 168.33,159.28 167.79,158.08C167.25,156.88 166.72,155.64 166.22,154.36C165.72,153.07 165.17,151.65 164.57,150.09L159.95,165.66" style="fill:rgb(231,233,236);fill-rule:nonzero;"/>
            <path d="M159.78,205.09L152.94,212.04L119.71,212.04L126.55,205.09L159.78,205.09Z" style="fill:rgb(72,92,115);fill-rule:nonzero;"/>
        </g>
        <g transform="matrix(1.078112,0,0,1.078112,-15.999245,-17.51255)">
            <g>
                <g>
                    <clipPath id="_clip19">
                        <path d="M113.79,161.16L106.95,168.11C105.8,169.27 104.4,170.36 102.75,171.37L109.59,164.42C111.25,163.41 112.65,162.32 113.79,161.16Z"/>
                    </clipPath>
                    <g clip-path="url(#_clip19)">
                        <g>
                            <path d="M113.79,161.16L106.95,168.11C105.8,169.27 104.4,170.36 102.75,171.37L109.59,164.42C111.25,163.41 112.65,162.32 113.79,161.16" style="fill:rgb(74,94,116);fill-rule:nonzero;"/>
                        </g>
                    </g>
                </g>
            </g>
            <g>
                <g>
                    <clipPath id="_clip20">
                        <path d="M91.54,146.77L84.7,153.72C84.66,152.35 84.2,151.51 83.31,151.24C82.43,150.97 81.26,150.83 79.79,150.83L86.63,143.88C88.1,143.88 89.28,144.01 90.15,144.29C91.04,144.56 91.5,145.4 91.54,146.77Z"/>
                    </clipPath>
                    <g clip-path="url(#_clip20)">
                        <g>
                            <path d="M91.54,146.77L84.7,153.72C84.66,152.35 84.2,151.51 83.31,151.24C82.43,150.97 81.26,150.83 79.79,150.83L86.63,143.88C88.1,143.88 89.28,144.01 90.15,144.29C91.04,144.56 91.5,145.4 91.54,146.77" style="fill:rgb(74,94,116);fill-rule:nonzero;"/>
                        </g>
                    </g>
                </g>
            </g>
            <path d="M91.8,155.46L84.96,162.41L84.7,153.72L91.54,146.77L91.8,155.46Z" style="fill:rgb(72,92,115);fill-rule:nonzero;"/>
            <g>
                <g>
                    <clipPath id="_clip21">
                        <path d="M91.27,156.99L84.43,163.94C84.8,163.56 84.98,163.05 84.96,162.41L91.8,155.46C91.82,156.1 91.64,156.61 91.27,156.99Z"/>
                    </clipPath>
                    <g clip-path="url(#_clip21)">
                        <g>
                            <path d="M91.27,156.99L84.43,163.94C84.8,163.56 84.98,163.05 84.96,162.41L91.8,155.46C91.82,156.1 91.64,156.61 91.27,156.99" style="fill:rgb(74,94,116);fill-rule:nonzero;"/>
                        </g>
                    </g>
                </g>
            </g>
            <path d="M86.63,143.88L79.78,150.83L69.02,150.83L75.87,143.88L86.63,143.88Z" style="fill:rgb(72,92,115);fill-rule:nonzero;"/>
            <g>
                <g>
                    <clipPath id="_clip22">
                        <path d="M93.8,175.73L86.96,182.68C86.95,182.22 86.67,181.76 86.16,181.3C85.64,180.85 85.16,180.62 84.69,180.62L91.53,173.67C91.99,173.67 92.48,173.9 93,174.35C93.52,174.81 93.79,175.27 93.8,175.73Z"/>
                    </clipPath>
                    <g clip-path="url(#_clip22)">
                        <g>
                            <path d="M93.8,175.73L86.96,182.68C86.95,182.22 86.67,181.76 86.16,181.3C85.64,180.85 85.16,180.62 84.69,180.62L91.53,173.67C91.99,173.67 92.48,173.9 93,174.35C93.52,174.81 93.79,175.27 93.8,175.73" style="fill:rgb(74,94,116);fill-rule:nonzero;"/>
                        </g>
                    </g>
                </g>
            </g>
            <path d="M94.07,184.27L87.23,191.22L86.96,182.68L93.8,175.73L94.07,184.27Z" style="fill:rgb(72,92,115);fill-rule:nonzero;"/>
            <g>
                <g>
                    <clipPath id="_clip23">
                        <path d="M93.33,186.36L86.49,193.31C87.01,192.78 87.26,192.09 87.23,191.22L94.07,184.27C94.1,185.14 93.85,185.83 93.33,186.36Z"/>
                    </clipPath>
                    <g clip-path="url(#_clip23)">
                        <g>
                            <path d="M93.33,186.36L86.49,193.31C87.01,192.78 87.26,192.09 87.23,191.22L94.07,184.27C94.1,185.14 93.85,185.83 93.33,186.36" style="fill:rgb(74,94,116);fill-rule:nonzero;"/>
                        </g>
                    </g>
                </g>
            </g>
            <path d="M91.53,173.67L84.69,180.61L69.94,180.61L76.78,173.67L91.53,173.67Z" style="fill:rgb(72,92,115);fill-rule:nonzero;"/>
            <path d="M40.73,144.43L33.89,151.38L33.34,133.46L40.18,126.51L40.73,144.43Z" style="fill:rgb(72,92,115);fill-rule:nonzero;"/>
            <path d="M48.73,144.43L41.88,151.38L33.89,151.38L40.73,144.43L48.73,144.43Z" style="fill:rgb(72,92,115);fill-rule:nonzero;"/>
            <g>
                <g>
                    <clipPath id="_clip24">
                        <path d="M116.7,200.22L109.86,207.17C109.06,207.98 108.18,208.66 107.22,209.22C105.23,210.37 103.02,211.13 100.61,211.5C98.18,211.87 95.82,212.05 93.53,212.05L100.37,205.1C102.67,205.1 105.03,204.92 107.45,204.55C109.87,204.19 112.08,203.42 114.06,202.27C115.03,201.71 115.91,201.03 116.7,200.22Z"/>
                    </clipPath>
                    <g clip-path="url(#_clip24)">
                        <g>
                            <path d="M116.7,200.22L109.86,207.17C109.06,207.98 108.18,208.66 107.22,209.22C105.23,210.37 103.02,211.13 100.61,211.5C98.18,211.87 95.82,212.05 93.53,212.05L100.37,205.1C102.67,205.1 105.03,204.92 107.45,204.55C109.87,204.19 112.08,203.42 114.06,202.27C115.03,201.71 115.91,201.03 116.7,200.22" style="fill:rgb(74,94,116);fill-rule:nonzero;"/>
                        </g>
                    </g>
                </g>
            </g>
            <path d="M50.04,187.45L43.2,194.39L41.88,151.38L48.73,144.43L50.04,187.45Z" style="fill:rgb(72,92,115);fill-rule:nonzero;"/>
            <path d="M100.36,205.09L93.52,212.04L35.75,212.04L42.59,205.09L100.36,205.09Z" style="fill:rgb(72,92,115);fill-rule:nonzero;"/>
            <path d="M117.34,170C119.25,172.16 120.24,174.63 120.32,177.38L120.66,188.41C120.77,192.09 120.2,195.03 118.94,197.24C117.67,199.45 116.05,201.12 114.06,202.27C112.07,203.42 109.86,204.18 107.45,204.55C105.02,204.92 102.66,205.1 100.37,205.1L42.6,205.1L42.06,187.45L50.05,187.45L48.73,144.44L40.74,144.44L40.19,126.52L97.13,126.52C97.78,126.52 98.44,126.49 99.13,126.45C99.82,126.41 100.53,126.38 101.26,126.38C103.19,126.38 105.12,126.64 107.07,127.14C109.02,127.64 110.76,128.4 112.32,129.41C113.87,130.43 115.15,131.76 116.16,133.41C117.17,135.07 117.72,137.04 117.79,139.34L118.14,150.78C118.21,152.99 117.59,155.34 116.29,157.82C114.98,160.3 112.76,162.51 109.6,164.43C112.87,166 115.45,167.86 117.35,170.01L117.34,170ZM94.07,184.27L93.81,175.73C93.8,175.27 93.52,174.81 93.01,174.35C92.49,173.9 92.01,173.67 91.54,173.67L76.78,173.67L77.2,187.45L90.3,187.45C91.41,187.45 92.31,187.18 93.03,186.63C93.75,186.08 94.1,185.3 94.07,184.28M75.87,143.88L76.3,157.8L88.43,157.8C90.73,157.8 91.85,157.02 91.81,155.45L91.54,146.76C91.5,145.39 91.04,144.55 90.15,144.28C89.27,144.01 88.1,143.87 86.63,143.87L75.87,143.87" style="fill:rgb(231,233,236);fill-rule:nonzero;"/>
            <path d="M42.59,205.09L35.75,212.04L35.21,194.39L42.05,187.45L42.59,205.09Z" style="fill:rgb(72,92,115);fill-rule:nonzero;"/>
        </g>
        <g transform="matrix(1.429266,0,0,1.429266,-238.470257,-91.454637)">
            <g>
                <g>
                    <clipPath id="_clip25">
                        <path d="M561.8,233.55L554.96,240.5C554.94,239.98 554.84,239.34 554.65,238.59C554.46,237.84 553.84,237.46 552.79,237.46L559.63,230.51C560.68,230.51 561.3,230.89 561.49,231.64C561.67,232.39 561.78,233.03 561.8,233.55Z"/>
                    </clipPath>
                    <g clip-path="url(#_clip25)">
                        <g>
                            <path d="M561.8,233.55L554.96,240.5C554.94,239.98 554.84,239.34 554.65,238.59C554.46,237.84 553.84,237.46 552.79,237.46L559.63,230.51C560.68,230.51 561.3,230.89 561.49,231.64C561.67,232.39 561.78,233.03 561.8,233.55" style="fill:rgb(74,94,116);fill-rule:nonzero;"/>
                        </g>
                    </g>
                </g>
            </g>
            <g transform="matrix(1.164102,0,0,1.164102,-93.25239,-41.667044)">
                <g>
                    <clipPath id="_clip26">
                        <path d="M579.59,243.64L572.75,250.59C571.55,251.81 570.05,252.91 568.26,253.91L575.1,246.96C576.88,245.96 578.38,244.86 579.59,243.64Z"/>
                    </clipPath>
                    <g clip-path="url(#_clip26)">
                        <g>
                            <path d="M579.59,243.64L572.75,250.59C571.55,251.81 570.266,252.343 568.476,253.343L575.1,246.96C576.88,245.96 578.38,244.86 579.59,243.64" style="fill:rgb(74,94,116);fill-rule:nonzero;"/>
                        </g>
                    </g>
                </g>
            </g>
            <path d="M561.97,238.98L555.13,245.92L554.96,240.5L561.8,233.55L561.97,238.98Z" style="fill:rgb(72,92,115);fill-rule:nonzero;"/>
            <g>
                <g>
                    <clipPath id="_clip27">
                        <path d="M561.41,240.46L554.57,247.41L554.58,247.4C554.96,247.01 555.15,246.51 555.13,245.93L561.97,238.98C561.99,239.56 561.8,240.06 561.42,240.45L561.41,240.46Z"/>
                    </clipPath>
                    <g clip-path="url(#_clip27)">
                        <g>
                            <path d="M561.41,240.46L554.57,247.41L554.58,247.4C554.96,247.01 555.15,246.51 555.13,245.93L561.97,238.98C561.99,239.56 561.8,240.06 561.42,240.45L561.41,240.46" style="fill:rgb(74,94,116);fill-rule:nonzero;"/>
                        </g>
                    </g>
                </g>
            </g>
            <path d="M559.63,230.51L552.79,237.45L544.12,237.45L550.052,230.326L559.63,230.51Z" style="fill:rgb(72,92,115);fill-rule:nonzero;"/>
            <g>
                <g>
                    <clipPath id="_clip28">
                        <path d="M562.09,256.11L555.25,263.06C555.21,261.88 554.92,260.88 554.37,260.06C553.82,259.24 552.89,258.83 551.58,258.83L558.42,251.88C559.73,251.88 560.67,252.29 561.21,253.11C561.75,253.93 562.05,254.94 562.09,256.11Z"/>
                    </clipPath>
                    <g clip-path="url(#_clip28)">
                        <g>
                            <path d="M562.09,256.11L555.25,263.06C555.21,261.88 554.92,260.88 554.37,260.06C553.82,259.24 552.89,258.83 551.58,258.83L558.42,251.88C559.73,251.88 560.67,252.29 561.21,253.11C561.75,253.93 562.05,254.94 562.09,256.11" style="fill:rgb(74,94,116);fill-rule:nonzero;"/>
                        </g>
                    </g>
                </g>
            </g>
            <path d="M558.42,251.87L551.58,258.82L544.68,258.82L551.52,251.87L558.42,251.87Z" style="fill:rgb(72,92,115);fill-rule:nonzero;"/>
            <path d="M588.15,276.212L581.31,280.98L563.88,280.98L570.72,274.03L588.15,276.212Z" style="fill:rgb(72,92,115);fill-rule:nonzero;"/>
            <path d="M562.41,266.45L555.57,273.4L555.25,263.06L562.09,256.11L562.41,266.45Z" style="fill:rgb(72,92,115);fill-rule:nonzero;"/>
            <path d="M522.934,230.901L518.52,237.35L518.14,224.85L522.536,217.91L522.934,230.901Z" style="fill:rgb(72,92,115);fill-rule:nonzero;"/>
            <path d="M528.862,230.903L524.23,237.35L518.52,237.35L522.934,230.902L528.862,230.903Z" style="fill:rgb(72,92,115);fill-rule:nonzero;"/>
            <g>
                <g>
                    <clipPath id="_clip29">
                        <path d="M570.72,274.03L563.88,280.98C562.3,280.98 560.98,280.75 559.92,280.29C558.85,279.84 558.02,279.23 557.4,278.47C556.78,277.72 556.33,276.89 556.05,276.01C555.76,275.12 555.6,274.26 555.57,273.4L562.41,266.45C562.44,267.3 562.6,268.17 562.89,269.06C563.17,269.95 563.62,270.77 564.24,271.52C564.86,272.27 565.69,272.88 566.76,273.34C567.82,273.8 569.14,274.03 570.72,274.03Z"/>
                    </clipPath>
                    <g clip-path="url(#_clip29)">
                        <g>
                            <path d="M570.72,274.03L563.88,280.98C562.3,280.98 560.98,280.75 559.92,280.29C558.85,279.84 558.02,279.23 557.4,278.47C556.78,277.72 556.33,276.89 556.05,276.01C555.76,275.12 555.6,274.26 555.57,273.4L562.41,266.45C562.44,267.3 562.6,268.17 562.89,269.06C563.17,269.95 563.62,270.77 564.24,271.52C564.86,272.27 565.69,272.88 566.76,273.34C567.82,273.8 569.14,274.03 570.72,274.03" style="fill:rgb(74,94,116);fill-rule:nonzero;"/>
                        </g>
                    </g>
                </g>
            </g>
            <path d="M529.849,263.021L524.71,263.056L524.23,237.35L528.862,230.902L529.849,263.021Z" style="fill:rgb(72,92,115);fill-rule:nonzero;"/>
            <path d="M556.943,276.212L551.27,280.98L519.86,280.98L524.323,276.212L556.943,276.212Z" style="fill:rgb(72,92,115);fill-rule:nonzero;"/>
            <path d="M524.323,276.211L519.86,280.98L519.47,268.28L523.921,263.02L524.323,276.211Z" style="fill:rgb(72,92,115);fill-rule:nonzero;"/>
            <g transform="matrix(1.038691,0,0,1.038691,-22.756019,-8.431122)">
                <path d="M584.7,261.33L587.76,261.33L588.15,274.03L570.72,274.03C569.14,274.03 567.82,273.8 566.76,273.34C565.69,272.89 564.86,272.28 564.24,271.52C563.62,270.77 563.17,269.94 562.89,269.06C562.6,268.17 562.44,267.31 562.41,266.45L562.09,256.11C562.05,254.93 561.76,253.93 561.21,253.11C560.66,252.29 559.73,251.88 558.42,251.88L551.52,251.88L551.81,261.34L557.72,261.34L558.11,274.04L526.7,274.04L526.31,261.34L532.02,261.34L531.07,230.42L525.36,230.42L524.98,217.91L567.03,217.91C568.21,217.91 569.62,217.97 571.27,218.1C572.91,218.23 574.51,218.69 576.04,219.48C577.57,220.26 578.91,221.47 580.04,223.07C581.17,224.68 581.78,226.96 581.87,229.91L582.11,237.79C582.17,239.7 581.55,241.41 580.25,242.91C578.95,244.43 577.23,245.76 575.1,246.95C575.77,247.4 576.49,247.92 577.26,248.47C578.03,249.03 578.72,249.67 579.34,250.38C579.95,251.11 580.47,251.91 580.89,252.8C581.32,253.69 581.54,254.65 581.57,255.7L581.67,258.86C581.92,260.5 582.92,261.32 584.7,261.32L584.7,261.33ZM561.97,238.98L561.8,233.56C561.78,233.04 561.68,232.4 561.49,231.65C561.3,230.9 560.68,230.52 559.63,230.52L550.96,230.52L551.28,241.06L559.95,241.06C560.54,241.06 561.03,240.87 561.41,240.47C561.79,240.08 561.98,239.58 561.96,239" style="fill:rgb(231,233,236);fill-rule:nonzero;"/>
            </g>
        </g>
        <g transform="matrix(1.431536,0,0,1.431536,55.832263,-91.805985)">
            <path d="M125.03,230.12L118.19,237.06L112.68,237.06L119.52,230.12L125.03,230.12Z" style="fill:rgb(72,92,115);fill-rule:nonzero;"/>
            <path d="M98.893,230.6L93.08,237.06L86.58,237.06L92.139,230.599L98.893,230.6Z" style="fill:rgb(72,92,115);fill-rule:nonzero;"/>
            <path d="M92.139,230.599L86.58,237.06L86.21,224.75L91.754,217.8L92.139,230.599Z" style="fill:rgb(72,92,115);fill-rule:nonzero;"/>
            <path d="M99.913,263.05L93.532,267.095L93.08,237.06L98.893,230.599L99.913,263.05Z" style="fill:rgb(72,92,115);fill-rule:nonzero;"/>
            <g transform="matrix(0.822531,0,0,0.911566,15.535672,24.830578)">
                <path d="M94.825,275.557L87.92,280.78L87.54,268.28L94.343,261.3L94.825,275.557Z" style="fill:rgb(72,92,115);fill-rule:nonzero;"/>
            </g>
            <g transform="matrix(1.035368,0,0,0.689951,-4.469414,87.083143)">
                <path d="M126.37,273.84L119.53,280.78L89.137,280.78L94.653,273.84L126.37,273.84Z" style="fill:rgb(72,92,115);fill-rule:nonzero;"/>
            </g>
            <g transform="matrix(1.038888,0,0,1.038888,-4.91426,-8.469778)">
                <path d="M124.65,217.8L125.03,230.12L119.52,230.12L120.37,261.33L125.98,261.33L126.37,273.84L94.76,273.84L94.38,261.33L100.88,261.33L99.92,230.12L93.42,230.12L93.05,217.8L124.65,217.8Z" style="fill:rgb(231,233,236);fill-rule:nonzero;"/>
            </g>
        </g>
        <g transform="matrix(1.078112,0,0,1.078112,-15.999245,-17.51255)">
            <path d="M123.28,49.06L116.44,56L95.9,56L102.74,49.06L123.28,49.06Z" style="fill:rgb(72,92,115);fill-rule:nonzero;"/>
            <path d="M102.74,49.06L95.9,56L92.81,36.8L99.65,29.85L102.74,49.06Z" style="fill:rgb(72,92,115);fill-rule:nonzero;"/>
            <path d="M99.65,29.85L92.81,36.8L75.82,36.8L82.66,29.85L99.65,29.85Z" style="fill:rgb(72,92,115);fill-rule:nonzero;"/>
            <g>
                <g>
                    <clipPath id="_clip30">
                        <path d="M69.29,39.06L76.13,32.11C76.46,31.77 76.83,31.46 77.23,31.18C78.48,30.29 80.29,29.85 82.66,29.85L75.82,36.8C73.45,36.8 71.64,37.24 70.39,38.13C69.99,38.41 69.62,38.72 69.29,39.06Z"/>
                    </clipPath>
                    <g clip-path="url(#_clip30)">
                        <g>
                            <path d="M82.66,29.85L75.82,36.8C73.45,36.8 71.64,37.24 70.39,38.13C69.99,38.41 69.62,38.72 69.29,39.06L76.13,32.11C76.46,31.77 76.83,31.46 77.23,31.18C78.48,30.29 80.29,29.85 82.66,29.85" style="fill:rgb(74,94,116);fill-rule:nonzero;"/>
                        </g>
                    </g>
                </g>
            </g>
            <path d="M103.04,82.74L96.2,89.68L95.75,74.91L102.59,67.96L103.04,82.74Z" style="fill:rgb(72,92,115);fill-rule:nonzero;"/>
            <g>
                <g>
                    <clipPath id="_clip31">
                        <path d="M101.54,89.08L94.7,96.03C95,95.72 95.24,95.36 95.4,94.93C95.99,93.41 96.26,91.66 96.2,89.69L103.04,82.74C103.1,84.71 102.83,86.45 102.24,87.98C102.07,88.41 101.84,88.77 101.54,89.08Z"/>
                    </clipPath>
                    <g clip-path="url(#_clip31)">
                        <g>
                            <path d="M101.54,89.08L94.7,96.03C95,95.72 95.24,95.36 95.4,94.93C95.99,93.41 96.26,91.66 96.2,89.69L103.04,82.74C103.1,84.71 102.83,86.45 102.24,87.98C102.07,88.41 101.84,88.77 101.54,89.08" style="fill:rgb(74,94,116);fill-rule:nonzero;"/>
                        </g>
                    </g>
                </g>
            </g>
            <g>
                <g>
                    <clipPath id="_clip32">
                        <path d="M39.57,20.26L46.41,13.31C46.09,13.64 45.77,13.98 45.47,14.34C43.8,16.32 42.52,18.62 41.61,21.28C40.71,23.94 40.31,26.8 40.4,29.85L33.56,36.8C33.47,33.75 33.87,30.89 34.77,28.23C35.67,25.57 36.96,23.27 38.63,21.29C38.93,20.93 39.24,20.59 39.57,20.26Z"/>
                    </clipPath>
                    <g clip-path="url(#_clip32)">
                        <g>
                            <path d="M40.41,29.85L33.57,36.8C33.48,33.75 33.88,30.89 34.78,28.23C35.68,25.57 36.97,23.27 38.64,21.29C38.94,20.93 39.25,20.59 39.58,20.26L46.42,13.31C46.1,13.64 45.78,13.98 45.48,14.34C43.81,16.32 42.53,18.62 41.62,21.28C40.72,23.94 40.32,26.8 40.41,29.85" style="fill:rgb(74,94,116);fill-rule:nonzero;"/>
                        </g>
                    </g>
                </g>
            </g>
            <g>
                <g>
                    <clipPath id="_clip33">
                        <path d="M119.72,105.25L112.88,112.2C112.75,112.33 112.62,112.46 112.49,112.58C110.53,114.45 108.18,115.9 105.45,116.94C102.72,117.97 99.74,118.49 96.48,118.49L103.32,111.54C106.57,111.54 109.56,111.02 112.29,109.99C115.01,108.95 117.36,107.5 119.33,105.63C119.46,105.5 119.59,105.38 119.72,105.25Z"/>
                    </clipPath>
                    <g clip-path="url(#_clip33)">
                        <g>
                            <path d="M119.72,105.25L112.88,112.2C112.75,112.33 112.62,112.46 112.49,112.58C110.53,114.45 108.18,115.9 105.45,116.94C102.72,117.97 99.74,118.49 96.48,118.49L103.32,111.54C106.57,111.54 109.56,111.02 112.29,109.99C115.01,108.95 117.36,107.5 119.33,105.63C119.46,105.5 119.59,105.38 119.72,105.25" style="fill:rgb(74,94,116);fill-rule:nonzero;"/>
                        </g>
                    </g>
                </g>
            </g>
            <path d="M42.06,83.77L35.22,90.71L33.57,36.8L40.41,29.85L42.06,83.77Z" style="fill:rgb(72,92,115);fill-rule:nonzero;"/>
            <path d="M103.33,111.54L96.49,118.49L62.36,118.49L69.2,111.54L103.33,111.54Z" style="fill:rgb(72,92,115);fill-rule:nonzero;"/>
            <path d="M120.84,7.98L123.28,49.05L102.74,49.05L99.64,29.84L82.66,29.84C80.29,29.84 78.48,30.28 77.23,31.17C75.97,32.06 75.05,33.22 74.46,34.64C73.86,36.07 73.54,37.66 73.5,39.43C73.46,41.2 73.46,43.03 73.52,44.9L74.68,82.72C74.93,84.4 75.39,86.07 76.09,87.74C76.78,89.42 78.21,90.26 80.38,90.26L97.81,90.26C100.17,90.26 101.64,89.5 102.24,87.96C102.83,86.44 103.1,84.69 103.04,82.72L102.59,67.94L124.6,67.94L125.27,89.95C125.37,93.2 124.89,96.15 123.85,98.81C122.8,101.47 121.29,103.74 119.33,105.61C117.37,107.48 115.02,108.93 112.29,109.97C109.56,111 106.58,111.52 103.32,111.52L69.2,111.52C65.07,111.52 61.35,110.83 58.06,109.45C54.77,108.08 51.96,106.15 49.61,103.69C47.27,101.23 45.46,98.3 44.17,94.91C42.88,91.51 42.18,87.79 42.06,83.75L40.41,29.83C40.32,26.78 40.72,23.92 41.62,21.26C42.52,18.6 43.81,16.3 45.48,14.32C47.14,12.35 49.16,10.8 51.54,9.67C53.92,8.54 56.53,7.97 59.39,7.97L120.85,7.97L120.84,7.98Z" style="fill:rgb(231,233,236);fill-rule:nonzero;"/>
            <g>
                <g>
                    <clipPath id="_clip34">
                        <path d="M69.2,111.54L62.36,118.49C58.23,118.49 54.51,117.8 51.22,116.42C47.93,115.05 45.12,113.12 42.77,110.66C40.43,108.2 38.62,105.27 37.33,101.88C36.04,98.48 35.34,94.76 35.22,90.72L42.06,83.77C42.18,87.81 42.88,91.53 44.17,94.93C45.45,98.32 47.26,101.26 49.61,103.71C51.95,106.17 54.77,108.1 58.06,109.47C61.36,110.85 65.07,111.54 69.2,111.54Z"/>
                    </clipPath>
                    <g clip-path="url(#_clip34)">
                        <g>
                            <path d="M69.2,111.54L62.36,118.49C58.23,118.49 54.51,117.8 51.22,116.42C47.93,115.05 45.12,113.12 42.77,110.66C40.43,108.2 38.62,105.27 37.33,101.88C36.04,98.48 35.34,94.76 35.22,90.72L42.06,83.77C42.18,87.81 42.88,91.53 44.17,94.93C45.45,98.32 47.26,101.26 49.61,103.71C51.95,106.17 54.77,108.1 58.06,109.47C61.36,110.85 65.07,111.54 69.2,111.54" style="fill:rgb(74,94,116);fill-rule:nonzero;"/>
                        </g>
                    </g>
                </g>
            </g>
        </g>
        <g transform="matrix(0.815763,0,0,0.815763,-7.121431,213.48084)">
            <path d="M123.28,49.06L116.44,56L95.9,56L102.74,49.06L123.28,49.06Z" style="fill:rgb(72,92,115);fill-rule:nonzero;"/>
            <path d="M102.74,49.06L95.9,56L92.81,36.8L99.65,29.85L102.74,49.06Z" style="fill:rgb(72,92,115);fill-rule:nonzero;"/>
            <path d="M99.65,29.85L92.81,36.8L75.82,36.8L82.66,29.85L99.65,29.85Z" style="fill:rgb(72,92,115);fill-rule:nonzero;"/>
            <g>
                <g>
                    <clipPath id="_clip35">
                        <path d="M69.29,39.06L76.13,32.11C76.46,31.77 76.83,31.46 77.23,31.18C78.48,30.29 80.29,29.85 82.66,29.85L75.82,36.8C73.45,36.8 71.64,37.24 70.39,38.13C69.99,38.41 69.62,38.72 69.29,39.06Z"/>
                    </clipPath>
                    <g clip-path="url(#_clip35)">
                        <g>
                            <path d="M82.66,29.85L75.82,36.8C73.45,36.8 71.64,37.24 70.39,38.13C69.99,38.41 69.62,38.72 69.29,39.06L76.13,32.11C76.46,31.77 76.83,31.46 77.23,31.18C78.48,30.29 80.29,29.85 82.66,29.85" style="fill:rgb(74,94,116);fill-rule:nonzero;"/>
                        </g>
                    </g>
                </g>
            </g>
            <path d="M103.04,82.74L96.2,89.68L95.75,74.91L102.59,67.96L103.04,82.74Z" style="fill:rgb(72,92,115);fill-rule:nonzero;"/>
            <g>
                <g>
                    <clipPath id="_clip36">
                        <path d="M101.54,89.08L94.7,96.03C95,95.72 95.24,95.36 95.4,94.93C95.99,93.41 96.26,91.66 96.2,89.69L103.04,82.74C103.1,84.71 102.83,86.45 102.24,87.98C102.07,88.41 101.84,88.77 101.54,89.08Z"/>
                    </clipPath>
                    <g clip-path="url(#_clip36)">
                        <g>
                            <path d="M101.54,89.08L94.7,96.03C95,95.72 95.24,95.36 95.4,94.93C95.99,93.41 96.26,91.66 96.2,89.69L103.04,82.74C103.1,84.71 102.83,86.45 102.24,87.98C102.07,88.41 101.84,88.77 101.54,89.08" style="fill:rgb(74,94,116);fill-rule:nonzero;"/>
                        </g>
                    </g>
                </g>
            </g>
            <g>
                <g>
                    <clipPath id="_clip37">
                        <path d="M39.57,20.26L46.41,13.31C46.09,13.64 45.77,13.98 45.47,14.34C43.8,16.32 42.52,18.62 41.61,21.28C40.71,23.94 40.31,26.8 40.4,29.85L33.56,36.8C33.47,33.75 33.87,30.89 34.77,28.23C35.67,25.57 36.96,23.27 38.63,21.29C38.93,20.93 39.24,20.59 39.57,20.26Z"/>
                    </clipPath>
                    <g clip-path="url(#_clip37)">
                        <g>
                            <path d="M40.41,29.85L33.57,36.8C33.48,33.75 33.88,30.89 34.78,28.23C35.68,25.57 36.97,23.27 38.64,21.29C38.94,20.93 39.25,20.59 39.58,20.26L46.42,13.31C46.1,13.64 45.78,13.98 45.48,14.34C43.81,16.32 42.53,18.62 41.62,21.28C40.72,23.94 40.32,26.8 40.41,29.85" style="fill:rgb(74,94,116);fill-rule:nonzero;"/>
                        </g>
                    </g>
                </g>
            </g>
            <g>
                <g>
                    <clipPath id="_clip38">
                        <path d="M119.72,105.25L112.88,112.2C112.75,112.33 112.62,112.46 112.49,112.58C110.53,114.45 108.18,115.9 105.45,116.94C102.72,117.97 99.74,118.49 96.48,118.49L103.32,111.54C106.57,111.54 109.56,111.02 112.29,109.99C115.01,108.95 117.36,107.5 119.33,105.63C119.46,105.5 119.59,105.38 119.72,105.25Z"/>
                    </clipPath>
                    <g clip-path="url(#_clip38)">
                        <g>
                            <path d="M119.72,105.25L112.88,112.2C112.75,112.33 112.62,112.46 112.49,112.58C110.53,114.45 108.18,115.9 105.45,116.94C102.72,117.97 99.74,118.49 96.48,118.49L103.32,111.54C106.57,111.54 109.56,111.02 112.29,109.99C115.01,108.95 117.36,107.5 119.33,105.63C119.46,105.5 119.59,105.38 119.72,105.25" style="fill:rgb(74,94,116);fill-rule:nonzero;"/>
                        </g>
                    </g>
                </g>
            </g>
            <path d="M42.06,83.77L35.22,90.71L33.57,36.8L40.41,29.85L42.06,83.77Z" style="fill:rgb(72,92,115);fill-rule:nonzero;"/>
            <path d="M103.33,111.54L96.49,118.49L62.36,118.49L69.2,111.54L103.33,111.54Z" style="fill:rgb(72,92,115);fill-rule:nonzero;"/>
            <path d="M120.84,7.98L123.28,49.05L102.74,49.05L99.64,29.84L82.66,29.84C80.29,29.84 78.48,30.28 77.23,31.17C75.97,32.06 75.05,33.22 74.46,34.64C73.86,36.07 73.54,37.66 73.5,39.43C73.46,41.2 73.46,43.03 73.52,44.9L74.68,82.72C74.93,84.4 75.39,86.07 76.09,87.74C76.78,89.42 78.21,90.26 80.38,90.26L97.81,90.26C100.17,90.26 101.64,89.5 102.24,87.96C102.83,86.44 103.1,84.69 103.04,82.72L102.59,67.94L124.6,67.94L125.27,89.95C125.37,93.2 124.89,96.15 123.85,98.81C122.8,101.47 121.29,103.74 119.33,105.61C117.37,107.48 115.02,108.93 112.29,109.97C109.56,111 106.58,111.52 103.32,111.52L69.2,111.52C65.07,111.52 61.35,110.83 58.06,109.45C54.77,108.08 51.96,106.15 49.61,103.69C47.27,101.23 45.46,98.3 44.17,94.91C42.88,91.51 42.18,87.79 42.06,83.75L40.41,29.83C40.32,26.78 40.72,23.92 41.62,21.26C42.52,18.6 43.81,16.3 45.48,14.32C47.14,12.35 49.16,10.8 51.54,9.67C53.92,8.54 56.53,7.97 59.39,7.97L120.85,7.97L120.84,7.98Z" style="fill:rgb(231,233,236);fill-rule:nonzero;"/>
            <g>
                <g>
                    <clipPath id="_clip39">
                        <path d="M69.2,111.54L62.36,118.49C58.23,118.49 54.51,117.8 51.22,116.42C47.93,115.05 45.12,113.12 42.77,110.66C40.43,108.2 38.62,105.27 37.33,101.88C36.04,98.48 35.34,94.76 35.22,90.72L42.06,83.77C42.18,87.81 42.88,91.53 44.17,94.93C45.45,98.32 47.26,101.26 49.61,103.71C51.95,106.17 54.77,108.1 58.06,109.47C61.36,110.85 65.07,111.54 69.2,111.54Z"/>
                    </clipPath>
                    <g clip-path="url(#_clip39)">
                        <g>
                            <path d="M69.2,111.54L62.36,118.49C58.23,118.49 54.51,117.8 51.22,116.42C47.93,115.05 45.12,113.12 42.77,110.66C40.43,108.2 38.62,105.27 37.33,101.88C36.04,98.48 35.34,94.76 35.22,90.72L42.06,83.77C42.18,87.81 42.88,91.53 44.17,94.93C45.45,98.32 47.26,101.26 49.61,103.71C51.95,106.17 54.77,108.1 58.06,109.47C61.36,110.85 65.07,111.54 69.2,111.54" style="fill:rgb(74,94,116);fill-rule:nonzero;"/>
                        </g>
                    </g>
                </g>
            </g>
        </g>
        <g transform="matrix(0.815763,0,0,0.815763,213.427352,213.48084)">
            <path d="M123.28,49.06L116.44,56L95.9,56L102.74,49.06L123.28,49.06Z" style="fill:rgb(72,92,115);fill-rule:nonzero;"/>
            <path d="M102.74,49.06L95.9,56L92.81,36.8L99.65,29.85L102.74,49.06Z" style="fill:rgb(72,92,115);fill-rule:nonzero;"/>
            <path d="M99.65,29.85L92.81,36.8L75.82,36.8L82.66,29.85L99.65,29.85Z" style="fill:rgb(72,92,115);fill-rule:nonzero;"/>
            <g>
                <g>
                    <clipPath id="_clip40">
                        <path d="M69.29,39.06L76.13,32.11C76.46,31.77 76.83,31.46 77.23,31.18C78.48,30.29 80.29,29.85 82.66,29.85L75.82,36.8C73.45,36.8 71.64,37.24 70.39,38.13C69.99,38.41 69.62,38.72 69.29,39.06Z"/>
                    </clipPath>
                    <g clip-path="url(#_clip40)">
                        <g>
                            <path d="M82.66,29.85L75.82,36.8C73.45,36.8 71.64,37.24 70.39,38.13C69.99,38.41 69.62,38.72 69.29,39.06L76.13,32.11C76.46,31.77 76.83,31.46 77.23,31.18C78.48,30.29 80.29,29.85 82.66,29.85" style="fill:rgb(74,94,116);fill-rule:nonzero;"/>
                        </g>
                    </g>
                </g>
            </g>
            <path d="M103.04,82.74L96.2,89.68L95.75,74.91L102.59,67.96L103.04,82.74Z" style="fill:rgb(72,92,115);fill-rule:nonzero;"/>
            <g>
                <g>
                    <clipPath id="_clip41">
                        <path d="M101.54,89.08L94.7,96.03C95,95.72 95.24,95.36 95.4,94.93C95.99,93.41 96.26,91.66 96.2,89.69L103.04,82.74C103.1,84.71 102.83,86.45 102.24,87.98C102.07,88.41 101.84,88.77 101.54,89.08Z"/>
                    </clipPath>
                    <g clip-path="url(#_clip41)">
                        <g>
                            <path d="M101.54,89.08L94.7,96.03C95,95.72 95.24,95.36 95.4,94.93C95.99,93.41 96.26,91.66 96.2,89.69L103.04,82.74C103.1,84.71 102.83,86.45 102.24,87.98C102.07,88.41 101.84,88.77 101.54,89.08" style="fill:rgb(74,94,116);fill-rule:nonzero;"/>
                        </g>
                    </g>
                </g>
            </g>
            <g>
                <g>
                    <clipPath id="_clip42">
                        <path d="M39.57,20.26L46.41,13.31C46.09,13.64 45.77,13.98 45.47,14.34C43.8,16.32 42.52,18.62 41.61,21.28C40.71,23.94 40.31,26.8 40.4,29.85L33.56,36.8C33.47,33.75 33.87,30.89 34.77,28.23C35.67,25.57 36.96,23.27 38.63,21.29C38.93,20.93 39.24,20.59 39.57,20.26Z"/>
                    </clipPath>
                    <g clip-path="url(#_clip42)">
                        <g>
                            <path d="M40.41,29.85L33.57,36.8C33.48,33.75 33.88,30.89 34.78,28.23C35.68,25.57 36.97,23.27 38.64,21.29C38.94,20.93 39.25,20.59 39.58,20.26L46.42,13.31C46.1,13.64 45.78,13.98 45.48,14.34C43.81,16.32 42.53,18.62 41.62,21.28C40.72,23.94 40.32,26.8 40.41,29.85" style="fill:rgb(74,94,116);fill-rule:nonzero;"/>
                        </g>
                    </g>
                </g>
            </g>
            <g>
                <g>
                    <clipPath id="_clip43">
                        <path d="M119.72,105.25L112.88,112.2C112.75,112.33 112.62,112.46 112.49,112.58C110.53,114.45 108.18,115.9 105.45,116.94C102.72,117.97 99.74,118.49 96.48,118.49L103.32,111.54C106.57,111.54 109.56,111.02 112.29,109.99C115.01,108.95 117.36,107.5 119.33,105.63C119.46,105.5 119.59,105.38 119.72,105.25Z"/>
                    </clipPath>
                    <g clip-path="url(#_clip43)">
                        <g>
                            <path d="M119.72,105.25L112.88,112.2C112.75,112.33 112.62,112.46 112.49,112.58C110.53,114.45 108.18,115.9 105.45,116.94C102.72,117.97 99.74,118.49 96.48,118.49L103.32,111.54C106.57,111.54 109.56,111.02 112.29,109.99C115.01,108.95 117.36,107.5 119.33,105.63C119.46,105.5 119.59,105.38 119.72,105.25" style="fill:rgb(74,94,116);fill-rule:nonzero;"/>
                        </g>
                    </g>
                </g>
            </g>
            <path d="M42.06,83.77L35.22,90.71L33.57,36.8L40.41,29.85L42.06,83.77Z" style="fill:rgb(72,92,115);fill-rule:nonzero;"/>
            <path d="M103.33,111.54L96.49,118.49L62.36,118.49L69.2,111.54L103.33,111.54Z" style="fill:rgb(72,92,115);fill-rule:nonzero;"/>
            <path d="M120.84,7.98L123.28,49.05L102.74,49.05L99.64,29.84L82.66,29.84C80.29,29.84 78.48,30.28 77.23,31.17C75.97,32.06 75.05,33.22 74.46,34.64C73.86,36.07 73.54,37.66 73.5,39.43C73.46,41.2 73.46,43.03 73.52,44.9L74.68,82.72C74.93,84.4 75.39,86.07 76.09,87.74C76.78,89.42 78.21,90.26 80.38,90.26L97.81,90.26C100.17,90.26 101.64,89.5 102.24,87.96C102.83,86.44 103.1,84.69 103.04,82.72L102.59,67.94L124.6,67.94L125.27,89.95C125.37,93.2 124.89,96.15 123.85,98.81C122.8,101.47 121.29,103.74 119.33,105.61C117.37,107.48 115.02,108.93 112.29,109.97C109.56,111 106.58,111.52 103.32,111.52L69.2,111.52C65.07,111.52 61.35,110.83 58.06,109.45C54.77,108.08 51.96,106.15 49.61,103.69C47.27,101.23 45.46,98.3 44.17,94.91C42.88,91.51 42.18,87.79 42.06,83.75L40.41,29.83C40.32,26.78 40.72,23.92 41.62,21.26C42.52,18.6 43.81,16.3 45.48,14.32C47.14,12.35 49.16,10.8 51.54,9.67C53.92,8.54 56.53,7.97 59.39,7.97L120.85,7.97L120.84,7.98Z" style="fill:rgb(231,233,236);fill-rule:nonzero;"/>
            <g>
                <g>
                    <clipPath id="_clip44">
                        <path d="M69.2,111.54L62.36,118.49C58.23,118.49 54.51,117.8 51.22,116.42C47.93,115.05 45.12,113.12 42.77,110.66C40.43,108.2 38.62,105.27 37.33,101.88C36.04,98.48 35.34,94.76 35.22,90.72L42.06,83.77C42.18,87.81 42.88,91.53 44.17,94.93C45.45,98.32 47.26,101.26 49.61,103.71C51.95,106.17 54.77,108.1 58.06,109.47C61.36,110.85 65.07,111.54 69.2,111.54Z"/>
                    </clipPath>
                    <g clip-path="url(#_clip44)">
                        <g>
                            <path d="M69.2,111.54L62.36,118.49C58.23,118.49 54.51,117.8 51.22,116.42C47.93,115.05 45.12,113.12 42.77,110.66C40.43,108.2 38.62,105.27 37.33,101.88C36.04,98.48 35.34,94.76 35.22,90.72L42.06,83.77C42.18,87.81 42.88,91.53 44.17,94.93C45.45,98.32 47.26,101.26 49.61,103.71C51.95,106.17 54.77,108.1 58.06,109.47C61.36,110.85 65.07,111.54 69.2,111.54" style="fill:rgb(74,94,116);fill-rule:nonzero;"/>
                        </g>
                    </g>
                </g>
            </g>
        </g>
    </g>
    <g transform="matrix(1,0,0,1,-19.945,8.92)">
        <g transform="matrix(1.078112,0,0,1.078112,-15.999245,-17.51255)">
            <g>
                <clipPath id="_clip45">
                    <path d="M177.45,61.3L173.17,65.64C176.83,47.18 171.58,45.75 171.3,45.67L175.58,41.33C175.86,41.41 181.11,42.84 177.45,61.3Z"/>
                </clipPath>
                <g clip-path="url(#_clip45)">
                    <g>
                        <path d="M177.45,61.3L173.17,65.64C176.83,47.18 171.58,45.75 171.3,45.67L175.58,41.33C175.86,41.41 181.11,42.84 177.45,61.3" style="fill:rgb(74,94,116);fill-rule:nonzero;"/>
                    </g>
                </g>
            </g>
        </g>
        <g transform="matrix(1.078112,0,0,1.078112,-15.999245,-17.51255)">
            <g>
                <clipPath id="_clip46">
                    <path d="M178.03,74.14L173.75,78.48C176.53,75.66 177,71.84 173.65,67.6C173.22,67.05 173.05,66.32 173.17,65.65L177.45,61.31C177.33,61.98 177.49,62.71 177.93,63.26C181.28,67.5 180.81,71.32 178.03,74.14Z"/>
                </clipPath>
                <g clip-path="url(#_clip46)">
                    <g>
                        <path d="M178.03,74.14L173.75,78.48C176.53,75.66 177,71.84 173.65,67.6C173.22,67.05 173.05,66.32 173.17,65.65L177.45,61.31C177.33,61.98 177.49,62.71 177.93,63.26C181.28,67.5 180.81,71.32 178.03,74.14" style="fill:rgb(74,94,116);fill-rule:nonzero;"/>
                    </g>
                </g>
            </g>
        </g>
        <g transform="matrix(1.078112,0,0,1.078112,-15.999245,-17.51255)">
            <g>
                <clipPath id="_clip47">
                    <path d="M134.18,62.85L138.46,58.51C149.2,47.61 166.49,40.6 173.12,40.6C174.34,40.6 175.2,40.84 175.59,41.33L171.31,45.67C170.92,45.17 170.06,44.94 168.84,44.94C162.21,44.94 144.92,51.95 134.18,62.85Z"/>
                </clipPath>
                <g clip-path="url(#_clip47)">
                    <g>
                        <path d="M175.58,41.33L171.3,45.67C170.91,45.17 170.05,44.94 168.83,44.94C162.2,44.94 144.91,51.95 134.17,62.85L138.45,58.51C149.19,47.61 166.48,40.6 173.11,40.6C174.33,40.6 175.19,40.84 175.58,41.33" style="fill:rgb(74,94,116);fill-rule:nonzero;"/>
                    </g>
                </g>
            </g>
        </g>
        <g transform="matrix(1.078112,0,0,1.078112,-15.999245,-17.51255)">
            <g>
                <clipPath id="_clip48">
                    <path d="M175.73,95.73L171.45,100.07C168.25,103.32 163.9,106.07 158.11,107.85C157.73,107.97 157.4,108.17 157.13,108.44L161.41,104.1C161.67,103.83 162.01,103.63 162.39,103.51C168.18,101.72 172.53,98.98 175.73,95.73Z"/>
                </clipPath>
                <g clip-path="url(#_clip48)">
                    <g>
                        <path d="M175.73,95.73L171.45,100.07C168.25,103.32 163.9,106.07 158.11,107.85C157.73,107.97 157.4,108.17 157.13,108.44L161.41,104.1C161.67,103.83 162.01,103.63 162.39,103.51C168.18,101.72 172.53,98.98 175.73,95.73" style="fill:rgb(74,94,116);fill-rule:nonzero;"/>
                    </g>
                </g>
            </g>
        </g>
        <g transform="matrix(1.078112,0,0,1.078112,-15.999245,-17.51255)">
            <g>
                <clipPath id="_clip49">
                    <path d="M145.83,95.37L141.55,99.71C145.55,95.65 148.43,86.56 146.72,81.39L151,77.05C152.72,82.22 149.83,91.32 145.83,95.37Z"/>
                </clipPath>
                <g clip-path="url(#_clip49)">
                    <g>
                        <path d="M145.83,95.37L141.55,99.71C145.55,95.65 148.43,86.56 146.72,81.39L151,77.05C152.72,82.22 149.83,91.32 145.83,95.37" style="fill:rgb(74,94,116);fill-rule:nonzero;"/>
                    </g>
                </g>
            </g>
        </g>
        <g transform="matrix(1.078112,0,0,1.078112,-15.999245,-17.51255)">
            <g>
                <clipPath id="_clip50">
                    <path d="M121.07,76.17L116.79,80.51C117.26,80.04 117.49,79.37 117.43,78.67C117,73.89 119.74,69.01 124.21,64.47L128.49,60.13C124.02,64.67 121.27,69.55 121.71,74.33C121.77,75.03 121.54,75.69 121.07,76.17Z"/>
                </clipPath>
                <g clip-path="url(#_clip50)">
                    <g>
                        <path d="M121.07,76.17L116.79,80.51C117.26,80.04 117.49,79.37 117.43,78.67C117,73.89 119.74,69.01 124.21,64.47L128.49,60.13C124.02,64.67 121.27,69.55 121.71,74.33C121.77,75.03 121.54,75.69 121.07,76.17" style="fill:rgb(74,94,116);fill-rule:nonzero;"/>
                    </g>
                </g>
            </g>
        </g>
        <g transform="matrix(1.078112,0,0,1.078112,-15.999245,-17.51255)">
            <g>
                <clipPath id="_clip51">
                    <path d="M155.5,107.9L151.22,112.24C152.26,111.18 151.52,109.19 149.85,109.14C136.64,108.79 128.95,100.57 121.83,89.48C121.44,88.88 120.83,88.6 120.24,88.6C119.76,88.6 119.3,88.78 118.97,89.12L123.25,84.78C123.58,84.44 124.05,84.26 124.52,84.26C125.11,84.26 125.72,84.54 126.11,85.14C133.23,96.23 140.92,104.45 154.13,104.8C155.8,104.85 156.54,106.84 155.5,107.9Z"/>
                </clipPath>
                <g clip-path="url(#_clip51)">
                    <g>
                        <path d="M155.5,107.9L151.22,112.24C152.26,111.18 151.52,109.19 149.85,109.14C136.64,108.79 128.95,100.57 121.83,89.48C121.44,88.88 120.83,88.6 120.24,88.6C119.76,88.6 119.3,88.78 118.97,89.12L123.25,84.78C123.58,84.44 124.05,84.26 124.52,84.26C125.11,84.26 125.72,84.54 126.11,85.14C133.23,96.23 140.92,104.45 154.13,104.8C155.8,104.85 156.54,106.84 155.5,107.9" style="fill:rgb(74,94,116);fill-rule:nonzero;"/>
                    </g>
                </g>
            </g>
        </g>
        <g transform="matrix(1.078112,0,0,1.078112,-15.999245,-17.51255)">
            <path d="M179.41,62.92C185.62,69.55 187.71,95.69 162.39,103.51C161.56,103.77 160.94,104.45 160.81,105.31C159.94,110.54 155.04,112.03 149.76,112.03C144.48,112.03 138.66,110.51 136.28,109.8C136.06,109.74 135.85,109.71 135.63,109.71C135.16,109.71 134.7,109.85 134.3,110.1C133.11,110.88 131.76,111.23 130.46,111.23C126.99,111.23 123.82,108.75 124.79,105.09C125.03,104.19 124.71,103.21 123.96,102.6C115.19,95.31 114.39,80.52 120.69,76.47C121.4,76.01 121.79,75.19 121.71,74.33C120.17,57.25 159.13,38.98 172.67,38.98C174.3,38.98 175.55,39.24 176.33,39.8C182.3,43.75 179.84,56.54 178.83,60.74C178.65,61.5 178.86,62.33 179.41,62.91L179.41,62.92ZM162.77,79.08C175.35,79.08 184.89,72.08 177.92,63.25C177.49,62.7 177.32,61.97 177.44,61.3C181.1,42.84 175.85,41.41 175.57,41.33C175.18,40.83 174.32,40.6 173.1,40.6C160.36,40.6 108.31,66.44 138.89,96.1C139.84,97.02 140.83,97.43 141.83,97.43C147.55,97.43 153.25,83.85 150.99,77.05C154.95,78.45 158.99,79.08 162.77,79.08M155.12,108.2C156.69,107.28 155.97,104.86 154.13,104.81C140.92,104.46 133.23,96.24 126.11,85.15C125.72,84.55 125.11,84.27 124.52,84.27C123.71,84.27 122.92,84.8 122.78,85.75C120.98,98.31 137.34,109.72 148.86,109.72C151.21,109.72 153.36,109.24 155.12,108.21" style="fill:rgb(231,233,236);fill-rule:nonzero;"/>
        </g>
        <g transform="matrix(1.078112,0,0,1.078112,-15.999245,-17.51255)">
            <g>
                <clipPath id="_clip52">
                    <path d="M158.9,109.22L154.62,113.56C152.53,115.68 149.1,116.38 145.48,116.38C140.13,116.38 134.38,114.86 132,114.15C131.78,114.09 131.57,114.06 131.35,114.06C130.88,114.06 130.42,114.2 130.02,114.45C128.83,115.23 127.48,115.58 126.18,115.58C122.71,115.58 119.54,113.1 120.51,109.44C120.75,108.54 120.43,107.56 119.68,106.95C111.5,100.15 110.26,86.83 115.23,81.78L119.51,77.44C114.54,82.49 115.78,95.81 123.96,102.61C124.71,103.22 125.03,104.2 124.79,105.1C123.82,108.76 126.99,111.24 130.46,111.24C131.77,111.24 133.12,110.89 134.3,110.11C134.7,109.86 135.16,109.72 135.63,109.72C135.85,109.72 136.07,109.75 136.28,109.81C138.66,110.52 144.41,112.04 149.76,112.04C153.38,112.04 156.82,111.34 158.9,109.22Z"/>
                </clipPath>
                <g clip-path="url(#_clip52)">
                    <g>
                        <path d="M158.9,109.22L154.62,113.56C152.53,115.68 149.1,116.38 145.48,116.38C140.13,116.38 134.38,114.86 132,114.15C131.78,114.09 131.57,114.06 131.35,114.06C130.88,114.06 130.42,114.2 130.02,114.45C128.83,115.23 127.48,115.58 126.18,115.58C122.71,115.58 119.54,113.1 120.51,109.44C120.75,108.54 120.43,107.56 119.68,106.95C111.5,100.15 110.26,86.83 115.23,81.78L119.51,77.44C114.54,82.49 115.78,95.81 123.96,102.61C124.71,103.22 125.03,104.2 124.79,105.1C123.82,108.76 126.99,111.24 130.46,111.24C131.77,111.24 133.12,110.89 134.3,110.11C134.7,109.86 135.16,109.72 135.63,109.72C135.85,109.72 136.07,109.75 136.28,109.81C138.66,110.52 144.41,112.04 149.76,112.04C153.38,112.04 156.82,111.34 158.9,109.22" style="fill:rgb(74,94,116);fill-rule:nonzero;"/>
                    </g>
                </g>
            </g>
        </g>
    </g>
    <g transform="matrix(1.078112,0,0,1.078112,-35.944245,-8.59255)">
        <path d="M167.89,42.9L167.89,47.96L177.61,47.96L174.38,45.43L167.89,42.9Z" style="fill:rgb(72,92,115);fill-rule:nonzero;"/>
    </g>
</svg>
