<?xml version="1.0" encoding="UTF-8"?>
<svg id="d" data-name="txt" xmlns="http://www.w3.org/2000/svg" viewBox="0 0 145.52 137.33">
  <defs>
    <style>
      .e {
        fill: #fff;
      }

      .f {
        fill: #302f41;
      }
    </style>
  </defs>
  <path class="f" d="M122.04,47.96c-.87-.97-1.17-2.32-.84-3.57,1.86-6.92,6.56-27.95-3.07-34.45C106.48,1.35,24.68,35.25,26.56,66.73c.08,1.41-.58,2.76-1.78,3.53-10.56,6.65-9.99,30.97,4.07,42.96,1.19,1.01,1.67,2.62,1.23,4.11-2.44,8.28,8.14,12.9,15.4,8.23.98-.62,2.15-.81,3.27-.49,7.71,2.32,37.16,9.92,40.57-7.38.26-1.41,1.31-2.54,2.7-2.95,42.02-12.88,39.91-55.88,30.02-66.78ZM79.82,122.43c-17.35,10.07-56.39-12.08-52.06-36.94.47-2.7,4.06-3.32,5.5-.99,11.16,18.25,23.39,31.78,45.1,32.35,3.02.08,4.07,4.06,1.46,5.58ZM74.61,71.2c3.94,13.12-10.58,41.61-20.86,31.32C.26,49.05,109.8,3.15,116.85,12.45c0,0,9.01,2.48,2.06,32.84-.24,1.11-.01,2.3.69,3.21,14.31,18.86-17.08,32.67-44.99,22.7Z"/>
  <path class="e" d="M79.82,122.43c-17.35,10.07-56.39-12.08-52.06-36.94.47-2.7,4.06-3.32,5.5-.99,11.16,18.25,23.39,31.78,45.1,32.35,3.02.08,4.07,4.06,1.46,5.58Z"/>
  <path class="e" d="M74.61,71.2c3.94,13.12-10.58,41.61-20.86,31.32C.26,49.05,109.8,3.15,116.85,12.45c0,0,9.01,2.48,2.06,32.84-.24,1.11-.01,2.3.69,3.21,14.31,18.86-17.08,32.67-44.99,22.7Z"/>
</svg>