<?xml version="1.0" encoding="UTF-8"?>
<svg id="d" data-name="txt" xmlns="http://www.w3.org/2000/svg" viewBox="0 0 145.52 137.33">
  <defs>
    <style>
      .e {
        fill: #302f41;
      }
    </style>
  </defs>
  <path class="e" d="M122.05,47.96c-.88-.96-1.18-2.32-.85-3.57,1.87-6.91,6.56-27.95-3.07-34.44C106.48,1.35,24.69,35.26,26.56,66.73c.09,1.42-.58,2.77-1.78,3.53-10.56,6.66-9.99,30.97,4.07,42.97,1.19,1.01,1.67,2.62,1.23,4.11-2.44,8.28,8.14,12.9,15.39,8.23.98-.62,2.15-.81,3.27-.49,7.71,2.32,37.16,9.92,40.57-7.38.27-1.42,1.32-2.54,2.7-2.96,42.02-12.88,39.91-55.87,30.03-66.78ZM79.82,122.44c-17.35,10.07-56.39-12.08-52.06-36.94.47-2.7,4.06-3.32,5.5-.99,11.16,18.25,23.39,31.78,45.1,32.34,3.02.09,4.07,4.06,1.46,5.59ZM74.61,71.2c3.95,13.12-10.58,41.61-20.86,31.33C.27,49.06,109.81,3.15,116.85,12.46c0,0,9.02,2.48,2.07,32.84-.25,1.11-.01,2.3.69,3.22,14.31,18.86-17.08,32.67-44.99,22.7Z"/>
</svg>