<?xml version="1.0" encoding="UTF-8"?>
<svg id="d" data-name="txt" xmlns="http://www.w3.org/2000/svg" xmlns:xlink="http://www.w3.org/1999/xlink" viewBox="0 0 622.99 301.26">
  <defs>
    <style>
      .bj {
        clip-path: url(#ba);
      }

      .bk {
        clip-path: url(#ay);
      }

      .bl {
        clip-path: url(#an);
      }

      .bm {
        clip-path: url(#t);
      }

      .bn {
        clip-path: url(#i);
      }

      .bo {
        clip-path: url(#af);
      }

      .bp {
        clip-path: url(#x);
      }

      .bq {
        clip-path: url(#k);
      }

      .br {
        clip-path: url(#q);
      }

      .bs {
        clip-path: url(#ar);
      }

      .bt {
        clip-path: url(#bb);
      }

      .bu {
        clip-path: url(#m);
      }

      .bv {
        clip-path: url(#f);
      }

      .bw {
        fill: #485c73;
      }

      .bx {
        clip-path: url(#j);
      }

      .by {
        clip-path: url(#aa);
      }

      .bz {
        clip-path: url(#ai);
      }

      .ca {
        clip-path: url(#bc);
      }

      .cb {
        clip-path: url(#ac);
      }

      .cc {
        clip-path: url(#ad);
      }

      .cd {
        clip-path: url(#bi);
      }

      .ce {
        clip-path: url(#al);
      }

      .cf {
        clip-path: url(#ax);
      }

      .cg {
        clip-path: url(#av);
      }

      .ch {
        clip-path: url(#bg);
      }

      .ci {
        fill: none;
      }

      .cj {
        clip-path: url(#am);
      }

      .ck {
        clip-path: url(#aq);
      }

      .cl {
        clip-path: url(#p);
      }

      .cm {
        clip-path: url(#h);
      }

      .cn {
        clip-path: url(#ak);
      }

      .co {
        clip-path: url(#ag);
      }

      .cp {
        clip-path: url(#o);
      }

      .cq {
        isolation: isolate;
      }

      .cr {
        clip-path: url(#v);
      }

      .cs {
        clip-path: url(#bd);
      }

      .ct {
        clip-path: url(#n);
      }

      .cu {
        fill: #4a5e74;
      }

      .cv {
        clip-path: url(#be);
      }

      .cw {
        clip-path: url(#r);
      }

      .cx {
        clip-path: url(#s);
      }

      .cy {
        clip-path: url(#az);
      }

      .cz {
        clip-path: url(#at);
      }

      .da {
        clip-path: url(#g);
      }

      .db {
        clip-path: url(#z);
      }

      .dc {
        clip-path: url(#ao);
      }

      .dd {
        clip-path: url(#ap);
      }

      .de {
        clip-path: url(#l);
      }

      .df {
        clip-path: url(#ae);
      }

      .dg {
        clip-path: url(#e);
      }

      .dh {
        clip-path: url(#au);
      }

      .di {
        clip-path: url(#aj);
      }

      .dj {
        clip-path: url(#w);
      }

      .dk {
        fill: #e7e9ec;
      }

      .dl {
        clip-path: url(#ab);
      }

      .dm {
        clip-path: url(#bf);
      }

      .dn {
        clip-path: url(#ah);
      }

      .do {
        clip-path: url(#y);
      }

      .dp {
        clip-path: url(#as);
      }

      .dq {
        clip-path: url(#u);
      }

      .dr {
        clip-path: url(#bh);
      }

      .ds {
        clip-path: url(#aw);
      }
    </style>
    <clipPath id="e">
      <path class="ci" d="M557.55,61.02l-6.84,6.95c-.19,0-.59.03-1.18.07-.59.05-.99.07-1.19.07l6.84-6.95c.2,0,.59-.02,1.19-.07.58-.04.98-.07,1.18-.07Z"/>
    </clipPath>
    <clipPath id="f">
      <path class="ci" d="M555.79,85.69l-6.84,6.95c.35-1.28.72-2.73,1.12-4.36.39-1.62.72-3.12.97-4.5l6.84-6.95c-.25,1.38-.58,2.88-.97,4.5-.39,1.63-.77,3.08-1.12,4.36Z"/>
    </clipPath>
    <clipPath id="g">
      <path class="ci" d="M438.29,54.95l6.84-6.95c.17-.18.36-.34.55-.5.92-.74,2.21-1.11,3.88-1.11l-6.84,6.95c-1.68,0-2.97.36-3.88,1.11-.19.16-.38.32-.55.5Z"/>
    </clipPath>
    <clipPath id="h">
      <path class="ci" d="M410.43,39.18l6.84-6.95c-.09.09-.17.18-.26.27-1.58,1.68-2.75,3.62-3.52,5.83s-1.12,4.51-1.05,6.87l-6.84,6.95c-.07-2.36.28-4.65,1.05-6.87s1.94-4.16,3.52-5.83c.09-.09.17-.18.26-.27Z"/>
    </clipPath>
    <clipPath id="i">
      <path class="ci" d="M438.11,111.54l-6.84,6.95c-8.37,0-14.46-1.75-18.26-5.25-3.79-3.49-5.81-8.74-6.02-15.73l6.84-6.95c.21,6.99,2.23,12.24,6.02,15.73,3.8,3.5,9.89,5.25,18.26,5.25Z"/>
    </clipPath>
    <clipPath id="j">
      <path class="ci" d="M387.97,61.02l-6.84,6.95c-.2,0-.59.03-1.18.07-.59.05-.99.07-1.19.07l6.84-6.95c.2,0,.59-.02,1.19-.07.58-.04.97-.07,1.18-.07Z"/>
    </clipPath>
    <clipPath id="k">
      <path class="ci" d="M386.21,85.69l-6.84,6.95c.35-1.28.72-2.73,1.12-4.36.39-1.62.72-3.12.97-4.5l6.84-6.95c-.25,1.38-.58,2.88-.97,4.5-.39,1.63-.77,3.08-1.12,4.36Z"/>
    </clipPath>
    <clipPath id="l">
      <path class="ci" d="M301.03,92.49l-6.84,6.95c.41-2.66.87-5.5,1.37-8.5.49-3,.95-5.78,1.37-8.34l6.84-6.95c-.42,2.56-.87,5.34-1.37,8.34-.5,3-.96,5.84-1.37,8.5Z"/>
    </clipPath>
    <clipPath id="m">
      <path class="ci" d="M221.56,92.49l-6.84,6.95c.41-2.66.86-5.5,1.36-8.5.5-3,.96-5.78,1.37-8.34l6.84-6.95c-.41,2.56-.86,5.34-1.37,8.34-.5,3-.96,5.84-1.36,8.5Z"/>
    </clipPath>
    <clipPath id="n">
      <path class="ci" d="M393.94,143.88l-6.84,6.95c-3.13,2.85-6.19,5.54-9.2,8.07-3,2.53-6.11,5.26-9.33,8.2l6.84-6.95c3.22-2.94,6.33-5.67,9.33-8.2,3.01-2.53,6.07-5.22,9.2-8.07Z"/>
    </clipPath>
    <clipPath id="o">
      <path class="ci" d="M367.01,187.31l-6.84,6.95c-2-2.3-4.29-4.9-6.86-7.79-2.57-2.9-4.75-5.31-6.56-7.24l6.84-6.95c1.81,1.93,3.99,4.34,6.56,7.24,2.57,2.89,4.86,5.5,6.86,7.79Z"/>
    </clipPath>
    <clipPath id="p">
      <path class="ci" d="M170.98,165.66l-6.84,6.95c-.59-1.46-1.14-2.8-1.64-4-.5-1.19-1.01-2.38-1.55-3.58-.54-1.2-1.07-2.44-1.57-3.72-.5-1.29-1.05-2.71-1.65-4.27l6.84-6.95c.6,1.56,1.15,2.99,1.65,4.27.5,1.29,1.03,2.53,1.57,3.72.54,1.2,1.06,2.39,1.55,3.58.5,1.2,1.04,2.53,1.64,4Z"/>
    </clipPath>
    <clipPath id="q">
      <path class="ci" d="M176.37,179.73l-6.84,6.95c-3.86,0-7.51.04-10.96.14-3.44.09-7.1.13-10.95.13l6.84-6.95c3.86,0,7.51-.04,10.95-.13,3.44-.1,7.1-.14,10.96-.14Z"/>
    </clipPath>
    <clipPath id="r">
      <path class="ci" d="M113.79,161.16l-6.84,6.95c-1.15,1.16-2.55,2.25-4.2,3.26l6.84-6.95c1.66-1.01,3.06-2.1,4.2-3.26Z"/>
    </clipPath>
    <clipPath id="s">
      <path class="ci" d="M91.54,146.77l-6.84,6.95c-.04-1.37-.5-2.21-1.39-2.48-.88-.27-2.05-.41-3.52-.41l6.84-6.95c1.47,0,2.65.13,3.52.41.89.27,1.35,1.11,1.39,2.48Z"/>
    </clipPath>
    <clipPath id="t">
      <path class="ci" d="M91.27,156.99l-6.84,6.95c.37-.38.55-.89.53-1.53l6.84-6.95c.02.64-.16,1.15-.53,1.53Z"/>
    </clipPath>
    <clipPath id="u">
      <path class="ci" d="M93.8,175.73l-6.84,6.95c-.01-.46-.29-.92-.8-1.38-.52-.45-1-.68-1.47-.68l6.84-6.95c.46,0,.95.23,1.47.68.52.46.79.92.8,1.38Z"/>
    </clipPath>
    <clipPath id="v">
      <path class="ci" d="M93.33,186.36l-6.84,6.95c.52-.53.77-1.22.74-2.09l6.84-6.95c.03.87-.22,1.56-.74,2.09Z"/>
    </clipPath>
    <clipPath id="w">
      <path class="ci" d="M116.7,200.22l-6.84,6.95c-.8.81-1.68,1.49-2.64,2.05-1.99,1.15-4.2,1.91-6.61,2.28-2.43.37-4.79.55-7.08.55l6.84-6.95c2.3,0,4.66-.18,7.08-.55,2.42-.36,4.63-1.13,6.61-2.28.97-.56,1.85-1.24,2.64-2.05Z"/>
    </clipPath>
    <clipPath id="x">
      <path class="ci" d="M561.8,233.55l-6.84,6.95c-.02-.52-.12-1.16-.31-1.91-.19-.75-.81-1.13-1.86-1.13l6.84-6.95c1.05,0,1.67.38,1.86,1.13.18.75.29,1.39.31,1.91Z"/>
    </clipPath>
    <clipPath id="y">
      <path class="ci" d="M579.59,243.64l-6.84,6.95c-1.2,1.22-2.7,2.32-4.49,3.32l6.84-6.95c1.78-1,3.28-2.1,4.49-3.32Z"/>
    </clipPath>
    <clipPath id="z">
      <path class="ci" d="M561.41,240.46l-6.84,6.95s0,0,.01-.01c.38-.39.57-.89.55-1.47l6.84-6.95c.02.58-.17,1.08-.55,1.47,0,0,0,0-.01.01Z"/>
    </clipPath>
    <clipPath id="aa">
      <path class="ci" d="M562.09,256.11l-6.84,6.95c-.04-1.18-.33-2.18-.88-3s-1.48-1.23-2.79-1.23l6.84-6.95c1.31,0,2.25.41,2.79,1.23s.84,1.83.88,3Z"/>
    </clipPath>
    <clipPath id="ab">
      <path class="ci" d="M570.72,274.03l-6.84,6.95c-1.58,0-2.9-.23-3.96-.69-1.07-.45-1.9-1.06-2.52-1.82-.62-.75-1.07-1.58-1.35-2.46-.29-.89-.45-1.75-.48-2.61l6.84-6.95c.03.85.19,1.72.48,2.61.28.89.73,1.71,1.35,2.46.62.75,1.45,1.36,2.52,1.82,1.06.46,2.38.69,3.96.69Z"/>
    </clipPath>
    <clipPath id="ac">
      <path class="ci" d="M498.07,233.16l-6.84,6.95c-.06-1.91-.91-2.85-2.55-2.85l6.84-6.95c1.64,0,2.49.95,2.55,2.85Z"/>
    </clipPath>
    <clipPath id="ad">
      <path class="ci" d="M477.11,238.02l6.84-6.95c.5-.51,1.21-.76,2.11-.76l-6.84,6.95c-.91,0-1.61.25-2.11.76Z"/>
    </clipPath>
    <clipPath id="ae">
      <path class="ci" d="M498.01,260.66l-6.84,6.95c.26-.26.43-.59.53-1,.26-1.12.37-2.33.33-3.64l6.84-6.95c.04,1.31-.07,2.53-.33,3.64-.1.41-.27.74-.53,1Z"/>
    </clipPath>
    <clipPath id="af">
      <path class="ci" d="M459.44,227.89l6.84-6.95c-.08.08-.16.17-.24.25-1.05,1.15-1.81,2.46-2.29,3.94-.48,1.48-.7,2.98-.65,4.48l-6.84,6.95c-.05-1.51.17-3,.65-4.48.48-1.47,1.24-2.78,2.29-3.94.08-.09.16-.17.24-.25Z"/>
    </clipPath>
    <clipPath id="ag">
      <path class="ci" d="M515.03,269.81l-6.84,6.95c-1.23,1.25-2.81,2.26-4.72,3.04s-4.26,1.18-6.96,1.18l6.84-6.95c2.69,0,5.01-.39,6.96-1.18s3.49-1.79,4.72-3.04Z"/>
    </clipPath>
    <clipPath id="ah">
      <path class="ci" d="M481.49,274.03l-6.84,6.95c-4.2,0-7.46-.6-9.8-1.82-2.34-1.21-4.07-2.66-5.21-4.33-1.13-1.68-1.82-3.35-2.07-5.03-.26-1.68-.39-2.97-.42-3.89l6.84-6.95c.03.92.17,2.22.42,3.89.25,1.68.94,3.35,2.07,5.03,1.14,1.68,2.87,3.12,5.21,4.33,2.33,1.21,5.6,1.82,9.8,1.82Z"/>
    </clipPath>
    <clipPath id="ai">
      <path class="ci" d="M370.83,245.87l-6.84,6.95c-.43-1.05-.81-2-1.17-2.85-.36-.85-.73-1.7-1.12-2.56-.39-.85-.76-1.74-1.12-2.66-.36-.91-.75-1.93-1.17-3.05l6.84-6.95c.42,1.12.82,2.14,1.17,3.05.36.92.73,1.81,1.12,2.66.38.86.75,1.71,1.12,2.56.35.85.74,1.81,1.17,2.85Z"/>
    </clipPath>
    <clipPath id="aj">
      <path class="ci" d="M374.68,255.92l-6.84,6.95c-2.76,0-5.37.04-7.83.1-2.45.06-5.07.1-7.82.1l6.84-6.95c2.76,0,5.37-.04,7.82-.1,2.46-.06,5.08-.1,7.83-.1Z"/>
    </clipPath>
    <clipPath id="ak">
      <path class="ci" d="M318.91,261.33l-6.84,6.95c.27-1.77.57-3.66.91-5.66.33-2,.64-3.86.91-5.57l6.84-6.95c-.28,1.71-.58,3.56-.91,5.57-.34,2-.63,3.89-.91,5.66Z"/>
    </clipPath>
    <clipPath id="al">
      <path class="ci" d="M257.87,260.58l-6.84,6.95c.23-.23.42-.51.57-.83.27-.59.4-1.41.37-2.46l6.84-6.95c.03,1.05-.09,1.87-.37,2.46-.15.32-.34.6-.57.83Z"/>
    </clipPath>
    <clipPath id="am">
      <path class="ci" d="M268.14,269.81l-6.84,6.95c-.34.35-.71.67-1.09.97-1.51,1.19-3.22,2.02-5.14,2.52-1.92.49-3.86.74-5.84.74l6.84-6.95c1.98,0,3.92-.25,5.84-.74,1.93-.5,3.64-1.33,5.14-2.52.38-.3.75-.62,1.09-.97Z"/>
    </clipPath>
    <clipPath id="an">
      <path class="ci" d="M239.63,274.03l-6.84,6.95c-5.45,0-9.51-1.2-12.17-3.59-2.67-2.4-4.07-5.87-4.21-10.4l6.84-6.95c.14,4.53,1.54,7.99,4.21,10.4,2.66,2.39,6.72,3.59,12.17,3.59Z"/>
    </clipPath>
    <clipPath id="ao">
      <path class="ci" d="M172.15,238.19l-6.84,6.95c1.34-3.35,2.72-6.76,4.12-10.25,1.4-3.47,2.74-6.9,4.02-10.24l6.84-6.95c-1.28,3.34-2.62,6.76-4.02,10.24-1.4,3.48-2.78,6.9-4.12,10.25Z"/>
    </clipPath>
    <clipPath id="ap">
      <path class="ci" d="M152.18,238.77l-6.84,6.95c-.19.09-.32.1-.58.1l6.84-6.95c.26,0,.39,0,.58-.1Z"/>
    </clipPath>
    <clipPath id="aq">
      <path class="ci" d="M55.34,238.32l6.84-6.95c.17-.18.39-.32.64-.43.84-.36,1.92-.54,3.24-.54l-6.84,6.95c-1.31,0-2.4.18-3.24.54-.25.11-.46.25-.64.43Z"/>
    </clipPath>
    <clipPath id="ar">
      <path class="ci" d="M38.37,228.47l6.84-6.95c-.76.77-1.37,1.66-1.85,2.68-.65,1.37-.95,2.99-.89,4.82l-6.84,6.95c-.06-1.83.24-3.45.89-4.82.48-1.02,1.09-1.91,1.85-2.68Z"/>
    </clipPath>
    <clipPath id="as">
      <path class="ci" d="M68.1,257.04l-6.84,6.95c-.32-.49-.67-.9-1.07-1.22-.4-.33-.84-.59-1.3-.79-.47-.2-.87-.36-1.2-.5l6.84-6.95c.33.13.74.29,1.2.5.46.19.9.46,1.3.79.41.33.76.74,1.07,1.22Z"/>
    </clipPath>
    <clipPath id="at">
      <path class="ci" d="M68.05,260.65l-6.84,6.95c.39-.39.57-.99.55-1.79-.02-.72-.19-1.33-.5-1.83l6.84-6.95c.31.5.48,1.11.5,1.83.02.79-.16,1.39-.55,1.79Z"/>
    </clipPath>
    <clipPath id="au">
      <path class="ci" d="M51.71,250.79l-6.84,6.95c-2.12-.73-3.78-1.6-4.95-2.61-1.18-1.01-2.07-2.1-2.66-3.24-.59-1.15-.96-2.3-1.09-3.45-.13-1.15-.22-2.25-.25-3.3l6.84-6.95c.03,1.05.12,2.14.25,3.3.13,1.15.5,2.3,1.09,3.45.59,1.14,1.48,2.23,2.66,3.24,1.17,1.02,2.83,1.89,4.95,2.61Z"/>
    </clipPath>
    <clipPath id="av">
      <path class="ci" d="M84.44,269.97l-6.84,6.95c-.46.47-.97.89-1.53,1.25-1.64,1.09-3.72,1.83-6.23,2.22-2.51.4-5.45.59-8.8.59l6.84-6.95c3.35,0,6.29-.19,8.8-.59,2.51-.39,4.59-1.13,6.23-2.22.56-.37,1.07-.79,1.53-1.25Z"/>
    </clipPath>
    <clipPath id="aw">
      <path class="ci" d="M69.29,39.06l6.84-6.95c.33-.34.7-.65,1.1-.93,1.25-.89,3.06-1.33,5.43-1.33l-6.84,6.95c-2.37,0-4.18.44-5.43,1.33-.4.28-.77.59-1.1.93Z"/>
    </clipPath>
    <clipPath id="ax">
      <path class="ci" d="M101.54,89.08l-6.84,6.95c.3-.31.54-.67.7-1.1.59-1.52.86-3.27.8-5.24l6.84-6.95c.06,1.97-.21,3.71-.8,5.24-.17.43-.4.79-.7,1.1Z"/>
    </clipPath>
    <clipPath id="ay">
      <path class="ci" d="M39.57,20.26l6.84-6.95c-.32.33-.64.67-.94,1.03-1.67,1.98-2.95,4.28-3.86,6.94-.9,2.66-1.3,5.52-1.21,8.57l-6.84,6.95c-.09-3.05.31-5.91,1.21-8.57.9-2.66,2.19-4.96,3.86-6.94.3-.36.61-.7.94-1.03Z"/>
    </clipPath>
    <clipPath id="az">
      <path class="ci" d="M119.72,105.25l-6.84,6.95c-.13.13-.26.26-.39.38-1.96,1.87-4.31,3.32-7.04,4.36-2.73,1.03-5.71,1.55-8.97,1.55l6.84-6.95c3.25,0,6.24-.52,8.97-1.55,2.72-1.04,5.07-2.49,7.04-4.36.13-.13.26-.25.39-.38Z"/>
    </clipPath>
    <clipPath id="ba">
      <path class="ci" d="M69.2,111.54l-6.84,6.95c-4.13,0-7.85-.69-11.14-2.07-3.29-1.37-6.1-3.3-8.45-5.76-2.34-2.46-4.15-5.39-5.44-8.78-1.29-3.4-1.99-7.12-2.11-11.16l6.84-6.95c.12,4.04.82,7.76,2.11,11.16,1.28,3.39,3.09,6.33,5.44,8.78,2.34,2.46,5.16,4.39,8.45,5.76,3.3,1.38,7.01,2.07,11.14,2.07Z"/>
    </clipPath>
    <clipPath id="bb">
      <path class="ci" d="M177.45,61.3l-4.28,4.34c3.66-18.46-1.59-19.89-1.87-19.97l4.28-4.34c.28.08,5.53,1.51,1.87,19.97Z"/>
    </clipPath>
    <clipPath id="bc">
      <path class="ci" d="M178.03,74.14l-4.28,4.34c2.78-2.82,3.25-6.64-.1-10.88-.43-.55-.6-1.28-.48-1.95l4.28-4.34c-.12.67.04,1.4.48,1.95,3.35,4.24,2.88,8.06.1,10.88Z"/>
    </clipPath>
    <clipPath id="bd">
      <path class="ci" d="M134.18,62.85l4.28-4.34c10.74-10.9,28.03-17.91,34.66-17.91,1.22,0,2.08.24,2.47.73l-4.28,4.34c-.39-.5-1.25-.73-2.47-.73-6.63,0-23.92,7.01-34.66,17.91Z"/>
    </clipPath>
    <clipPath id="be">
      <path class="ci" d="M175.73,95.73l-4.28,4.34c-3.2,3.25-7.55,6-13.34,7.78-.38.12-.71.32-.98.59l4.28-4.34c.26-.27.6-.47.98-.59,5.79-1.79,10.14-4.53,13.34-7.78Z"/>
    </clipPath>
    <clipPath id="bf">
      <path class="ci" d="M145.83,95.37l-4.28,4.34c4-4.06,6.88-13.15,5.17-18.32l4.28-4.34c1.72,5.17-1.17,14.27-5.17,18.32Z"/>
    </clipPath>
    <clipPath id="bg">
      <path class="ci" d="M121.07,76.17l-4.28,4.34c.47-.47.7-1.14.64-1.84-.43-4.78,2.31-9.66,6.78-14.2l4.28-4.34c-4.47,4.54-7.22,9.42-6.78,14.2.06.7-.17,1.36-.64,1.84Z"/>
    </clipPath>
    <clipPath id="bh">
      <path class="ci" d="M155.5,107.9l-4.28,4.34c1.04-1.06.3-3.05-1.37-3.1-13.21-.35-20.9-8.57-28.02-19.66-.39-.6-1-.88-1.59-.88-.48,0-.94.18-1.27.52l4.28-4.34c.33-.34.8-.52,1.27-.52.59,0,1.2.28,1.59.88,7.12,11.09,14.81,19.31,28.02,19.66,1.67.05,2.41,2.04,1.37,3.1Z"/>
    </clipPath>
    <clipPath id="bi">
      <path class="ci" d="M158.9,109.22l-4.28,4.34c-2.09,2.12-5.52,2.82-9.14,2.82-5.35,0-11.1-1.52-13.48-2.23-.22-.06-.43-.09-.65-.09-.47,0-.93.14-1.33.39-1.19.78-2.54,1.13-3.84,1.13-3.47,0-6.64-2.48-5.67-6.14.24-.9-.08-1.88-.83-2.49-8.18-6.8-9.42-20.12-4.45-25.17l4.28-4.34c-4.97,5.05-3.73,18.37,4.45,25.17.75.61,1.07,1.59.83,2.49-.97,3.66,2.2,6.14,5.67,6.14,1.31,0,2.66-.35,3.84-1.13.4-.25.86-.39,1.33-.39.22,0,.44.03.65.09,2.38.71,8.13,2.23,13.48,2.23,3.62,0,7.06-.7,9.14-2.82Z"/>
    </clipPath>
  </defs>
  <g>
    <g class="cq">
      <polygon class="bw" points="573.35 61.02 566.51 67.97 550.71 67.97 557.55 61.02 573.35 61.02"/>
      <g class="cq">
        <g class="dg">
          <g class="cq">
            <path class="cu" d="M557.55,61.02l-6.84,6.95c-.19,0-.59.03-1.18.07-.59.05-.99.07-1.19.07l6.84-6.95c.19,0,.59-.02,1.19-.07.58-.04.98-.07,1.18-.07"/>
          </g>
        </g>
      </g>
      <polygon class="bw" points="555.18 61.16 548.34 68.11 545.21 52.75 552.05 45.8 555.18 61.16"/>
      <polygon class="bw" points="552.05 45.8 545.21 52.75 528.37 52.75 535.21 45.8 552.05 45.8"/>
      <g class="cq">
        <g class="bv">
          <g class="cq">
            <path class="cu" d="M555.79,85.69l-6.84,6.95c.35-1.28.72-2.73,1.12-4.36.39-1.62.72-3.12.97-4.5l6.84-6.95c-.25,1.38-.58,2.88-.97,4.5-.39,1.63-.77,3.08-1.12,4.36"/>
          </g>
        </g>
      </g>
      <polygon class="bw" points="554.37 92.63 547.53 99.57 548.95 92.63 555.79 85.69 554.37 92.63"/>
      <polygon class="bw" points="550.36 77.42 543.52 84.37 529.34 84.37 536.18 77.42 550.36 77.42"/>
      <polygon class="bw" points="497.7 45.8 490.86 52.75 490.28 33.99 497.12 27.04 497.7 45.8"/>
      <polygon class="bw" points="506.85 45.8 500.01 52.75 490.86 52.75 497.7 45.8 506.85 45.8"/>
      <polygon class="bw" points="508.29 92.63 501.45 99.57 500.01 52.75 506.85 45.8 508.29 92.63"/>
      <polygon class="bw" points="573.43 111.54 566.58 118.49 492.87 118.49 499.71 111.54 573.43 111.54"/>
      <path class="dk" d="M570.69,27.04c.46,5.52.85,10.15,1.16,13.89.31,3.75.56,6.9.73,9.46.18,2.56.34,4.65.49,6.28.15,1.62.24,3.08.28,4.36h-15.8c-.19,0-.59.03-1.18.07-.59.05-.99.07-1.19.07l-3.13-15.36h-16.84s.41,13.45.41,13.45h14.18s.56,18.17.56,18.17h-14.18s.47,15.21.47,15.21h17.73s1.42-6.94,1.42-6.94c.35-1.28.72-2.73,1.12-4.36.39-1.62.72-3.12.97-4.5h16.26s-.71,34.72-.71,34.72h-73.72s-.58-18.91-.58-18.91h9.16s-1.43-46.82-1.43-46.82h-9.16s-.57-18.76-.57-18.76h73.57Z"/>
      <polygon class="bw" points="499.71 111.54 492.87 118.49 492.29 99.57 499.13 92.63 499.71 111.54"/>
    </g>
    <g class="cq">
      <polygon class="bw" points="487.13 57.48 480.29 64.42 461.23 64.42 468.07 57.48 487.13 57.48"/>
      <polygon class="bw" points="468.07 57.48 461.23 64.42 458.67 53.34 465.51 46.4 468.07 57.48"/>
      <polygon class="bw" points="465.51 46.4 458.67 53.34 442.72 53.34 449.56 46.4 465.51 46.4"/>
      <g class="cq">
        <g class="da">
          <g class="cq">
            <path class="cu" d="M449.56,46.4l-6.84,6.95c-1.68,0-2.97.36-3.88,1.11-.19.16-.38.32-.55.5l6.84-6.95c.17-.18.36-.34.55-.5.92-.74,2.21-1.11,3.88-1.11"/>
          </g>
        </g>
      </g>
      <polygon class="bw" points="463.23 92.63 456.39 99.57 456.09 89.53 462.93 82.59 463.23 92.63"/>
      <polygon class="bw" points="452 82.59 445.16 89.53 444.63 72.25 451.47 65.3 452 82.59"/>
      <polygon class="bw" points="462.93 82.59 456.09 89.53 445.16 89.53 452 82.59 462.93 82.59"/>
      <g class="cq">
        <g class="cm">
          <g class="cq">
            <path class="cu" d="M412.44,45.21l-6.84,6.95c-.07-2.36.28-4.65,1.05-6.87s1.94-4.16,3.52-5.83c.09-.09.17-.18.26-.27l6.84-6.95c-.09.09-.17.18-.26.27-1.58,1.68-2.75,3.62-3.52,5.83s-1.12,4.51-1.05,6.87"/>
          </g>
        </g>
      </g>
      <polygon class="bw" points="491 111.54 484.16 118.49 431.27 118.49 438.11 111.54 491 111.54"/>
      <polygon class="bw" points="413.83 90.56 406.99 97.51 405.6 52.16 412.44 45.21 413.83 90.56"/>
      <path class="dk" d="M485.16,27.04l1.97,30.44h-19.06s-2.56-11.08-2.56-11.08h-15.95c-1.68,0-2.97.36-3.88,1.11-.92.74-1.6,1.69-2.06,2.88-.45,1.18-.71,2.46-.77,3.84-.06,1.38-.06,2.66-.02,3.84l.91,29.69c.23,1.09.55,2.17.99,3.25.42,1.09,1.38,1.62,2.85,1.62h15.66s-.31-10.04-.31-10.04h-10.93s-.53-17.28-.53-17.28h38.11s1.42,46.24,1.42,46.24h-52.89c-8.37,0-14.46-1.75-18.26-5.25-3.79-3.49-5.81-8.74-6.02-15.73l-1.39-45.35c-.07-2.36.28-4.65,1.05-6.87s1.94-4.16,3.52-5.83c1.57-1.68,3.52-3,5.86-3.99,2.33-.98,5.02-1.48,8.07-1.48h54.22Z"/>
      <g class="cq">
        <g class="bn">
          <g class="cq">
            <path class="cu" d="M438.11,111.54l-6.84,6.95c-8.37,0-14.46-1.75-18.26-5.25-3.79-3.49-5.81-8.74-6.02-15.73l6.84-6.95c.21,6.99,2.23,12.24,6.02,15.73,3.8,3.5,9.89,5.25,18.26,5.25"/>
          </g>
        </g>
      </g>
    </g>
    <g class="cq">
      <polygon class="bw" points="403.77 61.02 396.93 67.97 381.12 67.97 387.97 61.02 403.77 61.02"/>
      <g class="cq">
        <g class="bx">
          <g class="cq">
            <path class="cu" d="M387.97,61.02l-6.84,6.95c-.2,0-.59.03-1.18.07-.59.05-.99.07-1.19.07l6.84-6.95c.2,0,.59-.02,1.19-.07.58-.04.97-.07,1.18-.07"/>
          </g>
        </g>
      </g>
      <polygon class="bw" points="385.6 61.16 378.76 68.11 375.63 52.75 382.47 45.8 385.6 61.16"/>
      <polygon class="bw" points="382.47 45.8 375.63 52.75 358.79 52.75 365.63 45.8 382.47 45.8"/>
      <g class="cq">
        <g class="bq">
          <g class="cq">
            <path class="cu" d="M386.21,85.69l-6.84,6.95c.35-1.28.72-2.73,1.12-4.36.39-1.62.72-3.12.97-4.5l6.84-6.95c-.25,1.38-.58,2.88-.97,4.5-.39,1.63-.77,3.08-1.12,4.36"/>
          </g>
        </g>
      </g>
      <polygon class="bw" points="384.79 92.63 377.95 99.57 379.37 92.63 386.21 85.69 384.79 92.63"/>
      <polygon class="bw" points="380.78 77.42 373.94 84.37 359.76 84.37 366.6 77.42 380.78 77.42"/>
      <polygon class="bw" points="328.12 45.8 321.28 52.75 320.7 33.99 327.54 27.04 328.12 45.8"/>
      <polygon class="bw" points="337.27 45.8 330.43 52.75 321.28 52.75 328.12 45.8 337.27 45.8"/>
      <polygon class="bw" points="338.7 92.63 331.86 99.57 330.43 52.75 337.27 45.8 338.7 92.63"/>
      <polygon class="bw" points="403.84 111.54 397 118.49 323.29 118.49 330.13 111.54 403.84 111.54"/>
      <path class="dk" d="M401.11,27.04c.46,5.52.85,10.15,1.16,13.89.31,3.75.56,6.9.73,9.46.18,2.56.34,4.65.49,6.28.15,1.62.24,3.08.28,4.36h-15.8c-.2,0-.59.03-1.18.07-.59.05-.99.07-1.19.07l-3.13-15.36h-16.84s.41,13.45.41,13.45h14.18s.56,18.17.56,18.17h-14.18s.47,15.21.47,15.21h17.73s1.42-6.94,1.42-6.94c.35-1.28.72-2.73,1.12-4.36.39-1.62.72-3.12.97-4.5h16.26s-.71,34.72-.71,34.72h-73.72s-.58-18.91-.58-18.91h9.16s-1.43-46.82-1.43-46.82h-9.16s-.57-18.76-.57-18.76h73.57Z"/>
      <polygon class="bw" points="330.13 111.54 323.29 118.49 322.71 99.57 329.55 92.63 330.13 111.54"/>
    </g>
    <g class="cq">
      <polygon class="bw" points="296.06 45.95 289.22 52.9 278.89 52.9 285.73 45.95 296.06 45.95"/>
      <g class="cq">
        <g class="de">
          <g class="cq">
            <path class="cu" d="M301.03,92.49l-6.84,6.95c.41-2.66.87-5.5,1.37-8.5.49-3,.95-5.78,1.37-8.34l6.84-6.95c-.42,2.56-.87,5.34-1.37,8.34-.5,3-.96,5.84-1.37,8.5"/>
          </g>
        </g>
      </g>
      <polygon class="bw" points="257.21 45.95 250.37 52.9 241.8 52.9 248.64 45.95 257.21 45.95"/>
      <polygon class="bw" points="248.64 45.95 241.8 52.9 241.21 33.4 248.05 26.46 248.64 45.95"/>
      <polygon class="bw" points="258.64 92.49 251.8 99.43 250.37 52.9 257.21 45.95 258.64 92.49"/>
      <polygon class="bw" points="250.65 111.54 243.81 118.49 243.23 99.43 250.07 92.49 250.65 111.54"/>
      <polygon class="bw" points="321.11 111.54 314.27 118.49 243.81 118.49 250.65 111.54 321.11 111.54"/>
      <path class="dk" d="M295.46,26.46l.6,19.5h-10.33s1.42,46.53,1.42,46.53h13.88c.41-2.66.87-5.5,1.37-8.5.49-3,.95-5.78,1.37-8.34h17.88s-.53,35.9-.53,35.9h-70.46s-.58-19.06-.58-19.06h8.57s-1.42-46.53-1.42-46.53h-8.57s-.6-19.5-.6-19.5h47.42Z"/>
    </g>
    <g class="cq">
      <polygon class="bw" points="216.59 45.95 209.75 52.9 199.41 52.9 206.25 45.95 216.59 45.95"/>
      <g class="cq">
        <g class="bu">
          <g class="cq">
            <path class="cu" d="M221.56,92.49l-6.84,6.95c.41-2.66.86-5.5,1.36-8.5.5-3,.96-5.78,1.37-8.34l6.84-6.95c-.41,2.56-.86,5.34-1.37,8.34-.5,3-.96,5.84-1.36,8.5"/>
          </g>
        </g>
      </g>
      <polygon class="bw" points="177.74 45.95 170.9 52.9 162.33 52.9 169.18 45.95 177.74 45.95"/>
      <polygon class="bw" points="169.18 45.95 162.33 52.9 161.74 33.4 168.58 26.46 169.18 45.95"/>
      <polygon class="bw" points="179.16 92.49 172.32 99.43 170.9 52.9 177.74 45.95 179.16 92.49"/>
      <polygon class="bw" points="171.18 111.54 164.34 118.49 163.76 99.43 170.6 92.49 171.18 111.54"/>
      <polygon class="bw" points="241.65 111.54 234.81 118.49 164.34 118.49 171.18 111.54 241.65 111.54"/>
      <path class="dk" d="M216,26.46l.6,19.5h-10.34s1.42,46.53,1.42,46.53h13.89c.41-2.66.86-5.5,1.36-8.5.5-3,.96-5.78,1.37-8.34h17.88s-.52,35.9-.52,35.9h-70.46s-.58-19.06-.58-19.06h8.56s-1.42-46.53-1.42-46.53h-8.56s-.6-19.5-.6-19.5h47.42Z"/>
    </g>
    <g class="cq">
      <polygon class="bw" points="401.24 143.88 394.4 150.83 387.1 150.83 393.94 143.88 401.24 143.88"/>
      <polygon class="bw" points="364.44 143.88 357.6 150.83 357.06 133.32 363.9 126.37 364.44 143.88"/>
      <polygon class="bw" points="368.43 143.88 361.59 150.83 357.6 150.83 364.44 143.88 368.43 143.88"/>
      <g class="cq">
        <g class="ct">
          <g class="cq">
            <path class="cu" d="M393.94,143.88l-6.84,6.95c-3.13,2.85-6.19,5.54-9.2,8.07-3,2.53-6.11,5.26-9.33,8.2l6.84-6.95c3.22-2.94,6.33-5.67,9.33-8.2,3.01-2.53,6.07-5.22,9.2-8.07"/>
          </g>
        </g>
      </g>
      <polygon class="bw" points="357.27 143.88 350.42 150.83 343.67 150.83 350.51 143.88 357.27 143.88"/>
      <polygon class="bw" points="353.59 172.28 346.75 179.23 344.46 176.75 351.31 169.8 353.59 172.28"/>
      <g class="cq">
        <g class="cp">
          <g class="cq">
            <path class="cu" d="M367.01,187.31l-6.84,6.95c-2-2.3-4.29-4.9-6.86-7.79-2.57-2.9-4.75-5.31-6.56-7.24l6.84-6.95c1.81,1.93,3.99,4.34,6.56,7.24,2.57,2.89,4.86,5.5,6.86,7.79"/>
          </g>
        </g>
      </g>
      <polygon class="bw" points="315.35 143.88 308.51 150.83 307.97 133.32 314.81 126.37 315.35 143.88"/>
      <polygon class="bw" points="323.21 143.88 316.37 150.83 308.51 150.83 315.35 143.88 323.21 143.88"/>
      <polygon class="bw" points="406.57 205.09 399.73 212.04 357.4 212.04 364.24 205.09 406.57 205.09"/>
      <polygon class="bw" points="364.24 205.09 357.4 212.04 356.86 194.26 363.7 187.31 364.24 205.09"/>
      <polygon class="bw" points="324.54 187.31 317.7 194.26 316.37 150.83 323.21 143.88 324.54 187.31"/>
      <polygon class="bw" points="317.23 205.09 310.38 212.04 309.84 194.26 316.68 187.31 317.23 205.09"/>
      <polygon class="bw" points="357.62 205.09 350.78 212.04 310.38 212.04 317.23 205.09 357.62 205.09"/>
      <path class="dk" d="M400.71,126.37l.54,17.51h-7.3c-3.13,2.85-6.19,5.54-9.2,8.07-3,2.53-6.11,5.26-9.33,8.2l23.72,27.3c1.01,0,2.16-.02,3.45-.07,1.28-.04,2.44-.06,3.45-.06l.54,17.78h-42.32s-.54-17.78-.54-17.78h3.31c-2-2.3-4.29-4.9-6.86-7.79-2.57-2.9-4.75-5.31-6.56-7.24l-2.28-2.48.54,17.51h5.24s.54,17.78.54,17.78h-40.4s-.54-17.78-.54-17.78h7.86s-1.33-43.43-1.33-43.43h-7.86s-.54-17.51-.54-17.51h41.91s.54,17.51.54,17.51h-6.75s.48,15.57.48,15.57c3.03-2.85,5.88-5.42,8.52-7.72,2.63-2.3,5.61-4.91,8.92-7.85h-4s-.54-17.51-.54-17.51h36.81Z"/>
    </g>
    <g class="cq">
      <polygon class="bw" points="306.94 144.02 300.1 150.96 292.25 150.96 299.09 144.02 306.94 144.02"/>
      <polygon class="bw" points="274 144.02 267.16 150.96 266.62 133.32 273.46 126.37 274 144.02"/>
      <polygon class="bw" points="282.13 144.02 275.29 150.96 267.16 150.96 274 144.02 282.13 144.02"/>
      <polygon class="bw" points="282.88 168.7 276.04 175.65 275.29 150.96 282.13 144.02 282.88 168.7"/>
      <polygon class="bw" points="221.19 144.02 214.35 150.96 213.81 133.32 220.65 126.37 221.19 144.02"/>
      <polygon class="bw" points="228.36 144.02 221.52 150.96 214.35 150.96 221.19 144.02 228.36 144.02"/>
      <polygon class="bw" points="300.96 205.09 294.12 212.04 269.3 212.04 276.14 205.09 300.96 205.09"/>
      <polygon class="bw" points="276.14 205.09 269.3 212.04 240.57 169.72 247.41 162.77 276.14 205.09"/>
      <polygon class="bw" points="229.69 187.31 222.85 194.26 221.52 150.96 228.36 144.02 229.69 187.31"/>
      <polygon class="bw" points="257.26 205.09 250.42 212.04 216.08 212.04 222.92 205.09 257.26 205.09"/>
      <polygon class="dk" points="306.4 126.37 306.94 144.02 299.09 144.02 300.96 205.09 276.14 205.09 247.41 162.77 248.16 187.31 256.71 187.31 257.26 205.09 222.92 205.09 222.38 187.31 229.69 187.31 228.36 144.02 221.19 144.02 220.65 126.37 255.4 126.37 282.88 168.7 282.13 144.02 274 144.02 273.46 126.37 306.4 126.37"/>
      <polygon class="bw" points="222.92 205.09 216.08 212.04 215.54 194.26 222.38 187.31 222.92 205.09"/>
    </g>
    <g class="cq">
      <g class="cq">
        <g class="cl">
          <g class="cq">
            <path class="cu" d="M170.98,165.66l-6.84,6.95c-.59-1.46-1.14-2.8-1.64-4-.5-1.19-1.01-2.38-1.55-3.58-.54-1.2-1.07-2.44-1.57-3.72-.5-1.29-1.05-2.71-1.65-4.27l6.84-6.95c.6,1.56,1.15,2.99,1.65,4.27.5,1.29,1.03,2.53,1.57,3.72.54,1.2,1.06,2.39,1.55,3.58.5,1.2,1.04,2.53,1.64,4"/>
          </g>
        </g>
      </g>
      <polygon class="bw" points="179.51 187.45 172.67 194.39 169.53 186.67 176.37 179.73 179.51 187.45"/>
      <g class="cq">
        <g class="br">
          <g class="cq">
            <path class="cu" d="M176.37,179.73l-6.84,6.95c-3.86,0-7.51.04-10.96.14-3.44.09-7.1.13-10.95.13l6.84-6.95c3.86,0,7.51-.04,10.95-.13,3.44-.1,7.1-.14,10.96-.14"/>
          </g>
        </g>
      </g>
      <polygon class="bw" points="214.93 205.09 208.08 212.04 165.49 212.04 172.33 205.09 214.93 205.09"/>
      <polygon class="bw" points="172.33 205.09 165.49 212.04 164.95 194.39 171.79 187.45 172.33 205.09"/>
      <polygon class="bw" points="133.73 187.45 126.89 194.39 148.58 132.77 155.42 125.82 133.73 187.45"/>
      <polygon class="bw" points="126.55 205.09 119.71 212.04 119.17 194.39 126.01 187.45 126.55 205.09"/>
      <path class="dk" d="M207.5,187.59h6.89s.54,17.51.54,17.51h-42.6s-.54-17.65-.54-17.65h7.72s-3.13-7.72-3.13-7.72c-3.86,0-7.51.04-10.96.14-3.44.09-7.1.13-10.95.13-.43.92-.84,1.84-1.23,2.76-.39.92-.71,1.8-.96,2.62.02.65-.15,1.33-.49,2.07h7.45s.54,17.65.54,17.65h-33.23s-.54-17.65-.54-17.65h7.72s21.69-61.63,21.69-61.63h27.17s24.92,61.77,24.92,61.77ZM159.95,165.66h11.03c-.59-1.46-1.14-2.8-1.64-4-.5-1.19-1.01-2.38-1.55-3.58-.54-1.2-1.07-2.44-1.57-3.72-.5-1.29-1.05-2.71-1.65-4.27l-4.62,15.57"/>
      <polygon class="bw" points="159.78 205.09 152.94 212.04 119.71 212.04 126.55 205.09 159.78 205.09"/>
    </g>
    <g class="cq">
      <g class="cq">
        <g class="cw">
          <g class="cq">
            <path class="cu" d="M113.79,161.16l-6.84,6.95c-1.15,1.16-2.55,2.25-4.2,3.26l6.84-6.95c1.66-1.01,3.06-2.1,4.2-3.26"/>
          </g>
        </g>
      </g>
      <g class="cq">
        <g class="cx">
          <g class="cq">
            <path class="cu" d="M91.54,146.77l-6.84,6.95c-.04-1.37-.5-2.21-1.39-2.48-.88-.27-2.05-.41-3.52-.41l6.84-6.95c1.47,0,2.65.13,3.52.41.89.27,1.35,1.11,1.39,2.48"/>
          </g>
        </g>
      </g>
      <polygon class="bw" points="91.8 155.46 84.96 162.41 84.7 153.72 91.54 146.77 91.8 155.46"/>
      <g class="cq">
        <g class="bm">
          <g class="cq">
            <path class="cu" d="M91.27,156.99l-6.84,6.95c.37-.38.55-.89.53-1.53l6.84-6.95c.02.64-.16,1.15-.53,1.53"/>
          </g>
        </g>
      </g>
      <polygon class="bw" points="86.63 143.88 79.78 150.83 69.02 150.83 75.87 143.88 86.63 143.88"/>
      <g class="cq">
        <g class="dq">
          <g class="cq">
            <path class="cu" d="M93.8,175.73l-6.84,6.95c-.01-.46-.29-.92-.8-1.38-.52-.45-1-.68-1.47-.68l6.84-6.95c.46,0,.95.23,1.47.68.52.46.79.92.8,1.38"/>
          </g>
        </g>
      </g>
      <polygon class="bw" points="94.07 184.27 87.23 191.22 86.96 182.68 93.8 175.73 94.07 184.27"/>
      <g class="cq">
        <g class="cr">
          <g class="cq">
            <path class="cu" d="M93.33,186.36l-6.84,6.95c.52-.53.77-1.22.74-2.09l6.84-6.95c.03.87-.22,1.56-.74,2.09"/>
          </g>
        </g>
      </g>
      <polygon class="bw" points="91.53 173.67 84.69 180.61 69.94 180.61 76.78 173.67 91.53 173.67"/>
      <polygon class="bw" points="40.73 144.43 33.89 151.38 33.34 133.46 40.18 126.51 40.73 144.43"/>
      <polygon class="bw" points="48.73 144.43 41.88 151.38 33.89 151.38 40.73 144.43 48.73 144.43"/>
      <g class="cq">
        <g class="dj">
          <g class="cq">
            <path class="cu" d="M116.7,200.22l-6.84,6.95c-.8.81-1.68,1.49-2.64,2.05-1.99,1.15-4.2,1.91-6.61,2.28-2.43.37-4.79.55-7.08.55l6.84-6.95c2.3,0,4.66-.18,7.08-.55,2.42-.36,4.63-1.13,6.61-2.28.97-.56,1.85-1.24,2.64-2.05"/>
          </g>
        </g>
      </g>
      <polygon class="bw" points="50.04 187.45 43.2 194.39 41.88 151.38 48.73 144.43 50.04 187.45"/>
      <polygon class="bw" points="100.36 205.09 93.52 212.04 35.75 212.04 42.59 205.09 100.36 205.09"/>
      <path class="dk" d="M117.34,170c1.91,2.16,2.9,4.63,2.98,7.38l.34,11.03c.11,3.68-.46,6.62-1.72,8.83-1.27,2.21-2.89,3.88-4.88,5.03-1.99,1.15-4.2,1.91-6.61,2.28-2.43.37-4.79.55-7.08.55h-57.77s-.54-17.65-.54-17.65h7.99s-1.32-43.01-1.32-43.01h-7.99s-.55-17.92-.55-17.92h56.94c.65,0,1.31-.03,2-.07.69-.04,1.4-.07,2.13-.07,1.93,0,3.86.26,5.81.76s3.69,1.26,5.25,2.27c1.55,1.02,2.83,2.35,3.84,4,1.01,1.66,1.56,3.63,1.63,5.93l.35,11.44c.07,2.21-.55,4.56-1.85,7.04-1.31,2.48-3.53,4.69-6.69,6.61,3.27,1.57,5.85,3.43,7.75,5.58ZM94.07,184.27l-.26-8.54c-.01-.46-.29-.92-.8-1.38-.52-.45-1-.68-1.47-.68h-14.76s.42,13.78.42,13.78h13.1c1.11,0,2.01-.27,2.73-.82.72-.55,1.07-1.33,1.04-2.35M75.87,143.88l.43,13.92h12.13c2.3,0,3.42-.78,3.38-2.35l-.27-8.69c-.04-1.37-.5-2.21-1.39-2.48-.88-.27-2.05-.41-3.52-.41h-10.76"/>
      <polygon class="bw" points="42.59 205.09 35.75 212.04 35.21 194.39 42.05 187.45 42.59 205.09"/>
    </g>
    <g class="cq">
      <g class="cq">
        <g class="bp">
          <g class="cq">
            <path class="cu" d="M561.8,233.55l-6.84,6.95c-.02-.52-.12-1.16-.31-1.91-.19-.75-.81-1.13-1.86-1.13l6.84-6.95c1.05,0,1.67.38,1.86,1.13.18.75.29,1.39.31,1.91"/>
          </g>
        </g>
      </g>
      <g class="cq">
        <g class="do">
          <g class="cq">
            <path class="cu" d="M579.59,243.64l-6.84,6.95c-1.2,1.22-2.7,2.32-4.49,3.32l6.84-6.95c1.78-1,3.28-2.1,4.49-3.32"/>
          </g>
        </g>
      </g>
      <polygon class="bw" points="561.97 238.98 555.13 245.92 554.96 240.5 561.8 233.55 561.97 238.98"/>
      <g class="cq">
        <g class="db">
          <g class="cq">
            <path class="cu" d="M561.41,240.46l-6.84,6.95s0,0,.01-.01c.38-.39.57-.89.55-1.47l6.84-6.95c.02.58-.17,1.08-.55,1.47,0,0,0,0-.01.01"/>
          </g>
        </g>
      </g>
      <polygon class="bw" points="559.63 230.51 552.79 237.45 544.12 237.45 550.97 230.51 559.63 230.51"/>
      <g class="cq">
        <g class="by">
          <g class="cq">
            <path class="cu" d="M562.09,256.11l-6.84,6.95c-.04-1.18-.33-2.18-.88-3s-1.48-1.23-2.79-1.23l6.84-6.95c1.31,0,2.25.41,2.79,1.23s.84,1.83.88,3"/>
          </g>
        </g>
      </g>
      <polygon class="bw" points="558.42 251.87 551.58 258.82 544.68 258.82 551.52 251.87 558.42 251.87"/>
      <polygon class="bw" points="588.15 274.03 581.31 280.98 563.88 280.98 570.72 274.03 588.15 274.03"/>
      <polygon class="bw" points="562.41 266.45 555.57 273.4 555.25 263.06 562.09 256.11 562.41 266.45"/>
      <polygon class="bw" points="525.37 230.41 518.52 237.35 518.14 224.85 524.98 217.9 525.37 230.41"/>
      <polygon class="bw" points="531.07 230.41 524.23 237.35 518.52 237.35 525.37 230.41 531.07 230.41"/>
      <g class="cq">
        <g class="dl">
          <g class="cq">
            <path class="cu" d="M570.72,274.03l-6.84,6.95c-1.58,0-2.9-.23-3.96-.69-1.07-.45-1.9-1.06-2.52-1.82-.62-.75-1.07-1.58-1.35-2.46-.29-.89-.45-1.75-.48-2.61l6.84-6.95c.03.85.19,1.72.48,2.61.28.89.73,1.71,1.35,2.46.62.75,1.45,1.36,2.52,1.82,1.06.46,2.38.69,3.96.69"/>
          </g>
        </g>
      </g>
      <polygon class="bw" points="532.02 261.33 525.18 268.28 524.23 237.35 531.07 230.41 532.02 261.33"/>
      <polygon class="bw" points="558.11 274.03 551.27 280.98 519.86 280.98 526.7 274.03 558.11 274.03"/>
      <path class="dk" d="M584.7,261.33h3.06s.39,12.7.39,12.7h-17.43c-1.58,0-2.9-.23-3.96-.69-1.07-.45-1.9-1.06-2.52-1.82-.62-.75-1.07-1.58-1.35-2.46-.29-.89-.45-1.75-.48-2.61l-.32-10.34c-.04-1.18-.33-2.18-.88-3s-1.48-1.23-2.79-1.23h-6.9s.29,9.46.29,9.46h5.91s.39,12.7.39,12.7h-31.41s-.39-12.7-.39-12.7h5.71s-.95-30.92-.95-30.92h-5.71s-.38-12.51-.38-12.51h42.05c1.18,0,2.59.06,4.24.19,1.64.13,3.24.59,4.77,1.38,1.53.78,2.87,1.99,4,3.59,1.13,1.61,1.74,3.89,1.83,6.84l.24,7.88c.06,1.91-.56,3.62-1.86,5.12-1.3,1.52-3.02,2.85-5.15,4.04.67.45,1.39.97,2.16,1.52.77.56,1.46,1.2,2.08,1.91.61.73,1.13,1.53,1.55,2.42.43.89.65,1.85.68,2.9l.1,3.16c.25,1.64,1.25,2.46,3.03,2.46ZM561.97,238.98l-.17-5.42c-.02-.52-.12-1.16-.31-1.91-.19-.75-.81-1.13-1.86-1.13h-8.67s.32,10.54.32,10.54h8.67c.59,0,1.08-.19,1.46-.59.38-.39.57-.89.55-1.47"/>
      <polygon class="bw" points="526.7 274.03 519.86 280.98 519.47 268.28 526.31 261.33 526.7 274.03"/>
    </g>
    <g class="cq">
      <g class="cq">
        <g class="cb">
          <g class="cq">
            <path class="cu" d="M498.07,233.16l-6.84,6.95c-.06-1.91-.91-2.85-2.55-2.85l6.84-6.95c1.64,0,2.49.95,2.55,2.85"/>
          </g>
        </g>
      </g>
      <polygon class="bw" points="495.52 230.31 488.68 237.26 479.22 237.26 486.06 230.31 495.52 230.31"/>
      <g class="cq">
        <g class="cc">
          <g class="cq">
            <path class="cu" d="M486.06,230.31l-6.84,6.95c-.91,0-1.61.25-2.11.76l6.84-6.95c.5-.51,1.21-.76,2.11-.76"/>
          </g>
        </g>
      </g>
      <polygon class="bw" points="498.82 254.34 491.98 261.28 491.23 240.11 498.07 233.16 498.82 254.34"/>
      <polygon class="bw" points="498.87 256.01 492.03 262.96 491.98 261.28 498.82 254.34 498.87 256.01"/>
      <g class="cq">
        <g class="df">
          <g class="cq">
            <path class="cu" d="M498.01,260.66l-6.84,6.95c.26-.26.43-.59.53-1,.26-1.12.37-2.33.33-3.64l6.84-6.95c.04,1.31-.07,2.53-.33,3.64-.1.41-.27.74-.53,1"/>
          </g>
        </g>
      </g>
      <g class="cq">
        <g class="bo">
          <g class="cq">
            <path class="cu" d="M463.09,229.62l-6.84,6.95c-.05-1.51.17-3,.65-4.48.48-1.47,1.24-2.78,2.29-3.94.08-.09.16-.17.24-.25l6.84-6.95c-.08.08-.16.17-.24.25-1.05,1.15-1.81,2.46-2.29,3.94-.48,1.48-.7,2.98-.65,4.48"/>
          </g>
        </g>
      </g>
      <g class="cq">
        <g class="co">
          <g class="cq">
            <path class="cu" d="M515.03,269.81l-6.84,6.95c-1.23,1.25-2.81,2.26-4.72,3.04s-4.26,1.18-6.96,1.18l6.84-6.95c2.69,0,5.01-.39,6.96-1.18s3.49-1.79,4.72-3.04"/>
          </g>
        </g>
      </g>
      <polygon class="bw" points="503.36 274.03 496.51 280.98 474.65 280.98 481.49 274.03 503.36 274.03"/>
      <polygon class="bw" points="463.99 258.97 457.15 265.91 456.25 236.56 463.09 229.62 463.99 258.97"/>
      <path class="dk" d="M513.84,220.7c2.43,2.21,3.72,5.57,3.85,10.1l.9,29.45c.05,1.77-.2,3.47-.78,5.11-.57,1.65-1.47,3.1-2.72,4.39-1.24,1.28-2.84,2.31-4.78,3.1s-4.26,1.18-6.96,1.18h-21.87c-4.2,0-7.46-.6-9.8-1.82-2.34-1.21-4.07-2.66-5.21-4.33-1.13-1.68-1.82-3.35-2.07-5.03-.26-1.68-.39-2.97-.42-3.89l-.9-29.35c-.05-1.51.17-3,.65-4.48.48-1.47,1.24-2.78,2.29-3.94,1.06-1.14,2.37-2.07,3.96-2.76,1.58-.69,3.46-1.04,5.63-1.04h28.36c4.14,0,7.42,1.1,9.85,3.3ZM498.87,256.01l-.05-1.68-.75-21.17c-.06-1.91-.91-2.85-2.55-2.85h-9.46c-.92,0-1.63.26-2.14.79-.52.52-.75,1.21-.73,2.07l.78,25.61c.03.85.42,1.5,1.19,1.92.77.43,1.64.64,2.63.64h8.17c1.44,0,2.3-.56,2.56-1.68.26-1.12.37-2.33.33-3.64"/>
      <g class="cq">
        <g class="dn">
          <g class="cq">
            <path class="cu" d="M481.49,274.03l-6.84,6.95c-4.2,0-7.46-.6-9.8-1.82-2.34-1.21-4.07-2.66-5.21-4.33-1.13-1.68-1.82-3.35-2.07-5.03-.26-1.68-.39-2.97-.42-3.89l6.84-6.95c.03.92.17,2.22.42,3.89.25,1.68.94,3.35,2.07,5.03,1.14,1.68,2.87,3.12,5.21,4.33,2.33,1.21,5.6,1.82,9.8,1.82"/>
          </g>
        </g>
      </g>
    </g>
    <g class="cq">
      <polygon class="bw" points="443.62 230.31 436.78 237.26 430.78 237.26 437.62 230.31 443.62 230.31"/>
      <polygon class="bw" points="445.27 242.32 438.43 249.27 436.78 237.26 443.62 230.31 445.27 242.32"/>
      <polygon class="bw" points="456.6 242.32 449.76 249.27 438.43 249.27 445.27 242.32 456.6 242.32"/>
      <polygon class="bw" points="418.9 230.31 412.06 237.26 406.15 237.26 412.99 230.31 418.9 230.31"/>
      <polygon class="bw" points="419.85 261.33 413.01 268.28 412.06 237.26 418.9 230.31 419.85 261.33"/>
      <polygon class="bw" points="400.07 242.32 393.23 249.27 394.44 224.75 401.28 217.8 400.07 242.32"/>
      <polygon class="bw" points="412.18 242.32 405.34 249.27 393.23 249.27 400.07 242.32 412.18 242.32"/>
      <polygon class="bw" points="414.03 274.03 407.19 280.98 406.8 268.28 413.64 261.33 414.03 274.03"/>
      <polygon class="bw" points="445.45 274.03 438.61 280.98 407.19 280.98 414.03 274.03 445.45 274.03"/>
      <polygon class="dk" points="455.85 217.8 456.6 242.32 445.27 242.32 443.62 230.31 437.62 230.31 438.57 261.33 445.06 261.33 445.45 274.03 414.03 274.03 413.64 261.33 419.85 261.33 418.9 230.31 412.99 230.31 412.18 242.32 400.07 242.32 401.28 217.8 455.85 217.8"/>
      <g class="cq">
        <g class="bz">
          <g class="cq">
            <path class="cu" d="M370.83,245.87l-6.84,6.95c-.43-1.05-.81-2-1.17-2.85-.36-.85-.73-1.7-1.12-2.56-.39-.85-.76-1.74-1.12-2.66-.36-.91-.75-1.93-1.17-3.05l6.84-6.95c.42,1.12.82,2.14,1.17,3.05.36.92.73,1.81,1.12,2.66.38.86.75,1.71,1.12,2.56.35.85.74,1.81,1.17,2.85"/>
          </g>
        </g>
      </g>
      <polygon class="bw" points="376.92 261.43 370.08 268.38 367.84 262.86 374.68 255.92 376.92 261.43"/>
      <g class="cq">
        <g class="di">
          <g class="cq">
            <path class="cu" d="M374.68,255.92l-6.84,6.95c-2.76,0-5.37.04-7.83.1-2.45.06-5.07.1-7.82.1l6.84-6.95c2.76,0,5.37-.04,7.82-.1,2.46-.06,5.08-.1,7.83-.1"/>
          </g>
        </g>
      </g>
      <polygon class="bw" points="371.79 274.03 364.95 280.98 364.56 268.38 371.4 261.43 371.79 274.03"/>
      <polygon class="bw" points="402.22 274.03 395.38 280.98 364.95 280.98 371.79 274.03 402.22 274.03"/>
      <polygon class="bw" points="344.22 261.43 337.38 268.38 352.87 224.35 359.71 217.41 344.22 261.43"/>
      <polygon class="bw" points="339.09 274.03 332.25 280.98 331.87 268.38 338.71 261.43 339.09 274.03"/>
      <path class="dk" d="M396.91,261.53h4.92s.38,12.51.38,12.51h-30.43s-.39-12.6-.39-12.6h5.51s-2.23-5.51-2.23-5.51c-2.76,0-5.37.04-7.83.1-2.45.06-5.07.1-7.82.1-.31.66-.6,1.31-.88,1.97-.27.66-.5,1.29-.68,1.87.01.46-.1.96-.34,1.48h5.32s.39,12.6.39,12.6h-23.74s-.39-12.6-.39-12.6h5.51s15.49-44.02,15.49-44.02h19.4s17.8,44.12,17.8,44.12ZM362.95,245.87h7.88c-.43-1.05-.81-2-1.17-2.85-.36-.85-.73-1.7-1.12-2.56-.39-.85-.76-1.74-1.12-2.66-.36-.91-.75-1.93-1.17-3.05l-3.3,11.12"/>
      <polygon class="bw" points="362.83 274.03 355.99 280.98 332.25 280.98 339.09 274.03 362.83 274.03"/>
    </g>
    <g class="cq">
      <polygon class="bw" points="315.6 230.31 308.75 237.26 301.86 237.26 308.7 230.31 315.6 230.31"/>
      <g class="cq">
        <g class="cn">
          <g class="cq">
            <path class="cu" d="M318.91,261.33l-6.84,6.95c.27-1.77.57-3.66.91-5.66.33-2,.64-3.86.91-5.57l6.84-6.95c-.28,1.71-.58,3.56-.91,5.57-.34,2-.63,3.89-.91,5.66"/>
          </g>
        </g>
      </g>
      <polygon class="bw" points="289.7 230.31 282.86 237.26 277.14 237.26 283.98 230.31 289.7 230.31"/>
      <polygon class="bw" points="283.98 230.31 277.14 237.26 276.74 224.25 283.58 217.31 283.98 230.31"/>
      <polygon class="bw" points="290.65 261.33 283.81 268.28 282.86 237.26 289.7 230.31 290.65 261.33"/>
      <polygon class="bw" points="285.32 274.03 278.48 280.98 278.09 268.28 284.93 261.33 285.32 274.03"/>
      <polygon class="bw" points="332.29 274.03 325.45 280.98 278.48 280.98 285.32 274.03 332.29 274.03"/>
      <path class="dk" d="M315.2,217.31l.4,13h-6.9s.95,31.02.95,31.02h9.26c.27-1.77.57-3.66.91-5.66.33-2,.64-3.86.91-5.57h11.92s-.36,23.93-.36,23.93h-46.98s-.39-12.7-.39-12.7h5.72s-.95-31.02-.95-31.02h-5.72s-.4-13-.4-13h31.62Z"/>
    </g>
    <g class="cq">
      <polygon class="bw" points="276.9 230.7 270.06 237.65 264.16 237.65 271 230.7 276.9 230.7"/>
      <polygon class="bw" points="258 230.7 251.16 237.65 245.24 237.65 252.08 230.7 258 230.7"/>
      <polygon class="bw" points="252.08 230.7 245.24 237.65 244.85 224.75 251.69 217.8 252.08 230.7"/>
      <polygon class="bw" points="247.26 230.7 240.42 237.65 234.81 237.65 241.65 230.7 247.26 230.7"/>
      <polygon class="bw" points="258.81 257.29 251.97 264.24 251.16 237.65 258 230.7 258.81 257.29"/>
      <g class="cq">
        <g class="ce">
          <g class="cq">
            <path class="cu" d="M257.87,260.58l-6.84,6.95c.23-.23.42-.51.57-.83.27-.59.4-1.41.37-2.46l6.84-6.95c.03,1.05-.09,1.87-.37,2.46-.15.32-.34.6-.57.83"/>
          </g>
        </g>
      </g>
      <polygon class="bw" points="222.35 230.7 215.51 237.65 209.79 237.65 216.63 230.7 222.35 230.7"/>
      <polygon class="bw" points="216.63 230.7 209.79 237.65 209.4 224.75 216.24 217.8 216.63 230.7"/>
      <g class="cq">
        <g class="cj">
          <g class="cq">
            <path class="cu" d="M268.14,269.81l-6.84,6.95c-.34.35-.71.67-1.09.97-1.51,1.19-3.22,2.02-5.14,2.52-1.92.49-3.86.74-5.84.74l6.84-6.95c1.98,0,3.92-.25,5.84-.74,1.93-.5,3.64-1.33,5.14-2.52.38-.3.75-.62,1.09-.97"/>
          </g>
        </g>
      </g>
      <polygon class="bw" points="256.07 274.03 249.23 280.98 232.79 280.98 239.63 274.03 256.07 274.03"/>
      <polygon class="bw" points="223.25 260.05 216.41 266.99 215.51 237.65 222.35 230.7 223.25 260.05"/>
      <path class="dk" d="M276.51,217.8l.39,12.9h-5.9s.86,28.17.86,28.17c.09,2.89-.32,5.3-1.21,7.24-.9,1.93-2.1,3.49-3.61,4.67-1.51,1.19-3.22,2.02-5.14,2.52-1.92.49-3.86.74-5.84.74h-16.44c-5.45,0-9.51-1.2-12.17-3.59-2.67-2.4-4.07-5.87-4.21-10.4l-.9-29.35h-5.72s-.39-12.9-.39-12.9h30.63s.39,12.9.39,12.9h-5.61s.85,27.87.85,27.87c.17,1.51.68,2.41,1.51,2.7.82.3,2,.44,3.51.44h5.03c.98,0,1.87-.03,2.66-.1.79-.06,1.45-.25,2-.54.54-.29.96-.74,1.24-1.33.27-.59.4-1.41.37-2.46l-.81-26.59h-5.91s-.39-12.9-.39-12.9h24.82Z"/>
      <g class="cq">
        <g class="bl">
          <g class="cq">
            <path class="cu" d="M239.63,274.03l-6.84,6.95c-5.45,0-9.51-1.2-12.17-3.59-2.67-2.4-4.07-5.87-4.21-10.4l6.84-6.95c.14,4.53,1.54,7.99,4.21,10.4,2.66,2.39,6.72,3.59,12.17,3.59"/>
          </g>
        </g>
      </g>
    </g>
    <g class="cq">
      <polygon class="bw" points="208.85 230.41 202.01 237.35 196.5 237.35 203.34 230.41 208.85 230.41"/>
      <polygon class="bw" points="184.2 238.98 177.36 245.92 176.76 245.92 183.6 238.98 184.2 238.98"/>
      <g class="cq">
        <g class="dc">
          <g class="cq">
            <path class="cu" d="M172.15,238.19l-6.84,6.95c1.34-3.35,2.72-6.76,4.12-10.25,1.4-3.47,2.74-6.9,4.02-10.24l6.84-6.95c-1.28,3.34-2.62,6.76-4.02,10.24-1.4,3.48-2.78,6.9-4.12,10.25"/>
          </g>
        </g>
      </g>
      <polygon class="bw" points="184.88 261.33 178.04 268.28 177.36 245.92 184.2 238.98 184.88 261.33"/>
      <g class="cq">
        <g class="dd">
          <g class="cq">
            <path class="cu" d="M152.18,238.77l-6.84,6.95c-.19.09-.32.1-.58.1l6.84-6.95c.26,0,.39,0,.58-.1"/>
          </g>
        </g>
      </g>
      <polygon class="bw" points="210.18 274.03 203.34 280.98 173.21 280.98 180.05 274.03 210.18 274.03"/>
      <polygon class="bw" points="180.05 274.03 173.21 280.98 172.82 268.28 179.66 261.33 180.05 274.03"/>
      <polygon class="bw" points="132.72 230.41 125.88 237.35 125.49 224.65 132.33 217.71 132.72 230.41"/>
      <polygon class="bw" points="138.24 230.41 131.39 237.35 125.88 237.35 132.72 230.41 138.24 230.41"/>
      <polygon class="bw" points="164.69 267.63 157.85 274.58 145.34 245.72 152.18 238.77 164.69 267.63"/>
      <polygon class="bw" points="172.56 267.63 165.72 274.58 157.85 274.58 164.69 267.63 172.56 267.63"/>
      <polygon class="bw" points="139.18 261.33 132.34 268.28 131.39 237.35 138.24 230.41 139.18 261.33"/>
      <polygon class="bw" points="157.59 274.03 150.75 280.98 126.53 280.98 133.37 274.03 157.59 274.03"/>
      <path class="dk" d="M208.46,217.71l.39,12.7h-5.51s.95,30.92.95,30.92h5.51s.39,12.7.39,12.7h-30.14s-.39-12.7-.39-12.7h5.22s-.68-22.35-.68-22.35h-.59s-11.04,28.65-11.04,28.65h-7.87s-12.51-28.86-12.51-28.86c-.19.09-.32.1-.58.1l.69,22.46h4.92s.39,12.7.39,12.7h-24.22s-.39-12.7-.39-12.7h6.2s-.95-30.92-.95-30.92h-5.51s-.39-12.7-.39-12.7h30.62s9.2,20.48,9.2,20.48c1.34-3.35,2.72-6.76,4.12-10.25,1.4-3.47,2.74-6.9,4.02-10.24h28.17Z"/>
      <polygon class="bw" points="133.37 274.03 126.53 280.98 126.14 268.28 132.98 261.33 133.37 274.03"/>
    </g>
    <g class="cq">
      <polygon class="bw" points="125.03 230.12 118.19 237.06 112.68 237.06 119.52 230.12 125.03 230.12"/>
      <polygon class="bw" points="99.92 230.12 93.08 237.06 86.58 237.06 93.42 230.12 99.92 230.12"/>
      <polygon class="bw" points="93.42 230.12 86.58 237.06 86.21 224.75 93.05 217.8 93.42 230.12"/>
      <polygon class="bw" points="100.88 261.33 94.03 268.28 93.08 237.06 99.92 230.12 100.88 261.33"/>
      <polygon class="bw" points="94.76 273.84 87.92 280.78 87.54 268.28 94.38 261.33 94.76 273.84"/>
      <polygon class="bw" points="126.37 273.84 119.53 280.78 87.92 280.78 94.76 273.84 126.37 273.84"/>
      <polygon class="dk" points="124.65 217.8 125.03 230.12 119.52 230.12 120.37 261.33 125.98 261.33 126.37 273.84 94.76 273.84 94.38 261.33 100.88 261.33 99.92 230.12 93.42 230.12 93.05 217.8 124.65 217.8"/>
    </g>
    <g class="cq">
      <polygon class="bw" points="85.92 235.92 79.08 242.87 67.46 242.87 74.3 235.92 85.92 235.92"/>
      <polygon class="bw" points="74.3 235.92 67.46 242.87 66 237.35 72.84 230.41 74.3 235.92"/>
      <polygon class="bw" points="72.84 230.41 66 237.35 59.21 237.35 66.05 230.41 72.84 230.41"/>
      <g class="cq">
        <g class="ck">
          <g class="cq">
            <path class="cu" d="M66.05,230.41l-6.84,6.95c-1.31,0-2.4.18-3.24.54-.25.11-.46.25-.64.43l6.84-6.95c.17-.18.39-.32.64-.43.84-.36,1.92-.54,3.24-.54"/>
          </g>
        </g>
      </g>
      <g class="cq">
        <g class="bs">
          <g class="cq">
            <path class="cu" d="M42.47,229.03l-6.84,6.95c-.06-1.83.24-3.45.89-4.82.48-1.02,1.09-1.91,1.85-2.68l6.84-6.95c-.76.77-1.37,1.66-1.85,2.68-.65,1.37-.95,2.99-.89,4.82"/>
          </g>
        </g>
      </g>
      <g class="cq">
        <g class="dp">
          <g class="cq">
            <path class="cu" d="M68.1,257.04l-6.84,6.95c-.32-.49-.67-.9-1.07-1.22-.4-.33-.84-.59-1.3-.79-.47-.2-.87-.36-1.2-.5l6.84-6.95c.33.13.74.29,1.2.5.46.19.9.46,1.3.79.41.33.76.74,1.07,1.22"/>
          </g>
        </g>
      </g>
      <g class="cq">
        <g class="cz">
          <g class="cq">
            <path class="cu" d="M68.05,260.65l-6.84,6.95c.39-.39.57-.99.55-1.79-.02-.72-.19-1.33-.5-1.83l6.84-6.95c.31.5.48,1.11.5,1.83.02.79-.16,1.39-.55,1.79"/>
          </g>
        </g>
      </g>
      <polygon class="bw" points="42.75 238.19 35.91 245.14 35.63 235.97 42.47 229.03 42.75 238.19"/>
      <polygon class="bw" points="64.52 254.53 57.68 261.48 44.87 257.74 51.71 250.79 64.52 254.53"/>
      <g class="cq">
        <g class="dh">
          <g class="cq">
            <path class="cu" d="M51.71,250.79l-6.84,6.95c-2.12-.73-3.78-1.6-4.95-2.61-1.18-1.01-2.07-2.1-2.66-3.24-.59-1.15-.96-2.3-1.09-3.45-.13-1.15-.22-2.25-.25-3.3l6.84-6.95c.03,1.05.12,2.14.25,3.3.13,1.15.5,2.3,1.09,3.45.59,1.14,1.48,2.23,2.66,3.24,1.17,1.02,2.83,1.89,4.95,2.61"/>
          </g>
        </g>
      </g>
      <g class="cq">
        <g class="cg">
          <g class="cq">
            <path class="cu" d="M84.44,269.97l-6.84,6.95c-.46.47-.97.89-1.53,1.25-1.64,1.09-3.72,1.83-6.23,2.22-2.51.4-5.45.59-8.8.59l6.84-6.95c3.35,0,6.29-.19,8.8-.59,2.51-.39,4.59-1.13,6.23-2.22.56-.37,1.07-.79,1.53-1.25"/>
          </g>
        </g>
      </g>
      <polygon class="bw" points="67.88 274.03 61.04 280.98 36.52 280.98 43.36 274.03 67.88 274.03"/>
      <polygon class="bw" points="43.36 274.03 36.52 280.98 35.95 262.27 42.79 255.32 43.36 274.03"/>
      <path class="dk" d="M84.87,217.9l.06,2.02c.02.75.09,1.77.2,3.05.1,1.28.2,2.95.3,5.03.1,2.07.26,4.71.49,7.92h-11.62s-1.45-5.51-1.45-5.51h-6.79c-1.31,0-2.4.18-3.24.54-.84.36-1.24,1.1-1.21,2.22.05,1.51.53,2.53,1.47,3.05.94.53,1.9.92,2.89,1.19.13.06.6.23,1.4.49.72.2,1.79.53,3.19.98,1.39.46,3.45,1.09,6.16,1.88,2.06.66,3.78,1.54,5.16,2.66,1.37,1.12,2.48,2.28,3.31,3.49.83,1.21,1.4,2.43,1.73,3.64.34,1.21.51,2.25.54,3.1l.17,5.51c.09,3.09-.25,5.6-1.05,7.53-.8,1.94-2.01,3.45-3.65,4.53-1.64,1.09-3.72,1.83-6.23,2.22-2.51.4-5.45.59-8.8.59h-24.52s-.57-18.71-.57-18.71h11.81s1.96,6.11,1.96,6.11h9.94c.52-.06,1.01-.29,1.46-.69.45-.39.66-1.02.63-1.87-.02-.72-.19-1.33-.5-1.83-.32-.49-.67-.9-1.07-1.22-.4-.33-.84-.59-1.3-.79-.47-.2-.87-.36-1.2-.5l-12.82-3.74c-2.12-.73-3.78-1.6-4.95-2.61-1.18-1.01-2.07-2.1-2.66-3.24-.59-1.15-.96-2.3-1.09-3.45-.13-1.15-.22-2.25-.25-3.3l-.28-9.16c-.06-1.83.24-3.45.89-4.82.65-1.38,1.54-2.53,2.7-3.45,1.15-.92,2.49-1.62,4.02-2.12,1.53-.49,3.18-.74,4.95-.74h29.83Z"/>
    </g>
    <g class="cq">
      <polygon class="bw" points="123.28 49.06 116.44 56 95.9 56 102.74 49.06 123.28 49.06"/>
      <polygon class="bw" points="102.74 49.06 95.9 56 92.81 36.8 99.65 29.85 102.74 49.06"/>
      <polygon class="bw" points="99.65 29.85 92.81 36.8 75.82 36.8 82.66 29.85 99.65 29.85"/>
      <g class="cq">
        <g class="ds">
          <g class="cq">
            <path class="cu" d="M82.66,29.85l-6.84,6.95c-2.37,0-4.18.44-5.43,1.33-.4.28-.77.59-1.1.93l6.84-6.95c.33-.34.7-.65,1.1-.93,1.25-.89,3.06-1.33,5.43-1.33"/>
          </g>
        </g>
      </g>
      <polygon class="bw" points="103.04 82.74 96.2 89.68 95.75 74.91 102.59 67.96 103.04 82.74"/>
      <g class="cq">
        <g class="cf">
          <g class="cq">
            <path class="cu" d="M101.54,89.08l-6.84,6.95c.3-.31.54-.67.7-1.1.59-1.52.86-3.27.8-5.24l6.84-6.95c.06,1.97-.21,3.71-.8,5.24-.17.43-.4.79-.7,1.1"/>
          </g>
        </g>
      </g>
      <g class="cq">
        <g class="bk">
          <g class="cq">
            <path class="cu" d="M40.41,29.85l-6.84,6.95c-.09-3.05.31-5.91,1.21-8.57.9-2.66,2.19-4.96,3.86-6.94.3-.36.61-.7.94-1.03l6.84-6.95c-.32.33-.64.67-.94,1.03-1.67,1.98-2.95,4.28-3.86,6.94-.9,2.66-1.3,5.52-1.21,8.57"/>
          </g>
        </g>
      </g>
      <g class="cq">
        <g class="cy">
          <g class="cq">
            <path class="cu" d="M119.72,105.25l-6.84,6.95c-.13.13-.26.26-.39.38-1.96,1.87-4.31,3.32-7.04,4.36-2.73,1.03-5.71,1.55-8.97,1.55l6.84-6.95c3.25,0,6.24-.52,8.97-1.55,2.72-1.04,5.07-2.49,7.04-4.36.13-.13.26-.25.39-.38"/>
          </g>
        </g>
      </g>
      <polygon class="bw" points="42.06 83.77 35.22 90.71 33.57 36.8 40.41 29.85 42.06 83.77"/>
      <polygon class="bw" points="103.33 111.54 96.49 118.49 62.36 118.49 69.2 111.54 103.33 111.54"/>
      <path class="dk" d="M120.84,7.98l2.44,41.07h-20.54s-3.1-19.21-3.1-19.21h-16.98c-2.37,0-4.18.44-5.43,1.33-1.26.89-2.18,2.05-2.77,3.47-.6,1.43-.92,3.02-.96,4.79-.04,1.77-.04,3.6.02,5.47l1.16,37.82c.25,1.68.71,3.35,1.41,5.02.69,1.68,2.12,2.52,4.29,2.52h17.43c2.36,0,3.83-.76,4.43-2.3.59-1.52.86-3.27.8-5.24l-.45-14.78h22.01s.67,22.01.67,22.01c.1,3.25-.38,6.2-1.42,8.86-1.05,2.66-2.56,4.93-4.52,6.8-1.96,1.87-4.31,3.32-7.04,4.36-2.73,1.03-5.71,1.55-8.97,1.55h-34.12c-4.13,0-7.85-.69-11.14-2.07-3.29-1.37-6.1-3.3-8.45-5.76-2.34-2.46-4.15-5.39-5.44-8.78-1.29-3.4-1.99-7.12-2.11-11.16l-1.65-53.92c-.09-3.05.31-5.91,1.21-8.57.9-2.66,2.19-4.96,3.86-6.94,1.66-1.97,3.68-3.52,6.06-4.65,2.38-1.13,4.99-1.7,7.85-1.7h61.46Z"/>
      <g class="cq">
        <g class="bj">
          <g class="cq">
            <path class="cu" d="M69.2,111.54l-6.84,6.95c-4.13,0-7.85-.69-11.14-2.07-3.29-1.37-6.1-3.3-8.45-5.76-2.34-2.46-4.15-5.39-5.44-8.78-1.29-3.4-1.99-7.12-2.11-11.16l6.84-6.95c.12,4.04.82,7.76,2.11,11.16,1.28,3.39,3.09,6.33,5.44,8.78,2.34,2.46,5.16,4.39,8.45,5.76,3.3,1.38,7.01,2.07,11.14,2.07"/>
          </g>
        </g>
      </g>
    </g>
  </g>
  <g class="cq">
    <g class="cq">
      <g class="bt">
        <g class="cq">
          <path class="cu" d="M177.45,61.3l-4.28,4.34c3.66-18.46-1.59-19.89-1.87-19.97l4.28-4.34c.28.08,5.53,1.51,1.87,19.97"/>
        </g>
      </g>
    </g>
    <g class="cq">
      <g class="ca">
        <g class="cq">
          <path class="cu" d="M178.03,74.14l-4.28,4.34c2.78-2.82,3.25-6.64-.1-10.88-.43-.55-.6-1.28-.48-1.95l4.28-4.34c-.12.67.04,1.4.48,1.95,3.35,4.24,2.88,8.06.1,10.88"/>
        </g>
      </g>
    </g>
    <g class="cq">
      <g class="cs">
        <g class="cq">
          <path class="cu" d="M175.58,41.33l-4.28,4.34c-.39-.5-1.25-.73-2.47-.73-6.63,0-23.92,7.01-34.66,17.91l4.28-4.34c10.74-10.9,28.03-17.91,34.66-17.91,1.22,0,2.08.24,2.47.73"/>
        </g>
      </g>
    </g>
    <g class="cq">
      <g class="cv">
        <g class="cq">
          <path class="cu" d="M175.73,95.73l-4.28,4.34c-3.2,3.25-7.55,6-13.34,7.78-.38.12-.71.32-.98.59l4.28-4.34c.26-.27.6-.47.98-.59,5.79-1.79,10.14-4.53,13.34-7.78"/>
        </g>
      </g>
    </g>
    <g class="cq">
      <g class="dm">
        <g class="cq">
          <path class="cu" d="M145.83,95.37l-4.28,4.34c4-4.06,6.88-13.15,5.17-18.32l4.28-4.34c1.72,5.17-1.17,14.27-5.17,18.32"/>
        </g>
      </g>
    </g>
    <g class="cq">
      <g class="ch">
        <g class="cq">
          <path class="cu" d="M121.07,76.17l-4.28,4.34c.47-.47.7-1.14.64-1.84-.43-4.78,2.31-9.66,6.78-14.2l4.28-4.34c-4.47,4.54-7.22,9.42-6.78,14.2.06.7-.17,1.36-.64,1.84"/>
        </g>
      </g>
    </g>
    <g class="cq">
      <g class="dr">
        <g class="cq">
          <path class="cu" d="M155.5,107.9l-4.28,4.34c1.04-1.06.3-3.05-1.37-3.1-13.21-.35-20.9-8.57-28.02-19.66-.39-.6-1-.88-1.59-.88-.48,0-.94.18-1.27.52l4.28-4.34c.33-.34.8-.52,1.27-.52.59,0,1.2.28,1.59.88,7.12,11.09,14.81,19.31,28.02,19.66,1.67.05,2.41,2.04,1.37,3.1"/>
        </g>
      </g>
    </g>
    <path class="dk" d="M179.41,62.92c6.21,6.63,8.3,32.77-17.02,40.59-.83.26-1.45.94-1.58,1.8-.87,5.23-5.77,6.72-11.05,6.72s-11.1-1.52-13.48-2.23c-.22-.06-.43-.09-.65-.09-.47,0-.93.14-1.33.39-1.19.78-2.54,1.13-3.84,1.13-3.47,0-6.64-2.48-5.67-6.14.24-.9-.08-1.88-.83-2.49-8.77-7.29-9.57-22.08-3.27-26.13.71-.46,1.1-1.28,1.02-2.14-1.54-17.08,37.42-35.35,50.96-35.35,1.63,0,2.88.26,3.66.82,5.97,3.95,3.51,16.74,2.5,20.94-.18.76.03,1.59.58,2.17ZM162.77,79.08c12.58,0,22.12-7,15.15-15.83-.43-.55-.6-1.28-.48-1.95,3.66-18.46-1.59-19.89-1.87-19.97-.39-.5-1.25-.73-2.47-.73-12.74,0-64.79,25.84-34.21,55.5.95.92,1.94,1.33,2.94,1.33,5.72,0,11.42-13.58,9.16-20.38,3.96,1.4,8,2.03,11.78,2.03M155.12,108.2c1.57-.92.85-3.34-.99-3.39-13.21-.35-20.9-8.57-28.02-19.66-.39-.6-1-.88-1.59-.88-.81,0-1.6.53-1.74,1.48-1.8,12.56,14.56,23.97,26.08,23.97,2.35,0,4.5-.48,6.26-1.51"/>
    <g class="cq">
      <g class="cd">
        <g class="cq">
          <path class="cu" d="M158.9,109.22l-4.28,4.34c-2.09,2.12-5.52,2.82-9.14,2.82-5.35,0-11.1-1.52-13.48-2.23-.22-.06-.43-.09-.65-.09-.47,0-.93.14-1.33.39-1.19.78-2.54,1.13-3.84,1.13-3.47,0-6.64-2.48-5.67-6.14.24-.9-.08-1.88-.83-2.49-8.18-6.8-9.42-20.12-4.45-25.17l4.28-4.34c-4.97,5.05-3.73,18.37,4.45,25.17.75.61,1.07,1.59.83,2.49-.97,3.66,2.2,6.14,5.67,6.14,1.31,0,2.66-.35,3.84-1.13.4-.25.86-.39,1.33-.39.22,0,.44.03.65.09,2.38.71,8.13,2.23,13.48,2.23,3.62,0,7.06-.7,9.14-2.82"/>
        </g>
      </g>
    </g>
  </g>
  <polygon class="bw" points="167.89 42.9 167.89 47.96 177.61 47.96 174.38 45.43 167.89 42.9"/>
</svg>