<?xml version="1.0" encoding="UTF-8"?>
<svg id="k" data-name="psych" xmlns="http://www.w3.org/2000/svg" viewBox="0 0 500 500">
  <defs>
    <style>
      .m {
        fill: #cc682f;
      }

      .n {
        fill: #fada4c;
      }

      .o {
        fill: none;
        stroke: #2f2542;
        stroke-miterlimit: 10;
        stroke-width: 60px;
      }

      .p {
        fill: #f5a935;
      }
    </style>
  </defs>
  <rect class="o" x="70.54" y="113.59" width="320.28" height="320.28" rx="35.7" ry="35.7"/>
  <g>
    <path class="p" d="M335.47,10.38l-126,220.57c-7.85,13.74,2.07,30.83,17.89,30.83h252.01c15.82,0,25.74-17.09,17.89-30.83L371.25,10.38c-7.91-13.85-27.87-13.85-35.78,0Z"/>
    <g>
      <path class="m" d="M353.36,189.92c-8.88,0-16.08-7.2-16.08-16.08v-84.37c0-8.88,7.2-16.08,16.08-16.08s16.08,7.2,16.08,16.08v84.37c0,8.88-7.2,16.08-16.08,16.08Z"/>
      <path class="m" d="M353.36,236.24c-.53,0-1.06-.03-1.59-.09-.51-.04-1.04-.13-1.55-.24-.51-.1-1.03-.23-1.52-.39-.5-.15-1.01-.32-1.49-.53-.48-.2-.95-.43-1.42-.68-.47-.25-.92-.52-1.36-.8-.43-.29-.86-.6-1.27-.93-.41-.33-.8-.7-1.18-1.06-2.99-2.99-4.71-7.14-4.71-11.38,0-.52.02-1.06.07-1.59.05-.52.14-1.04.24-1.55.11-.51.24-1.03.39-1.53.16-.49.33-1,.54-1.48.2-.48.43-.95.66-1.43.25-.46.53-.91.81-1.35.29-.44.6-.86.93-1.26s.7-.8,1.06-1.18c3.37-3.36,8.19-5.1,12.96-4.63.52.05,1.04.14,1.55.24.52.11,1.03.24,1.52.39.5.16,1.01.33,1.49.54.48.2.95.43,1.41.66.47.25.92.53,1.36.81.43.29.86.6,1.26.93s.8.7,1.18,1.06c.37.37.73.77,1.06,1.18.33.41.64.83.93,1.26.29.44.56.89.8,1.35.25.47.47.94.68,1.43.2.48.38.99.54,1.48.15.5.28,1.02.39,1.53.1.52.18,1.04.24,1.55.05.53.08,1.06.08,1.59,0,4.24-1.72,8.37-4.71,11.38-.37.36-.77.73-1.18,1.06-.41.33-.84.64-1.26.93-.44.29-.89.56-1.36.8-.46.25-.93.47-1.41.68-.48.2-.99.37-1.49.53-.49.16-1.01.29-1.52.39-.51.11-1.04.19-1.55.24-.53.05-1.06.09-1.59.09Z"/>
    </g>
  </g>
  <g>
    <path class="n" d="M159.12,195.45L2.74,469.17c-7.85,13.74,2.07,30.83,17.89,30.83h312.74c15.82,0,25.74-17.09,17.89-30.83L194.9,195.45c-7.91-13.85-27.87-13.85-35.78,0Z"/>
    <g>
      <path class="m" d="M177.01,414.62c-10.55,0-19.11-8.55-19.11-19.11v-100.24c0-10.55,8.55-19.11,19.11-19.11s19.11,8.55,19.11,19.11v100.24c0,10.55-8.55,19.11-19.11,19.11Z"/>
      <path class="m" d="M177.01,469.66c-.62,0-1.26-.04-1.89-.1-.61-.05-1.24-.15-1.85-.28-.61-.11-1.22-.27-1.81-.46-.6-.18-1.2-.38-1.77-.62-.57-.24-1.13-.51-1.68-.8-.56-.29-1.1-.61-1.62-.96-.51-.34-1.02-.71-1.5-1.11-.48-.4-.96-.83-1.4-1.26-3.55-3.55-5.59-8.48-5.59-13.52,0-.62.03-1.26.09-1.88.06-.61.17-1.24.28-1.85.13-.61.28-1.22.46-1.82.19-.59.39-1.19.64-1.76.24-.57.51-1.13.79-1.69.29-.55.62-1.08.97-1.61.34-.52.71-1.02,1.11-1.5s.83-.96,1.26-1.4c4-3.99,9.73-6.06,15.4-5.5.61.06,1.24.17,1.85.28.61.13,1.22.28,1.81.46.6.19,1.2.39,1.77.64.57.24,1.13.51,1.68.79.56.29,1.1.62,1.62.97.51.34,1.02.71,1.5,1.11s.96.83,1.4,1.26c.43.45.87.92,1.26,1.4.4.48.77.98,1.11,1.5.34.52.66,1.06.96,1.61.29.56.56,1.12.8,1.69.24.57.45,1.17.64,1.76.18.6.33,1.21.46,1.82.11.61.22,1.24.28,1.85.06.62.09,1.26.09,1.88,0,5.03-2.04,9.95-5.59,13.52-.45.43-.92.87-1.4,1.26-.48.39-.99.76-1.5,1.11-.52.34-1.06.66-1.62.96-.55.29-1.11.56-1.68.8-.57.24-1.17.45-1.77.62-.59.19-1.2.34-1.81.46-.61.13-1.24.23-1.85.28-.62.06-1.26.1-1.88.1Z"/>
    </g>
  </g>
</svg>