<?xml version="1.0" encoding="UTF-8"?>
<svg id="d" data-name="prices" xmlns="http://www.w3.org/2000/svg" viewBox="0 0 500 500">
  <defs>
    <style>
      .m {
        fill: #347f80;
      }

      .n {
        fill: #68a367;
      }

      .o {
        fill: #d3db79;
      }
    </style>
  </defs>
  <path class="o" d="M287.05,119L379.88,5.65c6.17-7.54,17.48-7.54,23.65,0l92.83,113.35c8.44,10.31,1.3,26.03-11.82,26.03h-34.15v150.06c0,8.75-6.91,15.84-15.44,15.84h-86.48c-8.53,0-15.44-7.09-15.44-15.84v-150.06h-34.14c-13.12,0-20.26-15.72-11.82-26.03Z"/>
  <path class="n" d="M242.04,227.95c-19.81-10.58-42.13-16.61-64.84-21.21v-74.66c9.97,2.1,19.3,5.41,27.23,9.93,17.09,9.72,20.57,20.81,21.09,29.1.03.55.06,1.1.07,1.66.01.34.01.68.01,1,0,20.75,16.82,37.56,37.56,37.56s37.56-16.82,37.56-37.56c0-.65,0-1.31-.01-1.95-.58-39.74-18.64-74.57-51.05-98.24-20.3-14.82-45.38-24.66-72.48-28.67v-18.08c0-14.81-12.01-26.83-26.83-26.83s-26.83,12.02-26.83,26.83v17.81c-27.63,3.8-53.08,13.71-73.48,28.82C22.55,93.84,5.57,122.72,1.16,156.04c-.04.28-.09.57-.12.85-.69,5.52-1.04,11.15-1.04,16.88v.86c.27,43.37,20.54,77.04,58.7,97.41,19.81,10.58,42.13,16.61,64.84,21.21v74.66c-9.97-2.1-19.3-5.41-27.23-9.93-17.09-9.72-20.57-20.81-21.09-29.1-.03-.55-.06-1.1-.07-1.66-.01-.33-.01-.67-.01-1,0-20.75-16.82-37.56-37.56-37.56S0,305.48,0,326.22c0,.65,0,1.3.01,1.95.58,39.74,18.64,74.57,51.05,98.24,20.31,14.82,45.38,24.66,72.48,28.67v18.08c0,14.81,12.01,26.83,26.83,26.83s26.83-12.02,26.83-26.83v-17.81c27.63-3.8,53.08-13.71,73.48-28.82,27.51-20.38,44.49-49.26,48.9-82.59.04-.29.08-.57.12-.85.69-5.52,1.04-11.15,1.04-16.88v-.86c-.27-43.37-20.54-77.04-58.7-97.41ZM225.26,332.83c-1.12,7.4-5.32,16.41-19.12,24.6-8.3,4.93-18.25,8.49-28.95,10.67v-65.08c14.6,2.87,28.03,6.19,37.49,10.71,10.37,4.95,10.82,8.26,10.92,12.66v.09c.01.15.01.29.01.44.03,1.8-.03,3.79-.35,5.91ZM75.47,167.17c1.12-7.4,5.32-16.41,19.12-24.6,8.3-4.93,18.25-8.49,28.95-10.67v65.08c-14.6-2.87-28.03-6.19-37.49-10.71-10.37-4.94-10.82-8.25-10.92-12.66v-.09c-.01-.15-.01-.29-.01-.44-.03-1.8.03-3.79.35-5.91Z"/>
  <path class="m" d="M241.22,301.67l95.32-116.39c6.34-7.74,17.95-7.74,24.28,0l95.32,116.39c8.67,10.58,1.33,26.73-12.14,26.73h-35.06v155.33c0,8.98-7.1,16.27-15.86,16.27h-88.8c-8.76,0-15.86-7.28-15.86-16.27v-155.33h-35.05c-13.47,0-20.81-16.14-12.14-26.73Z"/>
</svg>