<?xml version="1.0" encoding="UTF-8"?>
<svg id="a" data-name="Layer 1" xmlns="http://www.w3.org/2000/svg" viewBox="0 0 474.95 474.96">
  <defs>
    <style>
      .b {
        fill: #2f2542;
      }

      .c {
        fill: #68a367;
      }

      .d {
        fill: #cc682f;
      }

      .e {
        fill: #fada4c;
      }

      .f {
        fill: #f5a935;
      }
    </style>
  </defs>
  <path class="d" d="M296.85-44.03h0c39.63,0,71.8,32.17,71.8,71.8v372.46h-143.6V27.77c0-39.63,32.17-71.8,71.8-71.8Z" transform="translate(212.88 -157.74) rotate(45)"/>
  <rect class="c" x="180.5" y="-27.86" width="143.6" height="501.03" rx="71.8" ry="71.8" transform="translate(231.34 -113.19) rotate(45)"/>
  <path class="e" d="M24.07,349.18l.04-.04s-.03.03-.03.05h-.01Z"/>
  <path class="e" d="M152.12,424.48h0s-20.3,6.75-20.3,6.75l-19.43,6.44-74.93-75.07,6.46-19.4,6.85-20.54,24.41-24.41,201.84-201.82c28.04-28.04,73.49-28.04,101.53,0,14.01,14.01,21.02,32.39,21.03,50.77,0,18.37-7.02,36.75-21.03,50.77l-226.41,226.52Z"/>
  <path class="f" d="M152.12,424.48h0s-20.3,6.75-20.3,6.75l-19.43,6.44L0,474.96l37.44-112.37,6.46-19.4,6.85-20.54c3.26-2.06,6.79-3.7,10.54-4.93,21.96-7.27,51.03-.32,73.65,22.3,14.54,14.54,22.61,31.77,24.57,48.05,1.1,9.02.32,17.75-2.27,25.58-1.27,3.85-2.97,7.48-5.11,10.83Z"/>
  <path class="b" d="M61.11,454.68L0,474.95l20.4-61.23.47-.04c21.18-1.77,42.53,19.99,40.24,41h0Z"/>
</svg>