<?xml version="1.0" encoding="UTF-8"?>
<svg id="i" data-name="ai" xmlns="http://www.w3.org/2000/svg" viewBox="0 0 500 500">
  <defs>
    <style>
      .m {
        fill: #d3db79;
      }

      .n {
        fill: #485c73;
      }
    </style>
  </defs>
  <path class="n" d="M409.94,151.37h-140.02v-16.32c28.36-8.55,49.07-34.94,49.07-66.06C318.99,30.95,288.04,0,250,0s-68.99,30.95-68.99,68.99c0,31.12,20.71,57.5,49.07,66.06v16.32H90.06C40.93,151.37.97,191.52.97,240.86v169.63c0,49.34,39.96,89.5,89.08,89.5h319.89c49.12,0,89.08-40.16,89.08-89.5v-169.63c0-49.34-39.96-89.49-89.08-89.49ZM220.85,68.99c0-16.06,13.08-29.14,29.15-29.14s29.15,13.08,29.15,29.14-13.08,29.15-29.15,29.15-29.15-13.07-29.15-29.15ZM459.36,410.5c0,27.38-22.17,49.65-49.42,49.65H90.06c-27.25,0-49.42-22.27-49.42-49.65v-169.63c0-27.37,22.17-49.64,49.42-49.64h319.89c27.25,0,49.42,22.27,49.42,49.64v169.63Z"/>
  <path class="m" d="M279.15,68.99c0,16.08-13.08,29.15-29.15,29.15s-29.15-13.07-29.15-29.15,13.08-29.14,29.15-29.14,29.15,13.08,29.15,29.14Z"/>
  <path class="n" d="M155.25,256.69c-38.04,0-68.99,30.95-68.99,68.99s30.95,69,68.99,69,68.99-30.96,68.99-69-30.95-68.99-68.99-68.99ZM155.25,354.83c-16.07,0-29.15-13.08-29.15-29.15s13.08-29.15,29.15-29.15,29.15,13.08,29.15,29.15-13.08,29.15-29.15,29.15Z"/>
  <path class="n" d="M344.75,256.69c-38.04,0-68.99,30.95-68.99,68.99s30.95,69,68.99,69,68.99-30.96,68.99-69-30.95-68.99-68.99-68.99ZM344.75,354.83c-16.07,0-29.15-13.08-29.15-29.15s13.08-29.15,29.15-29.15,29.15,13.08,29.15,29.15-13.08,29.15-29.15,29.15Z"/>
</svg>