<?xml version="1.0" encoding="UTF-8"?>
<svg id="h" data-name="ush" xmlns="http://www.w3.org/2000/svg" viewBox="0 0 500 500">
  <defs>
    <style>
      .m {
        fill: #347f80;
      }

      .n {
        fill: #68a367;
      }

      .o {
        fill: #cc682f;
      }
    </style>
  </defs>
  <g>
    <path class="m" d="M90.55,133.18H27.85C12.47,133.18,0,120.31,0,104.43s12.47-28.75,27.85-28.75h62.7c15.38,0,27.85,12.87,27.85,28.75s-12.47,28.75-27.85,28.75Z"/>
    <path class="m" d="M239.38,133.18h-62.7c-15.38,0-27.85-12.87-27.85-28.75s12.47-28.75,27.85-28.75h62.7c15.38,0,27.85,12.87,27.85,28.75s-12.47,28.75-27.85,28.75Z"/>
    <path class="m" d="M90.55,230.23H27.85C12.47,230.23,0,217.36,0,201.48s12.47-28.75,27.85-28.75h62.7c15.38,0,27.85,12.87,27.85,28.75s-12.47,28.75-27.85,28.75Z"/>
    <path class="m" d="M239.38,230.23h-62.7c-15.38,0-27.85-12.87-27.85-28.75s12.47-28.75,27.85-28.75h62.7c15.38,0,27.85,12.87,27.85,28.75s-12.47,28.75-27.85,28.75Z"/>
    <path class="o" d="M472.15,133.18h-146.64c-15.38,0-27.85-12.87-27.85-28.75s12.47-28.75,27.85-28.75h146.64c15.38,0,27.85,12.87,27.85,28.75s-12.47,28.75-27.85,28.75Z"/>
    <path class="o" d="M472.15,230.23h-146.64c-15.38,0-27.85-12.87-27.85-28.75s12.47-28.75,27.85-28.75h146.64c15.38,0,27.85,12.87,27.85,28.75s-12.47,28.75-27.85,28.75Z"/>
    <path class="o" d="M472.15,327.27H27.85C12.47,327.27,0,314.4,0,298.52s12.47-28.75,27.85-28.75h444.3c15.38,0,27.85,12.87,27.85,28.75s-12.47,28.75-27.85,28.75Z"/>
    <path class="o" d="M472.15,424.31H27.85C12.47,424.31,0,411.44,0,395.57s12.47-28.75,27.85-28.75h444.3c15.38,0,27.85,12.87,27.85,28.75s-12.47,28.75-27.85,28.75Z"/>
  </g>
  <path class="n" d="M500,104.43c0,15.88-12.47,28.75-27.85,28.75h-45.47v46.94c0,15.88-12.47,28.75-27.85,28.75s-27.85-12.87-27.85-28.75v-46.94h-45.47c-15.38,0-27.85-12.87-27.85-28.75s12.47-28.75,27.85-28.75h45.47V28.75c0-15.88,12.47-28.75,27.85-28.75s27.85,12.87,27.85,28.75v46.94h45.47c15.38,0,27.85,12.87,27.85,28.75Z"/>
  <path class="n" d="M202.34,395.57c0,15.88-12.47,28.75-27.85,28.75h-45.47v46.94c0,15.88-12.47,28.75-27.85,28.75s-27.85-12.87-27.85-28.75v-46.94H27.85C12.47,424.31,0,411.44,0,395.57s12.47-28.75,27.85-28.75h45.47v-46.94c0-15.88,12.47-28.75,27.85-28.75s27.85,12.87,27.85,28.75v46.94h45.47c15.38,0,27.85,12.87,27.85,28.75Z"/>
</svg>