<?xml version="1.0" encoding="UTF-8"?>
<svg id="b" data-name="physics" xmlns="http://www.w3.org/2000/svg" viewBox="0 0 500 500">
  <defs>
    <style>
      .m {
        fill: #2f2542;
      }

      .n {
        fill: #485c73;
      }
    </style>
  </defs>
  <path class="m" d="M488.8,343.2l-125.46,149.35c-8.34,9.93-23.62,9.93-31.96,0l-125.46-149.35c-11.41-13.58-1.75-34.3,15.98-34.3h46.15V20.87c0-11.53,9.34-20.87,20.87-20.87h116.89c11.53,0,20.87,9.34,20.87,20.87v288.03h46.14c17.73,0,27.39,20.72,15.98,34.3Z"/>
  <path class="n" d="M108.47,392.57l-50.34-80.61h-25.84c-17.23,0-31.8-13.51-32.27-30.73s13.85-32.51,31.61-32.51h48.77c7.96,0,15.36,4.1,19.58,10.86l21.99,35.21,93.33-211.14c3.69-8.36,11.97-13.75,21.11-13.75h231.32c17.23,0,31.8,13.51,32.27,30.73.49,17.87-13.85,32.51-31.61,32.51h-205.82l-113.4,256.55c-7.49,16.94-30.88,18.61-40.69,2.89Z"/>
</svg>