<?xml version="1.0" encoding="UTF-8"?>
<svg id="old_stuff" data-name="old stuff" xmlns="http://www.w3.org/2000/svg" viewBox="0 0 500 500">
  <defs>
    <style>
      .cls-1 {
        fill: #c7d4db;
      }

      .cls-1, .cls-2 {
        stroke-width: 0px;
      }

      .cls-2, .cls-3 {
        fill: #485c73;
      }

      .cls-3 {
        stroke: #485c73;
        stroke-linecap: round;
        stroke-miterlimit: 10;
        stroke-width: 25px;
      }
    </style>
  </defs>
  <g>
    <rect class="cls-1" x="135.52" y=".49" width="364.83" height="500" rx="47.81" ry="47.81"/>
    <g>
      <path class="cls-2" d="m440.36,95.55h-243.08c-11.05,0-20-8.95-20-20s8.95-20,20-20h243.08c11.05,0,20,8.95,20,20s-8.95,20-20,20Z"/>
      <path class="cls-2" d="m438.59,183.02h-243.08c-11.05,0-20-8.95-20-20s8.95-20,20-20h243.08c11.05,0,20,8.95,20,20s-8.95,20-20,20Z"/>
      <path class="cls-2" d="m436.82,270.49h-243.08c-11.05,0-20-8.95-20-20s8.95-20,20-20h243.08c11.05,0,20,8.95,20,20s-8.95,20-20,20Z"/>
      <path class="cls-2" d="m442.13,357.96h-243.08c-11.05,0-20-8.95-20-20s8.95-20,20-20h243.08c11.05,0,20,8.95,20,20s-8.95,20-20,20Z"/>
      <path class="cls-2" d="m442.13,445.43h-243.08c-11.05,0-20-8.95-20-20s8.95-20,20-20h243.08c11.05,0,20,8.95,20,20s-8.95,20-20,20Z"/>
    </g>
  </g>
  <g>
    <circle class="cls-1" cx="143.78" cy="357.05" r="127.19"/>
    <path class="cls-2" d="m143.78,500.48C64.69,500.48.35,436.14.35,357.05s64.34-143.43,143.43-143.43,143.43,64.34,143.43,143.43-64.34,143.43-143.43,143.43h0Zm0-254.37c-61.17,0-110.94,49.77-110.94,110.94s49.77,110.94,110.94,110.94,110.94-49.77,110.94-110.94-49.77-110.94-110.94-110.94h0Z"/>
    <path class="cls-2" d="m143.78,499.36c-76.33,0-138.43-62.1-138.43-138.43s62.1-138.43,138.43-138.43,138.43,62.1,138.43,138.43-62.1,138.43-138.43,138.43h0Zm0-254.37c-63.93,0-115.94,52.01-115.94,115.94s52.01,115.94,115.94,115.94,115.94-52.01,115.94-115.94-52.01-115.94-115.94-115.94h0Z"/>
    <g>
      <line class="cls-3" x1="92.85" y1="330" x2="197" y2="330"/>
      <line class="cls-3" x1="92.62" y1="391.8" x2="196.77" y2="391.8"/>
    </g>
  </g>
</svg>