<?xml version="1.0" encoding="UTF-8"?>
<svg id="j" data-name="precalc" xmlns="http://www.w3.org/2000/svg" viewBox="0 0 500 500">
  <defs>
    <style>
      .m {
        fill: #2f2542;
      }

      .n {
        fill: #485c73;
      }
    </style>
  </defs>
  <g>
    <path class="n" d="M348.12,391.64c-7.44,0-14.84-3.04-20.19-9.02-9.98-11.15-9.04-28.28,2.11-38.26.71-.65,75.34-68.91,75.34-148.55s-74.63-147.9-75.38-148.58c-11.09-10.01-12.01-27.13-2.02-38.24,9.99-11.11,27.07-12.06,38.2-2.09,3.81,3.41,93.38,84.81,93.38,188.91s-89.57,185.5-93.38,188.92c-5.17,4.63-11.63,6.91-18.06,6.91Z"/>
    <path class="n" d="M112.27,318.68c-9.85,0-19.35-5.39-24.14-14.75-6.82-13.32-1.55-29.65,11.77-36.46.41-.21,47.43-24.96,78.12-71.43s35-99.44,35.04-99.97c1.04-14.93,13.98-26.17,28.91-25.1,14.93,1.04,26.18,14.02,25.14,28.95-.19,2.72-5.1,67.26-43.88,125.98-38.78,58.72-96.22,88.56-98.65,89.81-3.95,2.02-8.17,2.98-12.32,2.98Z"/>
    <path class="n" d="M54.68,195.82c-10.87,0-21.13-6.59-25.28-17.34L1.83,107.12c-5.39-13.96,1.55-29.64,15.51-35.04,13.96-5.4,29.64,1.55,35.04,15.51l27.58,71.37c5.39,13.96-1.55,29.64-15.51,35.04-3.21,1.24-6.51,1.83-9.76,1.83Z"/>
    <path class="n" d="M143.21,146.12c-10.87,0-21.13-6.59-25.28-17.34l-27.58-71.37c-5.39-13.96,1.55-29.64,15.51-35.04,13.96-5.4,29.64,1.55,35.04,15.51l27.58,71.37c5.39,13.96-1.55,29.64-15.51,35.04-3.21,1.24-6.51,1.83-9.76,1.83Z"/>
  </g>
  <path class="m" d="M163.7,490.67l-43.24-69.24h-22.2c-14.8,0-27.31-11.6-27.72-26.4-.42-15.35,11.9-27.92,27.15-27.92h41.89c6.84,0,13.19,3.52,16.82,9.32l18.88,30.24,80.16-181.35c3.17-7.18,10.28-11.81,18.13-11.81h198.68c14.8,0,27.31,11.6,27.72,26.4s-11.9,27.92-27.15,27.92h-176.78l-97.4,220.35c-6.43,14.55-26.52,15.98-34.95,2.49Z"/>
</svg>