<?xml version="1.0" encoding="UTF-8"?>
<svg id="Layer_5" data-name="Layer 5" xmlns="http://www.w3.org/2000/svg" viewBox="0 0 500 498.29">
  <defs>
    <style>
      .cls-1 {
        fill: #c7d4db;
      }

      .cls-1, .cls-2, .cls-3 {
        stroke-width: 0px;
      }

      .cls-2 {
        fill: #485c73;
      }

      .cls-3 {
        fill: #347f80;
      }
    </style>
  </defs>
  <path class="cls-1" d="m201.05,153.58L7.81,413.5c-22.01,37.83,5.28,85.28,49.05,85.28h386.47c43.77,0,71.06-47.45,49.05-85.28l-193.24-259.92c-21.88-37.61-76.21-37.61-98.09,0Z"/>
  <path class="cls-1" d="m239.21.28h21.58c19.32,0,35,15.68,35,35v193.48h-91.58V35.28C204.21,15.96,219.89.28,239.21.28Z"/>
  <path class="cls-3" d="m219.32,221.76l-131.41,164.8c-20.5,25.71-2.19,63.71,30.68,63.71h262.83c32.88,0,51.18-38.01,30.68-63.71l-131.41-164.8c-15.71-19.7-45.66-19.7-61.37,0Z"/>
  <path class="cls-3" d="m381.41,450.28H118.59c-32.88,0-51.19-38.01-30.69-63.71l46.73-58.61,49.96-62.65,34.73-43.55c15.71-19.7,45.65-19.7,61.36,0l131.42,164.81c20.5,25.7,2.19,63.71-30.69,63.71Z"/>
  <circle class="cls-2" cx="246.41" cy="357.34" r="55.59"/>
  <path class="cls-2" d="m233,315.28c0,24.78-18.04,45.36-41.71,49.31-2.7.46-5.47.69-8.29.69-23.23,0-42.76-15.85-48.37-37.32l49.96-62.65c22.93.71,41.97,16.87,47.07,38.42.88,3.71,1.34,7.58,1.34,11.55Z"/>
  <path class="cls-1" d="m318.02,69.28h-136.04c-20.12,0-36.43-15.45-36.43-34.5S161.86.28,181.98.28h136.04c20.12,0,36.43,15.45,36.43,34.5s-16.31,34.5-36.43,34.5Z"/>
  <circle class="cls-1" cx="205" cy="256.28" r="36"/>
  <circle class="cls-1" cx="275.5" cy="308.78" r="26.5"/>
</svg>