<?xml version="1.0" encoding="UTF-8"?>
<svg id="Layer_3" data-name="Layer 3" xmlns="http://www.w3.org/2000/svg" viewBox="0 0 500 498.29">
  <defs>
    <style>
      .cls-1 {
        fill: #485c73;
      }

      .cls-1, .cls-2 {
        stroke-width: 0px;
      }

      .cls-2 {
        fill: #cc682f;
      }
    </style>
  </defs>
  <g>
    <path class="cls-1" d="m381.19,498.28c-20.85,0-37.75-17.48-37.75-39.05V39.05c0-21.57,16.9-39.05,37.75-39.05s37.75,17.48,37.75,39.05v420.18c0,21.57-16.9,39.05-37.75,39.05Z"/>
    <path class="cls-1" d="m233.23,498.28c-98.24,0-178.16-82.68-178.16-184.32s79.92-184.32,178.16-184.32,178.16,82.68,178.16,184.32-79.92,184.32-178.16,184.32Zm0-290.53c-56.61,0-102.67,47.65-102.67,106.22s46.06,106.22,102.67,106.22,102.67-47.65,102.67-106.22-46.06-106.22-102.67-106.22Z"/>
  </g>
  <path class="cls-2" d="m36.62,498.29c9.37,0,18.74-3.58,25.9-10.73L489.27,112.8c14.3-14.3,14.3-37.49,0-51.79-14.3-14.3-37.49-14.3-51.79,0L10.73,435.77c-14.3,14.3-14.3,37.49,0,51.79,7.15,7.15,16.52,10.73,25.9,10.73Z"/>
</svg>