<?xml version="1.0" encoding="UTF-8"?>
<svg id="e" data-name="lang" xmlns="http://www.w3.org/2000/svg" viewBox="0 0 500 500">
  <defs>
    <style>
      .m {
        fill: #c7d4db;
      }

      .n {
        fill: none;
        stroke: #485c73;
        stroke-linecap: round;
        stroke-miterlimit: 10;
        stroke-width: 25px;
      }

      .o {
        fill: #c7d4db;
      }

      .p {
        fill: #485c73;
      }
    </style>
  </defs>
  <g>
    <rect class="m" x="111.95" width="364.83" height="500" rx="47.81" ry="47.81"/>
    <g>
      <path class="p" d="M416.79,95.06h-243.08c-11.05,0-20-8.95-20-20s8.95-20,20-20h243.08c11.05,0,20,8.95,20,20s-8.95,20-20,20Z"/>
      <path class="p" d="M415.02,182.53h-243.08c-11.05,0-20-8.95-20-20s8.95-20,20-20h243.08c11.05,0,20,8.95,20,20s-8.95,20-20,20Z"/>
      <path class="p" d="M413.25,270h-243.08c-11.05,0-20-8.95-20-20s8.95-20,20-20h243.08c11.05,0,20,8.95,20,20s-8.95,20-20,20Z"/>
      <path class="p" d="M418.56,357.47h-243.08c-11.05,0-20-8.95-20-20s8.95-20,20-20h243.08c11.05,0,20,8.95,20,20s-8.95,20-20,20Z"/>
      <path class="p" d="M418.56,444.94h-243.08c-11.05,0-20-8.95-20-20s8.95-20,20-20h243.08c11.05,0,20,8.95,20,20s-8.95,20-20,20Z"/>
    </g>
  </g>
  <g>
    <circle class="o" cx="160.58" cy="356.57" r="127.19"/>
    <path class="n" d="M208.22,398.14c-22.96,22.96-60.19,22.96-83.15,0-22.96-22.96-22.96-60.19,0-83.15,22.96-22.96,60.19-22.96,83.15,0"/>
    <path class="p" d="M160.58,500c-79.09,0-143.43-64.34-143.43-143.43s64.34-143.43,143.43-143.43,143.43,64.34,143.43,143.43-64.34,143.43-143.43,143.43ZM160.58,245.63c-61.17,0-110.94,49.77-110.94,110.94s49.77,110.94,110.94,110.94,110.94-49.77,110.94-110.94-49.77-110.94-110.94-110.94Z"/>
    <path class="p" d="M160.58,495c-76.33,0-138.43-62.1-138.43-138.43s62.1-138.43,138.43-138.43,138.43,62.1,138.43,138.43-62.1,138.43-138.43,138.43ZM160.58,240.63c-63.93,0-115.94,52.01-115.94,115.94s52.01,115.94,115.94,115.94,115.94-52.01,115.94-115.94-52.01-115.94-115.94-115.94Z"/>
  </g>
</svg>