<?xml version="1.0" encoding="UTF-8"?>
<svg id="a" data-name="pencil" xmlns="http://www.w3.org/2000/svg" viewBox="0 0 500 500">
  <defs>
    <style>
      .m {
        fill: #2f2542;
      }

      .n {
        fill: #68a367;
      }

      .o {
        fill: #cc682f;
      }

      .p {
        fill: #fada4c;
      }

      .q {
        fill: #f5a935;
      }
    </style>
  </defs>
  <path class="o" d="M478.88,127.68l-38.8,38.8c28.04-28.04,28.04-73.5,0-101.54l-5.02-5.02c-28.04-28.04-73.5-28.04-101.54,0l38.79-38.8c28.04-28.04,73.51-28.04,101.55,0l5.02,5.02c28.04,28.04,28.04,73.5,0,101.54Z"/>
  <path class="n" d="M440.08,166.48l-209.77,209.77-106.56-106.56L333.52,59.92c28.04-28.04,73.5-28.04,101.54,0l5.02,5.02c28.04,28.04,28.04,73.5,0,101.54Z"/>
  <path class="p" d="M25.26,368.01l.04-.04s-.03.03-.03.05h-.01Z"/>
  <path class="p" d="M408.64,166.71c.33,18.94-6.55,37.76-20.74,51.94l-20.84,20.85-207.4,207.5s0,.02-.02.03h-.01l-21.31,7.08-20.39,6.76-78.63-78.78h0s6.77-20.37,6.77-20.37l7.19-21.55,23.1-23.09.63-.63,16.43-16.42h0s187.93-187.93,187.93-187.93c28.38-28.38,75.25-27.54,104.67,1.88,14.71,14.71,22.27,33.79,22.62,52.73Z"/>
  <path class="q" d="M165,435.67c-.14.43-.29.87-.45,1.29h0c-1.27,3.56-2.9,6.92-4.89,10.04,0,.01,0,.02-.02.03h-.01l-21.31,7.08-20.39,6.76-53.79,17.85L0,500l21.41-64.26h.01l17.88-53.65h0s6.77-20.37,6.77-20.37l7.19-21.55c3.05-1.92,6.32-3.5,9.78-4.73.42-.15.85-.3,1.28-.44,23.05-7.63,53.55-.34,77.28,23.4,15.27,15.26,23.73,33.34,25.79,50.42,1.15,9.47.34,18.63-2.39,26.85Z"/>
  <path class="m" d="M64.14,478.72L0,500l21.41-64.26.49-.04c22.23-1.85,44.64,20.98,42.23,43.02h0Z"/>
</svg>