<?xml version="1.0" encoding="UTF-8"?>
<svg id="g" data-name="bio" xmlns="http://www.w3.org/2000/svg" viewBox="0 0 500 500">
  <defs>
    <style>
      .m {
        fill: #2f2542;
      }

      .n {
        fill: #347f80;
      }

      .o {
        fill: #d3db79;
      }
    </style>
  </defs>
  <rect class="n" x="0" y="62.37" width="500" height="438.71" rx="40.38" ry="40.38"/>
  <g>
    <path class="m" d="M96,124.74c-13.81,0-25-11.19-25-25V25c0-13.81,11.19-25,25-25s25,11.19,25,25v74.74c0,13.81-11.19,25-25,25Z"/>
    <path class="m" d="M250,124.74c-13.81,0-25-11.19-25-25V25c0-13.81,11.19-25,25-25s25,11.19,25,25v74.74c0,13.81-11.19,25-25,25Z"/>
    <path class="m" d="M404,124.74c-13.81,0-25-11.19-25-25V25c0-13.81,11.19-25,25-25s25,11.19,25,25v74.74c0,13.81-11.19,25-25,25Z"/>
  </g>
  <path class="o" d="M30.4,177.99h439.19v256.7c0,22.28-18.09,40.38-40.38,40.38H70.78c-22.28,0-40.38-18.09-40.38-40.38V177.99h0Z"/>
  <g>
    <path class="n" d="M144.82,348.43h-53.27c-12.1,0-21.91-9.81-21.91-21.91s9.81-21.91,21.91-21.91h53.27c12.1,0,21.91,9.81,21.91,21.91s-9.81,21.91-21.91,21.91Z"/>
    <path class="n" d="M276.64,348.43h-53.27c-12.1,0-21.91-9.81-21.91-21.91s9.81-21.91,21.91-21.91h53.27c12.1,0,21.91,9.81,21.91,21.91s-9.81,21.91-21.91,21.91Z"/>
    <path class="n" d="M408.45,348.43h-53.27c-12.1,0-21.91-9.81-21.91-21.91s9.81-21.91,21.91-21.91h53.27c12.1,0,21.91,9.81,21.91,21.91s-9.81,21.91-21.91,21.91Z"/>
    <path class="n" d="M144.82,264.29h-53.27c-12.1,0-21.91-9.81-21.91-21.91s9.81-21.91,21.91-21.91h53.27c12.1,0,21.91,9.81,21.91,21.91s-9.81,21.91-21.91,21.91Z"/>
    <path class="n" d="M276.64,264.29h-53.27c-12.1,0-21.91-9.81-21.91-21.91s9.81-21.91,21.91-21.91h53.27c12.1,0,21.91,9.81,21.91,21.91s-9.81,21.91-21.91,21.91Z"/>
    <path class="n" d="M408.45,264.29h-53.27c-12.1,0-21.91-9.81-21.91-21.91s9.81-21.91,21.91-21.91h53.27c12.1,0,21.91,9.81,21.91,21.91s-9.81,21.91-21.91,21.91Z"/>
    <path class="n" d="M144.82,432.57h-53.27c-12.1,0-21.91-9.81-21.91-21.91s9.81-21.91,21.91-21.91h53.27c12.1,0,21.91,9.81,21.91,21.91s-9.81,21.91-21.91,21.91Z"/>
    <path class="n" d="M276.64,432.57h-53.27c-12.1,0-21.91-9.81-21.91-21.91s9.81-21.91,21.91-21.91h53.27c12.1,0,21.91,9.81,21.91,21.91s-9.81,21.91-21.91,21.91Z"/>
    <path class="n" d="M408.45,432.57h-53.27c-12.1,0-21.91-9.81-21.91-21.91s9.81-21.91,21.91-21.91h53.27c12.1,0,21.91,9.81,21.91,21.91s-9.81,21.91-21.91,21.91Z"/>
  </g>
</svg>