<?xml version="1.0" encoding="UTF-8"?>
<svg id="Layer_6" data-name="Layer 6" xmlns="http://www.w3.org/2000/svg" viewBox="0 0 500 498.29">
  <defs>
    <style>
      .cls-1 {
        fill: #2f2542;
      }

      .cls-1, .cls-2 {
        stroke-width: 0px;
      }

      .cls-2 {
        fill: #485c73;
      }
    </style>
  </defs>
  <path class="cls-1" d="m346.85,498.2H49.6c-18.5,0-35.32-10.16-43.91-26.5-8.56-16.29-7.39-35.83,3.06-50.99l85.37-123.89L8.72,172.75c-10.43-15.16-11.6-34.69-3.04-50.98,8.59-16.34,25.41-26.49,43.9-26.49h297.26c13.31,0,25.8,5.19,35.18,14.61,9.35,9.39,14.46,21.86,14.39,35.09l-.25,50.8c-.11,22.14-18.09,40.02-40.21,40.02-.07,0-.13,0-.2,0-22.21-.11-40.13-18.2-40.02-40.41l.1-19.68H108.42l64.09,93.11c11.53,16.75,11.53,39.27-.01,56.02l-64.03,92.91h207.39l-.12-26.17c-.1-22.21,17.83-40.3,40.04-40.39.06,0,.12,0,.18,0,22.13,0,40.12,17.89,40.21,40.04l.25,57.28c.06,13.23-5.06,25.69-14.4,35.08-9.38,9.42-21.87,14.6-35.17,14.6Zm-30.86-49.33h0,0Z"/>
  <path class="cls-2" d="m462.51,329.28h-214.33c-13.99,0-26.71-8.59-33.21-22.43-6.47-13.79-5.59-30.33,2.32-43.15l60.88-98.85-60.9-99c-7.89-12.82-8.77-29.36-2.3-43.14C221.46,8.87,234.18.28,248.17.28h214.34c10.06,0,19.51,4.39,26.6,12.37,7.07,7.95,10.94,18.5,10.89,29.7l-.18,40.99c-.08,18.94-13.83,34.23-30.74,34.23h-.15c-16.98-.09-30.68-15.57-30.59-34.57l.06-13.92h-144.49l44.33,72.07c8.72,14.18,8.72,33.24,0,47.41l-44.29,71.91h144.46l-.08-19.16c-.08-19,13.63-34.47,30.61-34.55h.14c16.92,0,30.67,15.3,30.74,34.25l.18,46.22c.04,11.2-3.83,21.74-10.9,29.69-7.09,7.97-16.53,12.36-26.59,12.36Zm-24-41.75h.01-.01Z"/>
</svg>