<svg xmlns="http://www.w3.org/2000/svg" viewBox="0 0 110.51 120.15"><defs><style>.cls-1{fill:#302f41;}.cls-2{fill:#fff;}</style></defs><g id="Layer_2" data-name="Layer 2"><g id="d"><path class="cls-1" d="M104.54,39.37a3.87,3.87,0,0,1-.84-3.57c1.86-6.92,6.56-27.95-3.07-34.45C89-7.24,7.18,26.66,9.06,58.14a3.91,3.91,0,0,1-1.78,3.53c-10.56,6.65-10,31,4.07,43a3.93,3.93,0,0,1,1.23,4.11C10.14,117,20.72,121.64,28,117a4,4,0,0,1,3.27-.49c7.71,2.32,37.16,9.92,40.57-7.38a3.82,3.82,0,0,1,2.7-2.95C116.54,93.27,114.43,50.27,104.54,39.37ZM62.32,113.84C45,123.91,5.93,101.76,10.26,76.9a3,3,0,0,1,5.5-1c11.16,18.25,23.39,31.78,45.1,32.35A3,3,0,0,1,62.32,113.84ZM57.11,62.61c3.94,13.12-10.58,41.61-20.86,31.32C-17.24,40.46,92.3-5.44,99.35,3.86c0,0,9,2.48,2.06,32.84a3.92,3.92,0,0,0,.69,3.21C116.41,58.77,85,72.58,57.11,62.61Z"/><path class="cls-2" d="M62.32,113.84C45,123.91,5.93,101.76,10.26,76.9a3,3,0,0,1,5.5-1c11.16,18.25,23.39,31.78,45.1,32.35A3,3,0,0,1,62.32,113.84Z"/><path class="cls-2" d="M57.11,62.61c3.94,13.12-10.58,41.61-20.86,31.32C-17.24,40.46,92.3-5.44,99.35,3.86c0,0,9,2.48,2.06,32.84a3.92,3.92,0,0,0,.69,3.21C116.41,58.77,85,72.58,57.11,62.61Z"/></g></g></svg>