<?xml version="1.0" encoding="UTF-8"?>
<svg id="Layer_9" data-name="Layer 9" xmlns="http://www.w3.org/2000/svg" viewBox="0 0 500 500">
  <defs>
    <style>
      .cls-1 {
        fill: #2f2542;
      }

      .cls-1, .cls-2 {
        stroke-width: 0px;
      }

      .cls-2 {
        fill: #485c73;
      }
    </style>
  </defs>
  <path class="cls-1" d="m231.52,500c-45.21,0-95.34-8.21-149.77-24.58-22.5-6.77-35.3-31.25-26.8-53.15,7.49-19.31,28.72-29.89,48.89-23.8,66.41,20.08,125.85,26.2,171.89,17.68,33.96-6.28,60.17-20.6,73.8-40.31,14.57-21.07,10.04-41.48-4.95-55.37-18.6-17.24-42.76-34.2-76.93-39.67-45.44-7.28-102.13.57-163.96,22.69h0c-26.07,9.33-53.5-10-53.5-37.68V74.59c0-25.57,20.73-46.3,46.3-46.3h280.77c23.67,0,42.77,19.39,41.04,43-1.52,20.72-18.81,37.05-39.92,37.05h-247.98c-.09,0-.17.07-.17.17v102.99c0,.11.1.19.21.16,54.54-13.78,104.77-17.12,149.86-9.9,54.45,8.72,99.83,33.56,127.78,69.97,37.47,48.81,41.59,100.05,7.31,149.64-18.21,26.35-54.7,60.48-125.09,73.5-18.52,3.43-38.13,5.14-58.76,5.14Z"/>
  <path class="cls-2" d="m250.72,472.22c-44.11,0-93.01-8.01-146.11-23.98-21.95-6.6-34.43-30.48-26.15-51.85,7.31-18.84,28.02-29.16,47.69-23.21,64.79,19.59,122.77,25.56,167.68,17.25,33.13-6.13,58.7-20.09,71.99-39.32,14.21-20.55,13.15-45.25-2.83-66.06-15.06-19.62-41.72-33.36-75.05-38.7-44.33-7.1-99.64.56-159.95,22.13h0c-25.43,9.1-52.2-9.75-52.2-36.76V45.17C75.81,20.22,96.03,0,120.98,0h273.91c23.09,0,41.73,18.91,40.04,41.94-1.48,20.21-18.35,36.15-38.94,36.15h-241.92c-.09,0-.16.07-.16.16v100.48c0,.11.1.18.2.16,53.21-13.45,102.21-16.7,146.2-9.66,53.12,8.5,97.39,32.74,124.65,68.26,36.55,47.62,38.56,109.64,5.12,158.02-17.77,25.7-53.36,59-122.03,71.71-18.07,3.34-37.2,5.01-57.33,5.01Z"/>
</svg>