<?xml version="1.0" encoding="UTF-8"?>
<svg id="Layer_9" data-name="Layer 9" xmlns="http://www.w3.org/2000/svg" viewBox="0 0 500 500">
  <defs>
    <style>
      .cls-1 {
        fill: #c7d4db;
      }

      .cls-1, .cls-2, .cls-3 {
        stroke-width: 0px;
      }

      .cls-2 {
        fill: #2f2542;
      }

      .cls-3 {
        fill: #485c73;
      }
    </style>
  </defs>
  <path class="cls-1" d="m496.93,92.23c-2.38,6.82-6.19,13.06-11.45,18.33l-30.48,30.55c-4.04,4.05-8.64,7.23-13.65,9.58l-91.7-91.9c2.34-5.02,5.52-9.63,9.56-13.68l30.48-30.55c5.26-5.27,11.48-9.09,18.29-11.48l88.96,89.15Z"/>
  <path class="cls-1" d="m496.93,92.23c-2.38,6.82-6.19,13.06-11.45,18.33-5.4,5.41-11.82,9.28-18.83,11.66h0c-21.72,7.4-49.09.49-69.09-19.55s-26.89-47.48-19.52-69.24h.01c2.37-7.03,6.24-13.46,11.64-18.87,5.26-5.27,11.48-9.09,18.29-11.48,21.8-7.7,49.48-.84,69.64,19.36,20.16,20.2,27.01,47.94,19.32,69.79Z"/>
  <path class="cls-3" d="m466.65,122.22h0c-2.38,7.04-6.25,13.47-11.65,18.88-4.04,4.05-8.64,7.23-13.65,9.58-22.4,10.53-52.65,4.2-74.27-17.47-21.62-21.67-27.93-51.98-17.43-74.43,2.34-5.02,5.52-9.63,9.56-13.68,5.4-5.41,11.82-9.28,18.83-11.67h.01c21.72-7.39,49.08-.48,69.08,19.56,20,20.04,26.89,47.47,19.52,69.23Z"/>
  <path class="cls-1" d="m430.07,130.71L103.25,458.24c-.83.83-1.69,1.63-2.58,2.36-.22.19-.44.37-.66.56l-11.88,3.95-11.76,3.91-2.3.76c-10.94-.23-22.04-4.68-30.64-13.3-8.52-8.54-12.96-19.56-13.27-30.43l.86-2.57,3.91-11.77,4.06-12.21c.11-.13.22-.26.34-.39.73-.88,1.51-1.75,2.34-2.57L368.49,68.99c16.02-16.06,42.81-15.27,59.82,1.77,17,17.04,17.79,43.89,1.76,59.95Z"/>
  <path class="cls-3" d="m103.51,454.44c-.08.25-.16.5-.25.74-.69,1.92-1.55,3.73-2.59,5.41-.07.13-.15.26-.23.39t-.02.02l-.41.14-11.88,3.95-11.76,3.91-2.3.76-28.73,9.56-36.99,12.29,12.34-37.14h.01l9.45-28.44.86-2.57,3.91-11.77,4.06-12.21.09-.25c.09-.05.16-.1.25-.14,1.68-1.05,3.48-1.91,5.39-2.59.24-.09.49-.17.74-.25,13.29-4.42,30.88-.2,44.57,13.52,8.81,8.83,13.68,19.28,14.87,29.14.66,5.48.2,10.77-1.38,15.52Z"/>
  <path class="cls-2" d="m7.63,500c-1.95,0-3.91-.75-5.4-2.24-2.98-2.99-2.98-7.83,0-10.81l14.67-14.7c2.98-2.99,7.81-2.99,10.79,0s2.98,7.83,0,10.81l-14.67,14.7c-1.49,1.49-3.44,2.24-5.4,2.24Z"/>
</svg>