<?xml version="1.0" encoding="UTF-8"?>
<svg id="Layer_9" data-name="Layer 9" xmlns="http://www.w3.org/2000/svg" viewBox="0 0 500 500">
  <defs>
    <style>
      .cls-1 {
        fill: #485c73;
        stroke-width: 0px;
      }
    </style>
  </defs>
  <path class="cls-1" d="m474.95,444.59c-46.06,0-82.36-22.97-107.89-68.29-20.49-36.37-31.75-82.03-42.64-126.2-9.16-37.15-17.81-72.25-30.75-96.95-11.84-22.6-24.9-32.25-43.67-32.25s-31.84,9.64-43.67,32.25c-12.93,24.7-21.59,59.79-30.75,96.95-10.89,44.16-22.15,89.83-42.64,126.2-25.53,45.31-61.83,68.29-107.89,68.29-13.84,0-25.05-12.43-25.05-27.75s11.21-27.75,25.05-27.75c60,0,78.64-58.03,102.2-153.6,9.6-38.95,19.53-79.22,35.74-110.17,20.81-39.74,50.09-59.9,87.01-59.9s66.19,20.15,87.01,59.9c16.21,30.95,26.14,71.23,35.74,110.17,23.56,95.57,42.2,153.6,102.2,153.6,13.84,0,25.05,12.42,25.05,27.75s-11.21,27.75-25.05,27.75Z"/>
</svg>