<?xml version="1.0" encoding="UTF-8"?>
<svg id="Layer_9" data-name="Layer 9" xmlns="http://www.w3.org/2000/svg" viewBox="0 0 500 500">
  <defs>
    <style>
      .cls-1 {
        fill: #2f2542;
      }

      .cls-1, .cls-2 {
        stroke-width: 0px;
      }

      .cls-2 {
        fill: #485c73;
      }
    </style>
  </defs>
  <path class="cls-2" d="m446.47,370h-239.96c-55.44,0-83.21-67.03-44-106.24l159.86-159.86c.14-.14.04-.37-.15-.37h-150.83c-30.68,0-55.42-25.12-53.17-55.72C120.17,20.98,142.57-.18,169.91-.18h252.99c55.43,0,83.19,67.02,44,106.22l-159.87,159.87c-.14.14-.04.37.15.37h140.74c27.34,0,49.75,21.17,51.72,48.01,2.25,30.59-22.5,55.71-53.17,55.71Z"/>
  <path class="cls-1" d="m209.67,499.82H56.8c-35.32,0-53.01-42.7-28.03-67.68l101.84-101.84c.09-.09.03-.23-.1-.23H34.42c-19.54,0-35.31-16-33.87-35.49,1.26-17.1,15.53-30.58,32.95-30.58h161.17c35.31,0,53,42.7,28.03,67.67l-101.85,101.85c-.09.09-.03.23.1.23h89.66c17.42,0,31.69,13.48,32.95,30.58,1.43,19.49-14.33,35.49-33.88,35.49Z"/>
</svg>