<?xml version="1.0" encoding="UTF-8"?>
<svg id="Layer_9" data-name="Layer 9" xmlns="http://www.w3.org/2000/svg" viewBox="0 0 500 500">
  <defs>
    <style>
      .cls-1 {
        fill: #c7d4db;
      }

      .cls-1, .cls-2 {
        stroke-width: 0px;
      }

      .cls-2 {
        fill: #485c73;
      }
    </style>
  </defs>
  <path class="cls-1" d="m462.29,301H37.71c-20.83,0-37.71-17.91-37.71-40s16.88-40,37.71-40h424.58c20.83,0,37.71,17.91,37.71,40s-16.88,40-37.71,40Z"/>
  <circle class="cls-2" cx="429" cy="260.62" r="70.62"/>
  <path class="cls-1" d="m462.29,151H37.71c-20.83,0-37.71-17.91-37.71-40s16.88-40,37.71-40h424.58c20.83,0,37.71,17.91,37.71,40s-16.88,40-37.71,40Z"/>
  <circle class="cls-2" cx="250" cy="110.62" r="70.62"/>
  <path class="cls-1" d="m462.29,452H37.71c-20.83,0-37.71-17.91-37.71-40s16.88-40,37.71-40h424.58c20.83,0,37.71,17.91,37.71,40s-16.88,40-37.71,40Z"/>
  <circle class="cls-2" cx="71" cy="411.62" r="70.62"/>
</svg>