<?xml version="1.0" encoding="UTF-8"?>
<svg id="Layer_9" data-name="Layer 9" xmlns="http://www.w3.org/2000/svg" viewBox="0 0 500 500">
  <defs>
    <style>
      .cls-1 {
        fill: #2f2542;
      }

      .cls-1, .cls-2 {
        stroke-width: 0px;
      }

      .cls-2 {
        fill: #485c73;
      }
    </style>
  </defs>
  <path class="cls-2" d="m269.83,138.78c0,21.17-16.62,38.32-37.12,38.32h-60.61v62.57c0,21.17-16.62,38.32-37.12,38.32s-37.12-17.16-37.12-38.32v-62.57h-60.61c-20.5-.01-37.12-17.17-37.12-38.32s16.62-38.32,37.12-38.32h60.61v-62.57C97.84,16.72,114.47-.44,134.97-.44s37.12,17.16,37.12,38.32v62.57h60.61c20.5,0,37.12,17.16,37.12,38.32h0Z"/>
  <path class="cls-1" d="m500,325.5c0,26.53-20.84,48.04-46.53,48.04h-75.97v78.43c0,26.53-20.84,48.04-46.53,48.04s-46.53-21.5-46.53-48.04v-78.43h-75.97c-25.7-.02-46.53-21.52-46.53-48.04s20.84-48.04,46.53-48.04h75.97v-78.43c0-26.53,20.84-48.04,46.53-48.04s46.53,21.5,46.53,48.04v78.43h75.97c25.7,0,46.53,21.5,46.53,48.04h0Z"/>
</svg>